<svg width="50" height="51" fill="none" xmlns="http://www.w3.org/2000/svg"><g clip-path="url(#clip0)" fill="#1E5DC5"><path d="M49.873 43.16a1.953 1.953 0 00-3.824.796 2.04 2.04 0 01-.414 1.71 1.985 1.985 0 01-1.562.743h-8.82a1.953 1.953 0 100 3.906h8.82c1.79 0 3.464-.796 4.593-2.184a5.931 5.931 0 001.207-4.972zm-22.89-16.207a21.486 21.486 0 0115.89 9.452 1.953 1.953 0 103.244-2.175 25.404 25.404 0 00-13.165-10.002c3.233-2.424 5.33-6.288 5.33-10.631C38.282 6.273 32.324.315 25 .315S11.718 6.273 11.718 13.597c0 4.346 2.099 8.212 5.336 10.636a25.381 25.381 0 00-8.184 4.498C4.405 32.405 1.299 37.53.127 43.16a5.931 5.931 0 001.208 4.972 5.896 5.896 0 004.593 2.184h8.526a1.953 1.953 0 100-3.906H5.927a1.985 1.985 0 01-1.562-.743 2.04 2.04 0 01-.414-1.71c1.913-9.187 9.666-16.036 18.866-16.981l-3.729 16.963c-.142.651.056 1.33.527 1.8l3.907 3.908a1.953 1.953 0 002.762 0l3.906-3.907a1.95 1.95 0 00.526-1.8l-3.733-16.986zM15.627 13.597c0-5.17 4.205-9.375 9.374-9.375 5.17 0 9.376 4.205 9.376 9.375 0 5.013-3.956 9.12-8.91 9.363a24.855 24.855 0 00-.922 0c-4.959-.239-8.918-4.347-8.918-9.363zm9.277 31.905l-1.77-1.77 1.77-8.049 1.769 8.05-1.77 1.77z"/></g><defs><clipPath id="clip0"><path fill="#fff" d="M0 .315h50v50H0z"/></clipPath></defs></svg>