<svg width="60" height="53" fill="none" xmlns="http://www.w3.org/2000/svg"><path fill-rule="evenodd" clip-rule="evenodd" d="M32.868 2.948c-11.25 0-20.655 7.871-22.95 18.381a1.323 1.323 0 01-2.587-.559C9.885 9.075 20.347.315 32.868.315 47.3.315 59 11.956 59 26.315c0 14.36-11.7 26-26.132 26-13.132 0-24-9.635-25.854-22.188a1.318 1.318 0 011.117-1.494 1.322 1.322 0 011.501 1.111c1.667 11.28 11.436 19.938 23.236 19.938 12.97 0 23.486-10.461 23.486-23.367 0-12.905-10.515-23.367-23.486-23.367z" fill="#00D2A0" stroke="#00D2A0" stroke-width=".6" stroke-linecap="round"/><path d="M1.4 26.666c.594.781 1.7.735 2.405.207.51-.38 1.016-.585 1.5-.585.805 0 1.48.35 2.286.768l.165.086c.866.447 1.856.921 3.189.921 1.134 0 2.428-.57 3.495-1.51.509-.448.541-1.181.204-1.716-.272-.432-.717-.645-1.172-.692a2.183 2.183 0 00-1.328.303c-.458.276-.93.418-1.36.418-.77 0-1.492-.363-2.34-.792-.826-.418-1.754-.885-2.853-.956-1.725-.113-2.974.673-4.015 1.58-.582.508-.628 1.372-.176 1.968zm16.423-5.147c.935.414 1.944-.017 2.578-.688.701-.742 1.662-1.195 3.197-1.195 1.023 0 1.894.2 2.498.555.595.35.918.838.918 1.45 0 .59-.326 1.133-.97 1.543-.648.412-1.604.675-2.793.675h-.468a1.758 1.758 0 000 3.515h.36c1.302 0 2.382.134 3.128.485.367.173.642.394.827.668.183.273.29.618.29 1.065 0 .726-.37 1.3-1.016 1.707-.654.412-1.582.643-2.64.643-1.2 0-2.523-.509-3.446-1.378-.694-.653-1.767-1.148-2.76-.737-.933.387-1.52 1.512-.886 2.446 1.628 2.4 4.757 3.342 7.36 3.342 1.977 0 3.803-.558 5.142-1.596 1.345-1.044 2.188-2.566 2.188-4.454 0-1.476-.487-2.546-1.202-3.294a4.648 4.648 0 00-1.628-1.083c1.46-.752 2.43-2.297 2.43-4.209 0-1.532-.78-2.785-2.051-3.644-1.265-.853-3.02-1.32-5.014-1.32-2.908 0-5.474 1.105-6.862 3.112-.622.9-.075 1.996.82 2.392zm15.432 3.247a2.245 2.245 0 002.017 2.423c.592.058 1.151-.14 1.624-.401.696-.384 1.565-.606 2.726-.606 1.226 0 2.166.294 2.795.804.62.503.968 1.24.968 2.208 0 .806-.307 1.482-.87 1.961-.568.483-1.422.787-2.546.787-1.32 0-2.579-.407-3.413-1.155-.678-.608-1.706-1.164-2.699-.804-.96.349-1.576 1.476-.954 2.426 1.582 2.418 4.444 3.206 6.906 3.206 2.142 0 4.013-.626 5.353-1.764 1.346-1.14 2.138-2.782 2.138-4.763 0-1.871-.627-3.48-1.876-4.62-1.246-1.137-3.077-1.775-5.428-1.775-1.331 0-2.246.197-2.967.48l.325-3.325h7.614a1.797 1.797 0 100-3.594h-7.962a3.3 3.3 0 00-3.288 3.023l-.463 5.49z" fill="#00D2A0" stroke="#00D2A0" stroke-width=".6"/></svg>