<svg width="50" height="51" fill="none" xmlns="http://www.w3.org/2000/svg"><path d="M32.71 24.039a2.45 2.45 0 01-2.234-2.236 2.442 2.442 0 012.631-2.631 2.45 2.45 0 012.235 2.235 2.442 2.442 0 01-2.631 2.632zm-15.325 0a2.45 2.45 0 002.235-2.236 2.442 2.442 0 00-2.631-2.631 2.45 2.45 0 00-2.236 2.235 2.442 2.442 0 002.632 2.632zM47.484.938a4.821 4.821 0 00-4.953.127l-.05.032-8.21 5.47H15.164l-7.558-5.27-.047-.031a4.877 4.877 0 00-4.997-.212A4.877 4.877 0 000 5.349v19.967c0 6.678 2.6 12.955 7.322 17.677 4.722 4.722 11 7.322 17.677 7.322 4.435 0 8.792-1.177 12.6-3.403a1.953 1.953 0 00-1.972-3.372A21.073 21.073 0 0125 46.41c-5.748 0-10.966-2.313-14.774-6.055h.42a1.953 1.953 0 100-3.906H7.09a21.019 21.019 0 01-1.91-3.907h6.635a1.953 1.953 0 000-3.906H4.168a21.176 21.176 0 01-.262-3.32c0-4.372 1.25-7.792 4.314-11.807a1.953 1.953 0 00-3.105-2.37 34.78 34.78 0 00-1.21 1.684V5.349c0-.525.36-.776.514-.859a.956.956 0 01.981.031l8.033 5.6c.328.23.718.352 1.117.352h20.312c.385 0 .762-.114 1.083-.328l8.672-5.777a.957.957 0 01.972-.014.958.958 0 01.503.853v7.616a34.143 34.143 0 00-1.209-1.684 1.953 1.953 0 10-3.105 2.37c3.064 4.015 4.314 7.435 4.314 11.807 0 1.12-.087 2.23-.26 3.32h-7.65a1.953 1.953 0 000 3.906h6.641a20.966 20.966 0 01-1.904 3.906h-3.565a1.953 1.953 0 000 3.907h4.618c.642 0 1.242-.316 1.607-.843A24.858 24.858 0 0050 25.316V5.207c0-1.8-.94-3.396-2.515-4.269zM21.093 40.843c1.5 0 2.869-.567 3.906-1.497a5.835 5.835 0 003.906 1.497c3.23 0 5.86-2.629 5.86-5.86a1.953 1.953 0 10-3.907 0 1.955 1.955 0 01-1.953 1.954 1.955 1.955 0 01-1.953-1.953c0-.16-.021-.313-.057-.46 1.346-.844 3.066-2.234 3.778-4.109.326-.858-.3-1.779-1.212-1.779h-8.728c-.912 0-1.539.921-1.213 1.779.68 1.791 2.28 3.193 3.595 4.061a1.934 1.934 0 00-.069.508 1.955 1.955 0 01-1.953 1.953 1.955 1.955 0 01-1.953-1.953 1.953 1.953 0 10-3.906 0 5.866 5.866 0 005.859 5.859z" fill="#1E5DC5"/></svg>