<svg width="44" height="51" fill="none" xmlns="http://www.w3.org/2000/svg"><path d="M38.086 18.284h-1.66v-1.367a1.953 1.953 0 00-1.953-1.953H1.953A1.953 1.953 0 000 16.917v25.586c0 4.308 3.505 7.812 7.813 7.812h20.8c4.308 0 7.813-3.504 7.813-7.812a1.953 1.953 0 10-3.907 0 3.91 3.91 0 01-3.906 3.906h-20.8a3.91 3.91 0 01-3.907-3.906V18.87h7.813v4.965l-2.797 2.869a3.885 3.885 0 00-1.11 2.726v6.042a3.91 3.91 0 003.907 3.906h3.906a3.91 3.91 0 003.906-3.906v-6.013a3.93 3.93 0 00-1.178-2.796l-2.728-2.661V18.87H32.52v13.867c0 1.08.874 1.953 1.953 1.953.032 0 .065-.003.097-.005.033.002.065.005.098.005h3.418a5.866 5.866 0 005.86-5.859v-4.687a5.866 5.866 0 00-5.86-5.86zM15.625 35.472h-3.906V29.43l-1.399-1.363 1.399 1.363 1.89-1.938 2.016 1.967v6.013zm24.414-6.64a1.956 1.956 0 01-1.953 1.952h-1.66V22.19h1.66c1.077 0 1.953.877 1.953 1.954v4.687zM3.516 9.103c0-2.043 1.443-3.293 2.604-4.298 1.11-.961 1.79-1.598 1.79-2.537a1.953 1.953 0 113.906 0c0 2.77-1.814 4.343-3.14 5.49-.469.406-1.254 1.087-1.254 1.345a1.953 1.953 0 11-3.906 0zm10.644 0c0-2.03 1.413-3.28 2.548-4.285 1.088-.962 1.755-1.6 1.755-2.55a1.953 1.953 0 113.906 0c0 2.759-1.776 4.33-3.073 5.477-.49.433-1.23 1.087-1.23 1.358a1.953 1.953 0 11-3.906 0zm10.45 0c0-2.03 1.41-3.28 2.544-4.283 1.087-.963 1.752-1.601 1.752-2.552a1.953 1.953 0 113.907 0c0 2.758-1.774 4.328-3.069 5.476-.49.433-1.228 1.087-1.228 1.36a1.953 1.953 0 11-3.907 0z" fill="#1E5DC5"/></svg>