<svg width="64" height="52" fill="none" xmlns="http://www.w3.org/2000/svg"><path d="M21.5 22.116a2.5 2.5 0 100-5 2.5 2.5 0 000 5z" fill="#00D2A0"/><path d="M64 19.116c0-7.104-8.535-12.364-11.586-15.414C49.4.687 43.757.845 41.478 1.052c-3.056-.588-6.573-.031-9.478.94-2.926-.978-6.433-1.525-9.477-.94-2.277-.208-7.922-.366-10.937 2.65C8.53 6.755 0 12.01 0 19.115c0 6.415 4 10.715 4 14 0 2.859-1.393 4.264-.123 5.897.858 1.103 2.331 1.103 3.123 1.103 1.78 0 3.386-.984 4.743-2.435.11.387.24.78.4 1.178 1.953 4.882 2.145 10.934 8.436 12.212.694.149 1.44.16 2.174.017 4.949-.161 7.722-.972 9.247-.972 1.528 0 4.3.81 9.246.972a5.444 5.444 0 002.146-.011c6.175-.988 6.646-7.671 8.465-12.218.16-.398.29-.79.4-1.178 1.357 1.451 2.962 2.435 4.743 2.435.792 0 2.265 0 3.123-1.103 1.255-1.614-.123-3.107-.123-5.897 0-3.284 4-7.583 4-14zM7.716 35.882c.764-3.706-.048-5.732-1.59-9.162-3.714-8.263-3.001-10.61 5.572-17.796 1.068-.895 1.99-1.668 2.716-2.394.389-.389.912-.688 1.514-.917-3.804 5.619-7.046 9.369-4.851 17.052.845 2.957.693 5.328.473 7.59-1.052 2.829-2.659 4.945-3.834 5.627zm20.9 10.62c1.125-1.49 2.597-3.743 3.384-4.315.788.573 2.255 2.82 3.384 4.315-3.366-.516-3.418-.515-6.768 0zM32 30.116c1.104.003 2.451.203 2.913.425.072.19.147.64.013 1.114-.23.821-.402.46-2.926 2.052-2.514-1.585-2.696-1.233-2.926-2.052-.134-.475-.059-.925.013-1.114.462-.222 1.81-.422 2.913-.425zm16.143 7.257c-1.971 4.93-1.918 8.935-5.354 9.741a48.294 48.294 0 01-.967-.013c-2.608-.804-5.089-6.69-7.822-8.388v-1.537a24.68 24.68 0 012.237-1.272c3.143-1.57 3.551-6.171 1.52-8.203-2.121-2.12-9.392-2.121-11.514 0-2.006 2.006-1.658 6.615 1.52 8.203A24.7 24.7 0 0130 37.175v1.538c-2.731 1.696-5.214 7.584-7.823 8.388-.313.008-.635.012-.966.013-3.437-.806-3.385-4.819-5.354-9.741-1.71-4.277 1.162-8.471-.934-15.807-1.72-6.021.675-8.242 4.741-14.34.772-1.16 1.893-1.812 3.136-2.142a1.98 1.98 0 00.749-.159c3.6-.587 7.696 1.06 7.963 1.128.402.102.804.073 1.167-.059 3.811-1.376 9.4-2.156 11.657 1.231 4.043 6.064 6.465 8.307 4.74 14.341-2.096 7.339.78 11.522-.933 15.807zm9.73-10.653c-1.54 3.428-2.354 5.453-1.589 9.162-1.175-.682-2.782-2.798-3.834-5.628-.22-2.261-.372-4.633.473-7.589 2.19-7.662-1.033-11.411-4.85-17.052.6.229 1.124.528 1.513.917.726.726 1.648 1.5 2.716 2.394 8.572 7.186 9.287 9.532 5.572 17.796z" fill="#00D2A0"/><path d="M42.5 22.116a2.5 2.5 0 100-5 2.5 2.5 0 000 5z" fill="#00D2A0"/></svg>