<svg width="50" height="51" fill="none" xmlns="http://www.w3.org/2000/svg"><path d="M48.884 1.435c-.518-.518-1.45-1.134-2.962-1.12-4.307.042-10.736 5.289-13.147 7.52H7.52c-4.147 0-7.52 3.373-7.52 7.52 0 .815.507 1.544 1.27 1.83l16.321 6.085-7.654 7.712-5.906.682c-1.357.156-2.61.8-3.526 1.813a1.954 1.954 0 00.551 3.046l6.318 3.265-1.919 1.92a1.953 1.953 0 102.762 2.762l1.998-1.999 3.909 6.858a1.955 1.955 0 003.145.343l.141-.156a5.597 5.597 0 001.415-3.115l.711-6.03 7.39-7.414 5.998 16.087a1.952 1.952 0 001.83 1.27c4.146 0 7.52-3.373 7.52-7.52a1.953 1.953 0 00-3.907 0 3.62 3.62 0 01-2.343 3.384L29.96 29.912l3.208-3.218a1.953 1.953 0 00-2.767-2.758l-6.13 6.152h-.001l-7.976 8.005c-.31.31-.505.715-.557 1.15l-.491 4.164-2.903-5.095a1.953 1.953 0 00-.8-.768l-4.454-2.302 3.977-.459c.44-.05.85-.25 1.162-.564l8.248-8.31 6.106-6.152a1.953 1.953 0 00-2.772-2.752l-3.197 3.222-16.475-6.143a3.62 3.62 0 013.383-2.343h26.038c.518 0 1.014-.206 1.38-.572 1.116-1.115 3.25-2.913 5.506-4.416 3.5-2.333 5.106-2.528 5.515-2.531a.967.967 0 01.13.005l.005.086c.035 2.351-4.144 8.259-6.98 11.094l-.007.008-.159.16c-.372.367-.58.868-.58 1.39V33.03a1.953 1.953 0 003.906 0V17.761c1.19-1.253 2.956-3.358 4.552-5.755C48.962 8.798 50.03 6.19 50 4.253c-.021-1.43-.618-2.321-1.115-2.818z" fill="#00D2A0"/></svg>