<svg width="50" height="51" fill="none" xmlns="http://www.w3.org/2000/svg"><path d="M42.516 20.92h-2.151c.042-.653.065-1.305.065-1.952a1.953 1.953 0 00-1.953-1.953H1.953A1.953 1.953 0 000 18.968c0 4.864 1.227 9.995 3.455 14.448 1.79 3.579 4.178 6.616 6.871 8.78-1.727 1.802-2.709 3.986-2.709 6.166 0 1.08.875 1.953 1.953 1.953h21.387a1.953 1.953 0 001.953-1.953c0-2.163-1.013-4.353-2.796-6.176 2.69-2.163 5.073-5.196 6.861-8.77l.04-.08a7.13 7.13 0 005.501 2.552 1.953 1.953 0 100-3.906c-1.913 0-3.356-1.538-3.356-3.577 0-.153-.019-.3-.052-.443.302-1.034.555-2.082.755-3.135h2.653a3.582 3.582 0 013.578 3.578 1.953 1.953 0 103.906 0c0-4.127-3.357-7.484-7.484-7.484zM25.901 40.37a1.953 1.953 0 00-.087 3.31c1.162.77 2.078 1.74 2.624 2.73H12.046c.48-.92 1.272-1.807 2.295-2.54h4.8a1.953 1.953 0 100-3.906h-5.26C8.511 36.398 4.555 28.733 3.98 20.92h32.47c-.6 8.123-4.851 16.087-10.55 19.45zM6.25 9.105c0-2.043 1.444-3.293 2.604-4.298 1.11-.961 1.79-1.598 1.79-2.537a1.953 1.953 0 113.907 0c0 2.77-1.815 4.343-3.14 5.49-.47.406-1.255 1.087-1.255 1.345a1.953 1.953 0 11-3.906 0zm10.547 0c0-2.043 1.444-3.293 2.604-4.298 1.11-.961 1.79-1.598 1.79-2.537a1.953 1.953 0 113.907 0c0 2.77-1.815 4.343-3.14 5.49-.47.406-1.255 1.087-1.255 1.345a1.953 1.953 0 11-3.906 0zm10.45 0c0-2.03 1.41-3.28 2.544-4.283 1.086-.963 1.752-1.601 1.752-2.552a1.953 1.953 0 113.906 0c0 2.758-1.773 4.328-3.068 5.476-.49.433-1.229 1.087-1.229 1.36a1.953 1.953 0 11-3.906 0z" fill="#00D2A0"/></svg>