<svg width="34" height="34" fill="none" xmlns="http://www.w3.org/2000/svg"><path d="M24.875 7.125H8.332C7.602 7.125 7 7.77 7 8.543V25c0 .773.602 1.375 1.332 1.375h16.543c.73 0 1.375-.602 1.375-1.375V8.543c0-.773-.645-1.418-1.375-1.418zm-12.074 16.5H9.965v-9.152H12.8v9.152zm-1.418-10.441c-.945 0-1.676-.73-1.676-1.633s.73-1.676 1.676-1.676c.902 0 1.633.773 1.633 1.676 0 .902-.73 1.633-1.633 1.633zM23.5 23.625h-2.879v-4.469c0-1.031 0-2.406-1.46-2.406-1.505 0-1.72 1.16-1.72 2.363v4.512h-2.835v-9.152h2.707v1.246h.043c.386-.73 1.331-1.504 2.706-1.504 2.88 0 3.438 1.933 3.438 4.383v5.027z" fill="#828282"/></svg>