<svg width="64" height="64" fill="none" xmlns="http://www.w3.org/2000/svg"><g clip-path="url(#clip0_119221:170900)" fill="#00D2A0"><path d="M8.482 38.15l4.461-2.121 3.075 1.274 1.655 4.654h6.61l1.656-4.654 3.075-1.274 4.461 2.12 4.675-4.674-2.121-4.461 1.273-3.075 4.655-1.655v-6.61l-4.654-1.656-1.274-3.075 2.12-4.461-4.674-4.675-4.461 2.121-3.075-1.274L24.284 0h-6.61l-1.656 4.654-3.075 1.274-4.461-2.12-4.675 4.674 2.121 4.461-1.274 3.075L0 17.673v6.61l4.654 1.656 1.274 3.075-2.12 4.461 4.674 4.675zM1.879 22.958v-3.959l4.191-1.49 1.913-4.618-1.91-4.018 2.8-2.8 4.018 1.91 4.617-1.913L19 1.88h3.959l1.49 4.191 4.618 1.913 4.018-1.91 2.8 2.8-1.91 4.018 1.912 4.617L40.078 19v3.959l-4.192 1.49-1.912 4.618 1.91 4.018-2.8 2.8-4.018-1.91-4.617 1.913-1.491 4.191h-3.959l-1.49-4.191-4.618-1.913-4.018 1.91-2.8-2.8 1.91-4.018L6.07 24.45l-4.19-1.493z"/><path d="M20.978 31.937c6.043 0 10.96-4.916 10.96-10.959 0-6.042-4.917-10.959-10.96-10.959-6.042 0-10.959 4.917-10.959 10.96 0 6.042 4.917 10.958 10.96 10.958zM11.947 20.04c.186-1.8.9-3.445 1.985-4.779l1.423 1.423 1.328-1.328-1.423-1.423a9.037 9.037 0 014.779-1.985v2.018h1.879v-2.018c1.8.186 3.445.9 4.779 1.985l-1.424 1.423 1.329 1.328 1.423-1.423a9.037 9.037 0 011.985 4.779h-2.018v1.879h2.018a9.038 9.038 0 01-1.985 4.779l-1.423-1.423-1.328 1.328 1.423 1.423a9.037 9.037 0 01-4.78 1.985v-2.018H20.04v2.018a9.038 9.038 0 01-4.779-1.985l1.423-1.423-1.328-1.328-1.423 1.423a9.038 9.038 0 01-1.985-4.78h2.018V20.04h-2.018z"/><path d="M24.398 23.07l-2.48-2.48v-4.37h-1.879v5.147l3.03 3.031 1.33-1.328zM64 34.254v-5.949h-9.394V64H64V36.133h-1.88v25.988h-5.636V30.184h5.636v4.07H64zM42.082 64h9.393V48.657h-1.878v13.464H43.96v-18.16h5.636v2.818h1.878v-4.697h-9.393V64zm-12.524 0h9.393v-7.828h-1.879v5.95h-5.636V51.474h5.636v2.819h1.879v-4.697h-9.393V64zm-12.525 0h9.393v-4.822h-1.878v2.944h-5.636v-6.889h5.636V57.3h1.879v-3.946h-9.394V64zM4.509 64h9.393v-8.141H4.51v8.14zm1.878-6.262h5.637v4.383H6.387v-4.383zm-1.565-6.513c.635 0 1.277-.01 1.908-.03l-.06-1.878c-.611.02-1.233.03-1.848.03v1.878zm3.814-.122c.633-.04 1.273-.093 1.903-.154l-.181-1.87c-.61.06-1.23.11-1.842.149l.12 1.875zm3.557-2.232l.242 1.863a58.27 58.27 0 0030.037-13.217A58.539 58.539 0 0059.77 12.934l1.922 4.646 1.736-.718-3.232-7.812-7.812 3.232.718 1.736 5.035-2.083c-7.16 19.81-24.982 34.215-45.944 36.936zM20.04 7.515h1.878v1.878h-1.879V7.515zM9.905 12.49l1.329-1.328 1.328 1.328-1.329 1.328-1.328-1.328zm-3.642 8.802H8.14v1.878H6.263v-1.878zm3.64 10.678l1.329-1.328 1.328 1.329-1.329 1.328-1.328-1.328zm10.137 3.099h1.878v1.878h-1.879v-1.879z"/><path d="M29.386 31.974l1.328-1.328 1.328 1.328-1.328 1.329-1.328-1.328zm4.43-10.682h1.88v1.878h-1.88v-1.878zm-4.428-8.801l1.328-1.328 1.328 1.328-1.328 1.328-1.328-1.328z"/></g><defs><clipPath id="clip0_119221:170900"><path fill="#fff" d="M0 0h64v64H0z"/></clipPath></defs></svg>