<svg width="65" height="64" fill="none" xmlns="http://www.w3.org/2000/svg"><g clip-path="url(#clip0_119221:171236)"><path fill-rule="evenodd" clip-rule="evenodd" d="M29.737 5.028a27.47 27.47 0 11-14.065 46.366.937.937 0 00-1.326 1.326 29.345 29.345 0 100-41.5.938.938 0 001.326 1.326 27.47 27.47 0 0114.065-7.518zm14.2 17.49a.938.938 0 00-1.594.67V26H1.53a.938.938 0 00-.937.938v10c0 .517.42.937.937.937h40.813v2.813a.938.938 0 001.593.67l8.938-8.75a.937.937 0 000-1.34l-8.938-8.75zm.28 4.42v-1.52l6.66 6.52-6.66 6.52v-1.52A.938.938 0 0043.28 36H2.468v-8.125H43.28c.518 0 .938-.42.938-.937z" fill="#1890FF"/></g><defs><clipPath id="clip0_119221:171236"><path fill="#fff" transform="translate(.167)" d="M0 0h64v64H0z"/></clipPath></defs></svg>