<svg width="65" height="64" fill="none" xmlns="http://www.w3.org/2000/svg"><g clip-path="url(#clip0_119221:171246)" fill-rule="evenodd" clip-rule="evenodd" fill="#1890FF"><path d="M7.799 39.806c3.418-1.946 10.31-4.024 18.149.058h10.08c1.105 0 2.48.241 3.713.839.95.46 1.858 1.156 2.457 2.153a867.98 867.98 0 017.373-3.8c2.59-1.32 4.74-1 6.298-.23 1.323.652 2.206 1.637 2.492 1.956l.081.089c.272.275.491.599.59.981.103.395.057.768-.066 1.09-.216.572-.7 1.043-1.04 1.37a4.96 4.96 0 01-.31.25 209.705 209.705 0 01-2.551 1.91 292.527 292.527 0 01-6.183 4.431c-2.343 1.632-4.837 3.307-7.053 4.67-2.185 1.343-4.191 2.443-5.525 2.852-2.205.678-3.924.904-5.383.91-1.298.005-2.37-.166-3.316-.317l-.324-.051c-1.685-.264-10.035-1.972-16.167-3.227-1.137-.232-2.197-.45-3.125-.638v.836c0 .772-.625 1.398-1.397 1.398h-4.86a1.398 1.398 0 01-1.398-1.398V40.511c0-.772.626-1.398 1.398-1.398h4.86c.515 0 .964.279 1.207.693zm-1.685 1.182H2.21v14.473h3.905V40.988zm1.974 12.22l3.465.708c6.13 1.254 14.382 2.942 16.018 3.198l.327.052c.95.15 1.878.298 3.015.294 1.257-.005 2.793-.198 4.84-.827 1.074-.33 2.89-1.302 5.094-2.658 2.173-1.336 4.634-2.989 6.964-4.61a290.383 290.383 0 008.1-5.861 66.24 66.24 0 00.697-.533c.035-.028.037-.03.022-.015.178-.17.317-.31.422-.437.089-.107.132-.177.151-.218a.75.75 0 00-.093-.111c-.045-.045-.098-.104-.161-.172-.34-.371-.953-1.04-1.91-1.512-1.07-.528-2.594-.81-4.617.22a863.65 863.65 0 00-7.59 3.914l-.016.008c.03.258.044.518.05.762.01.38.003.786-.003 1.151l-.006.36a1.19 1.19 0 01-1.189 1.177H27.426a.937.937 0 110-1.875h13.567c.004-.26.005-.514-.001-.764-.013-.47-.054-.813-.123-1.027-.299-.92-1.01-1.589-1.946-2.042-.94-.456-2.03-.651-2.895-.651H25.482l-.207-.11c-7.794-4.16-14.517-1.572-17.186.198v11.381z"/><path d="M14.648 2.716c-.043 4.361.714 7.673 2.423 9.643 1.558 1.794 4.108 2.68 8.261 1.87-1.56-2.22-3.497-4.024-5.85-5.258a.937.937 0 01.87-1.66c2.636 1.381 4.77 3.377 6.469 5.775 1.378-2.852 1.023-5.351-.629-7.148-1.893-2.061-5.72-3.471-11.544-3.222zm13.329 12.177c2.193-3.722 2.117-7.481-.404-10.224C25.039 1.912 20.267.463 13.783.885a1.065 1.065 0 00-.994 1.03c-.143 4.828.573 9.03 2.866 11.673 2.266 2.61 5.828 3.451 10.75 2.33.866 1.515 1.589 3.179 2.177 4.952 1.747 5.27 2.274 11.424 1.898 17.273a28.57 28.57 0 00-.313 3.347l1.868.14a57.02 57.02 0 00.31-3.287c.4-2.65 1.221-5.935 2.678-9.001 3.28 1.237 6.307.909 8.488-1.333 2.267-2.332 3.364-6.506 3.16-12.234a1.067 1.067 0 00-.919-1.016c-6.582-.91-10.728 1.577-12.632 4.919-.934 1.64-1.307 3.455-1.164 5.092.118 1.35.595 2.638 1.462 3.58-.401.83-.758 1.674-1.074 2.517-.25-3.657-.884-7.274-1.983-10.587-.631-1.905-1.42-3.72-2.384-5.387zm7.92 12.774c1.333-2.318 3.061-4.374 5.278-5.801a.937.937 0 10-1.016-1.576c-2.46 1.584-4.34 3.81-5.766 6.235-.302-.52-.504-1.17-.569-1.918-.109-1.249.175-2.685.925-4.001 1.408-2.47 4.54-4.639 10.066-4.072.086 5.168-.997 8.469-2.648 10.167-1.462 1.504-3.566 1.93-6.27.966z"/></g><defs><clipPath id="clip0_119221:171246"><path fill="#fff" transform="translate(.334)" d="M0 0h64v64H0z"/></clipPath></defs></svg>