<svg width="65" height="64" fill="none" xmlns="http://www.w3.org/2000/svg"><g clip-path="url(#clip0_119221:170892)" fill-rule="evenodd" clip-rule="evenodd" fill="#00D2A0"><path d="M8.099 39.806c3.418-1.946 10.31-4.024 18.148.058h10.081c1.104 0 2.48.242 3.713.84.95.46 1.858 1.155 2.457 2.152a867.98 867.98 0 017.373-3.8c2.59-1.32 4.74-1 6.298-.23 1.323.653 2.206 1.637 2.492 1.957l.081.088c.272.275.491.599.59.981.103.395.056.768-.066 1.09-.216.572-.7 1.043-1.04 1.37-.065.061-.2.166-.31.25a211.2 211.2 0 01-2.551 1.91 292.992 292.992 0 01-6.183 4.431c-2.343 1.632-4.837 3.307-7.053 4.67-2.185 1.343-4.192 2.443-5.525 2.852-2.205.678-3.924.904-5.383.91-1.298.005-2.371-.166-3.316-.317l-.324-.051c-1.685-.264-10.036-1.972-16.167-3.226L8.29 55.1v.837c0 .772-.626 1.398-1.398 1.398h-4.86a1.398 1.398 0 01-1.397-1.398V40.511c0-.772.625-1.397 1.397-1.397h4.86c.515 0 .965.278 1.208.693zM6.414 40.99H2.509v14.47h3.905V40.989zm1.974 12.22l3.465.708c6.13 1.254 14.382 2.941 16.017 3.197l.327.052c.951.151 1.879.299 3.016.294 1.257-.005 2.793-.198 4.84-.827 1.073-.33 2.889-1.301 5.093-2.657 2.173-1.337 4.635-2.99 6.965-4.611a290.52 290.52 0 008.1-5.86c.238-.18.426-.324.558-.426l.139-.108c.035-.028.037-.03.021-.014.179-.171.317-.311.423-.438a1.13 1.13 0 00.151-.218.746.746 0 00-.093-.11 5.727 5.727 0 01-.161-.173c-.34-.371-.953-1.039-1.91-1.511-1.07-.529-2.594-.81-4.617.22a863.012 863.012 0 00-7.59 3.913l-.017.009c.03.258.044.517.05.761.01.38.004.786-.002 1.151l-.006.36a1.19 1.19 0 01-1.19 1.177h-14.24a.937.937 0 110-1.875h13.567c.004-.26.005-.514-.002-.763-.012-.47-.053-.814-.123-1.028-.298-.92-1.01-1.588-1.945-2.042-.94-.456-2.03-.65-2.895-.65H25.781l-.207-.111c-7.794-4.16-14.517-1.572-17.186.198v11.381z"/><path d="M14.948 2.716c-.043 4.361.714 7.673 2.423 9.643 1.557 1.794 4.107 2.68 8.261 1.87-1.56-2.22-3.498-4.024-5.85-5.258a.937.937 0 01.87-1.66c2.636 1.381 4.77 3.377 6.468 5.776 1.379-2.853 1.024-5.352-.628-7.15-1.894-2.06-5.72-3.47-11.544-3.221zm13.329 12.177c2.192-3.721 2.117-7.481-.404-10.224C25.339 1.912 20.567.463 14.083.885a1.065 1.065 0 00-.994 1.03c-.144 4.828.573 9.031 2.866 11.673 2.266 2.61 5.828 3.452 10.749 2.33.867 1.515 1.59 3.179 2.177 4.952 1.748 5.27 2.274 11.424 1.898 17.273a28.568 28.568 0 00-.312 3.347l1.868.14c.133-1.078.237-2.177.31-3.287.4-2.65 1.221-5.935 2.677-9.001 3.281 1.237 6.308.91 8.489-1.333 2.267-2.332 3.364-6.505 3.16-12.233a1.067 1.067 0 00-.92-1.017c-6.581-.91-10.727 1.577-12.631 4.919-.934 1.64-1.307 3.455-1.164 5.092.118 1.35.595 2.639 1.462 3.58-.402.83-.759 1.675-1.074 2.517-.25-3.657-.884-7.273-1.983-10.587-.631-1.904-1.42-3.72-2.384-5.387zm7.92 12.774c1.332-2.317 3.061-4.373 5.277-5.8a.937.937 0 10-1.015-1.577c-2.46 1.585-4.34 3.81-5.766 6.235-.302-.52-.504-1.17-.57-1.918-.108-1.248.176-2.684.926-4 1.407-2.471 4.54-4.64 10.066-4.072.086 5.168-.997 8.468-2.649 10.167-1.462 1.503-3.565 1.929-6.268.965z"/></g><defs><clipPath id="clip0_119221:170892"><path fill="#fff" transform="translate(.333)" d="M0 0h64v64H0z"/></clipPath></defs></svg>