<svg width="128" height="128" fill="none" xmlns="http://www.w3.org/2000/svg"><g clip-path="url(#clip0_119357_172495)"><path d="M120.059 112.075h-43.69a33.158 33.158 0 0010.317-6.643c.217-.137.404-.318.549-.529l.075-.074a33.353 33.353 0 006.468-8.984c.075-.118.136-.245.183-.38a32.678 32.678 0 002.826-9.378c.224-1.557.338-3.14.338-4.742a32.99 32.99 0 00-2.094-11.611c-.839-2.24-3.019-3.749-5.43-3.762H38.966a29.45 29.45 0 013.902-5.027.75.75 0 01.538-.224l28.825.003a7.18 7.18 0 005.11-2.116 7.179 7.179 0 002.117-5.11c0-3.985-3.242-7.226-7.226-7.226h-5.028a1.33 1.33 0 01-1.33-1.33v-6.03h1.5c1.367 0 2.58-.82 3.09-2.089l2.657-6.613h.017a3.697 3.697 0 003.693-3.693v-.071h44.158c3.866 0 7.011-3.146 7.011-7.012 0-3.866-3.145-7.012-7.011-7.012H76.831v-.072a3.697 3.697 0 00-3.693-3.692h-7.263v-.706c0-4.361-3.548-7.91-7.91-7.91h-29.93c-4.361 0-7.91 3.548-7.91 7.91v14.743H7.012a3.266 3.266 0 01-3.262-3.262 3.265 3.265 0 013.262-3.261h6.223a1.875 1.875 0 000-3.75H7.012A7.02 7.02 0 000 19.433a7.02 7.02 0 007.012 7.012h1.575v2.416c0 4.215 3.429 7.644 7.644 7.644s7.644-3.429 7.644-7.644v-2.416h27.294v.072a3.697 3.697 0 003.693 3.692h.017l2.657 6.613a3.315 3.315 0 003.09 2.089h1.499v6.03a5.085 5.085 0 005.08 5.08h5.027a3.48 3.48 0 013.476 3.476c0 .929-.361 1.801-1.018 2.458a3.453 3.453 0 01-2.458 1.018l-28.826-.002a4.52 4.52 0 00-3.236 1.368 33.135 33.135 0 00-6.084 8.767 32.813 32.813 0 00-3.211 14.24c0 8.803 3.416 17.092 9.619 23.339a33.08 33.08 0 0011.092 7.39H7.941c-4.378 0-7.941 3.563-7.941 7.942s3.563 7.941 7.941 7.941H120.06c4.379 0 7.941-3.562 7.941-7.941s-3.562-7.942-7.941-7.942zM76.831 16.171h44.157a3.265 3.265 0 013.262 3.262 3.265 3.265 0 01-3.262 3.262H76.831v-6.523zm-56.706 12.69a3.899 3.899 0 01-3.894 3.894 3.898 3.898 0 01-3.894-3.894v-2.416h7.788v2.416zM54.862 8.657a3.697 3.697 0 00-3.693 3.693v.072H30.766a1.875 1.875 0 000 3.75h20.403v6.523H23.875V7.952a4.165 4.165 0 014.16-4.16h29.93a4.165 4.165 0 014.16 4.16v.705h-7.263zm.057 17.802V12.407h18.162v14.052H54.919zm4.001 3.75h10.16l-1.99 4.952h-6.18l-1.99-4.952zM37.015 69.722H89.57c.869 0 1.652.533 1.95 1.327a29.24 29.24 0 011.163 3.922H35.315a28.963 28.963 0 011.7-5.25zm-1.7 18h11.119a1.875 1.875 0 100-3.75H34.74a29.894 29.894 0 01-.001-5.25h58.52a29.833 29.833 0 010 5.25H55.2a1.875 1.875 0 100 3.75h37.48a28.911 28.911 0 01-1.705 5.25H37.007a29.056 29.056 0 01-1.692-5.25zm3.643 9H89.01a29.804 29.804 0 01-4.146 5.249h-41.78a29.553 29.553 0 01-4.126-5.25zm41.394 8.999a29.06 29.06 0 01-16.353 5l-.225-.001c-5.852-.044-11.437-1.79-16.183-4.999h32.761zm39.707 18.487H7.942a4.196 4.196 0 01-4.192-4.191 4.196 4.196 0 014.191-4.192H120.06a4.196 4.196 0 014.191 4.192 4.196 4.196 0 01-4.191 4.191z" fill="#2780EB"/></g><defs><clipPath id="clip0_119357_172495"><path fill="#fff" d="M0 0h128v128H0z"/></clipPath></defs></svg>