<svg width="128" height="128" fill="none" xmlns="http://www.w3.org/2000/svg"><path d="M115.924 88.29h-1.045a25.52 25.52 0 00-1.61-3.887l.739-.739a4.172 4.172 0 001.227-2.974 4.173 4.173 0 00-1.227-2.973l-5.222-5.223a4.21 4.21 0 00-5.949 0l-.738.738a25.85 25.85 0 00-3.886-1.612v-1.041a4.184 4.184 0 00-1.389-3.103V14.528a6.64 6.64 0 00-6.633-6.632H71.247V6.79A4.799 4.799 0 0066.45 2H38.236a4.795 4.795 0 00-4.79 4.79v1.105H14.502a6.64 6.64 0 00-6.634 6.633v98.214c0 3.654 2.976 6.627 6.634 6.627h56.833l.513.513a4.232 4.232 0 005.949-.006l.736-.737a25.533 25.533 0 003.882 1.611v1.042A4.213 4.213 0 0086.623 126h7.382a4.213 4.213 0 004.208-4.208v-1.04c1.34-.431 2.64-.97 3.888-1.613l.737.737a4.21 4.21 0 005.947.001l5.229-5.222a4.23 4.23 0 00-.006-5.948l-.738-.739a25.715 25.715 0 001.609-3.888h1.045a4.212 4.212 0 004.208-4.208v-7.374a4.213 4.213 0 00-4.208-4.208zM37.446 6.79a.8.8 0 01.79-.79H66.45c.432 0 .797.361.797.79v6.218c0 .429-.365.79-.797.79H38.236a.8.8 0 01-.79-.79V6.79zM14.502 115.369a2.634 2.634 0 01-2.634-2.627V14.528a2.636 2.636 0 012.634-2.632h18.944v1.112a4.795 4.795 0 004.79 4.79H66.45a4.799 4.799 0 004.797-4.79v-1.112h18.944c1.427 0 2.633 1.206 2.633 2.632V66.37h-6.201a4.213 4.213 0 00-4.208 4.21v1.041c-1.33.43-2.628.968-3.88 1.612l-.744-.745a4.23 4.23 0 00-5.95.007l-2.236 2.238h-23.65a2 2 0 000 4h19.942a4.163 4.163 0 00-.502 1.955 4.16 4.16 0 001.232 2.976l.736.737a25.53 25.53 0 00-1.611 3.889h-1.04a4.213 4.213 0 00-4.208 4.208v3.342h-14.55a2 2 0 000 4h14.55v.032a4.213 4.213 0 004.208 4.208h1.039c.43 1.34.97 2.641 1.613 3.89l-.736.736a4.178 4.178 0 00-1.233 2.978c0 1.125.437 2.182 1.232 2.977l.708.708H14.502zm101.63-15.497c0 .11-.098.208-.208.208h-2.552a2 2 0 00-1.939 1.511 21.572 21.572 0 01-2.363 5.711 1.997 1.997 0 00.308 2.431l1.797 1.797c.081.082.081.226.005.302l-5.222 5.216c-.076.076-.217.072-.292 0l-1.801-1.801a2 2 0 00-2.437-.305 21.64 21.64 0 01-5.71 2.368 1.997 1.997 0 00-1.505 1.937v2.545a.22.22 0 01-.208.208h-7.382a.22.22 0 01-.208-.208v-2.545a2 2 0 00-1.504-1.937 21.67 21.67 0 01-5.705-2.368 1.997 1.997 0 00-2.436.305l-1.796 1.795a.222.222 0 01-.304.006l-1.071-1.071-.037-.037-4.107-4.107c-.07-.07-.07-.226 0-.298l1.802-1.801a2 2 0 00.304-2.437 21.641 21.641 0 01-2.368-5.712 2 2 0 00-1.937-1.505h-2.544a.214.214 0 01-.208-.208v-7.374c0-.11.097-.208.208-.208h2.544c.914 0 1.712-.619 1.937-1.505a21.631 21.631 0 012.368-5.71 2 2 0 00-.304-2.437l-1.802-1.802c-.002-.002.003-.29.001-.292l2.39-2.395a.05.05 0 00.005-.004l2.813-2.817c.083-.08.229-.08.304-.006l1.8 1.802a1.997 1.997 0 002.433.308 21.893 21.893 0 015.711-2.371 2 2 0 001.503-1.938V70.58a.22.22 0 01.208-.209h7.382a.22.22 0 01.208.21v2.543a2 2 0 001.504 1.938 21.922 21.922 0 015.717 2.37 2.003 2.003 0 002.432-.307l1.8-1.802a.22.22 0 01.292 0l5.223 5.224c.068.068.067.222-.001.29l-1.802 1.802a2.001 2.001 0 00-.308 2.432 21.577 21.577 0 012.363 5.71 2 2 0 001.939 1.51h2.552c.11 0 .208.098.208.208v7.374z" fill="#2780EB"/><path d="M33.245 48.636h-7.5a3.24 3.24 0 00-3.24 3.233v7.501a3.243 3.243 0 003.24 3.24h7.5a3.24 3.24 0 003.235-3.24v-7.5a3.238 3.238 0 00-3.235-3.234zm-.766 9.974h-5.974v-5.974h5.974v5.974zm13.475-.99h34.228a2 2 0 000-4H45.954a2 2 0 000 4zM33.245 27.523h-7.5a3.244 3.244 0 00-3.24 3.24v7.5a3.24 3.24 0 003.24 3.234h7.5a3.238 3.238 0 003.235-3.233v-7.5a3.242 3.242 0 00-3.235-3.241zm-.766 9.974h-5.974v-5.974h5.974v5.974zm13.475-.983h34.228a2 2 0 000-4H45.954a2 2 0 000 4zM33.245 69.742h-7.5a3.244 3.244 0 00-3.24 3.241v7.494a3.243 3.243 0 003.24 3.24h7.5a3.24 3.24 0 003.235-3.24v-7.494a3.242 3.242 0 00-3.235-3.24zm-.766 9.975h-5.974v-5.975h5.974v5.975zm.766 11.132h-7.5a3.244 3.244 0 00-3.24 3.24v7.501a3.24 3.24 0 003.24 3.233h7.5a3.237 3.237 0 003.235-3.233v-7.5a3.242 3.242 0 00-3.235-3.241zm-.766 9.974h-5.974v-5.974h5.974v5.974zm57.838-19.066c-7.959 0-14.434 6.472-14.434 14.429 0 7.955 6.475 14.427 14.434 14.427 7.955 0 14.428-6.472 14.428-14.427 0-7.957-6.473-14.43-14.428-14.43zm0 24.856c-5.754 0-10.434-4.678-10.434-10.428 0-5.75 4.68-10.428 10.434-10.428 5.75 0 10.428 4.678 10.428 10.428 0 5.75-4.678 10.428-10.428 10.428z" fill="#2780EB"/></svg>