<svg width="129" height="128" fill="none" xmlns="http://www.w3.org/2000/svg"><g clip-path="url(#clip0_119357_172390)" fill="#2780EB"><path d="M64.525 86.61a6.524 6.524 0 00-5.149-1.212 6.493 6.493 0 00-2.5-4.14 6.497 6.497 0 00-4.843-1.264c-.43.059-.846.159-1.246.297a6.506 6.506 0 00-2.325-3.376 6.542 6.542 0 00-6.445-.828 6.494 6.494 0 00-2.254-3.139 6.5 6.5 0 00-4.843-1.265 6.491 6.491 0 00-3.67 1.794l-6.864-.456 4.207-34.17 7.537.511a1.875 1.875 0 001.796-1.016l2.825-5.511a3.335 3.335 0 013.842-1.686l4.195 1.16a1.875 1.875 0 001-3.614l-4.195-1.16a7.1 7.1 0 00-8.179 3.589l-2.261 4.413-6.1-.414.144-1.174a6.864 6.864 0 00-5.967-7.643L8.783 24.529a1.875 1.875 0 10-.459 3.721l14.447 1.779a3.084 3.084 0 012.07 1.171 3.09 3.09 0 01.634 2.291l-4.961 40.3a3.111 3.111 0 01-3.463 2.704L2.604 74.716a1.875 1.875 0 10-.458 3.722l14.447 1.778a6.875 6.875 0 006.843-3.5l5.135.342a6.493 6.493 0 00-.663 3.884 6.497 6.497 0 002.53 4.319 6.489 6.489 0 004.843 1.265l.058-.01.006.059a6.497 6.497 0 002.53 4.318 6.507 6.507 0 004.904 1.25 6.52 6.52 0 002.534 4.383 6.505 6.505 0 004.9 1.25l.007.063a6.498 6.498 0 002.53 4.319 6.493 6.493 0 004.843 1.265 6.499 6.499 0 004.319-2.53l3.878-5.121a6.547 6.547 0 00-1.265-9.162zm-29.757-3.799a2.77 2.77 0 01-2.065-.54 2.772 2.772 0 01-1.08-1.842 2.771 2.771 0 01.54-2.066l1.428-1.886a2.771 2.771 0 011.843-1.079 2.774 2.774 0 012.066.54c.594.45.977 1.104 1.079 1.842a2.771 2.771 0 01-.54 2.066l-1.428 1.886a2.773 2.773 0 01-1.843 1.08zm5.372 5.093a2.771 2.771 0 01-1.08-1.842 2.771 2.771 0 01.54-2.066l1.429-1.886 1.261-1.666a2.787 2.787 0 012.227-1.104c.587 0 1.178.184 1.681.565a2.793 2.793 0 01.54 3.908l-2.69 3.552a2.793 2.793 0 01-3.908.539zm7.437 5.633a2.771 2.771 0 01-1.079-1.843 2.77 2.77 0 01.539-2.065l2.69-3.553.976-1.288a2.772 2.772 0 011.843-1.08 2.773 2.773 0 012.066.54 2.793 2.793 0 01.54 3.907l-3.666 4.841-.001.001a2.793 2.793 0 01-3.908.54zm15.224-.029l-3.878 5.121a2.772 2.772 0 01-1.843 1.08 2.773 2.773 0 01-2.066-.54 2.772 2.772 0 01-1.079-1.842 2.771 2.771 0 01.54-2.066l3.666-4.84c0-.002.001-.003.002-.003l.21-.279a2.772 2.772 0 011.843-1.079 2.774 2.774 0 012.066.54 2.793 2.793 0 01.54 3.908z"/><path d="M128.486 76.348a1.875 1.875 0 00-2.09-1.632l-14.446 1.779a3.109 3.109 0 01-3.463-2.704l-.148-1.203-.034-.278-4.779-38.819a3.087 3.087 0 01.635-2.291 3.083 3.083 0 012.069-1.171l14.447-1.779a1.875 1.875 0 00-.459-3.722l-14.447 1.779c-3.53.435-6.108 3.496-6.015 6.982l-3.643.449-11.282-6.35a8.954 8.954 0 00-5.237-1.118l-.011.002-3.396.314a1.875 1.875 0 10.346 3.734l3.405-.315a5.22 5.22 0 013.053.651l11.697 6.583c.366.241.811.352 1.262.297l4.231-.521 3.104 25.21 1.073 8.719-6.749.005c-.45 0-.884.163-1.224.457l-.522.406-16.945-14.604c3.872-1.113 7.564-3.806 11.015-8.044a1.875 1.875 0 00-2.908-2.368c-3.858 4.738-7.913 7.176-12.055 7.248-6.035.113-10.468-4.89-10.51-4.937a1.875 1.875 0 00-2.906.083l-5.036 6.555a9.757 9.757 0 01-11.25 3.201l-.537-.203a1.236 1.236 0 01-.738-.752 1.237 1.237 0 01.097-1.048l13.146-22.627a5.251 5.251 0 014.05-2.586l7.783-.72a1.875 1.875 0 10-.345-3.734l-7.783.72a9.009 9.009 0 00-6.947 4.436L40.848 55.06a4.994 4.994 0 00-.388 4.19 4.994 4.994 0 002.945 3.002l.538.204a13.66 13.66 0 004.833.888c4.113 0 8.08-1.884 10.716-5.313l3.757-4.89c2.014 1.735 5.77 4.305 10.566 4.621l24.487 21.104c.44.38.706.907.749 1.487a2.162 2.162 0 01-.52 1.58l-.955 1.108a3.337 3.337 0 01-4.697.344 1.875 1.875 0 00-.245-.177l-6.357-5.48a1.875 1.875 0 00-2.448 2.84l5.165 4.454-2.356 2.734a3.33 3.33 0 01-2.913 1.135 3.314 3.314 0 01-1.782-.787l-.028-.022-5.907-5.093a1.875 1.875 0 00-2.448 2.84l4.513 3.892-2.37 2.753a3.334 3.334 0 01-2.916 1.135 1.874 1.874 0 10-.438 3.724 7.08 7.08 0 006.195-2.411l2.534-2.943a7.073 7.073 0 008.4-1.774l2.538-2.946c2.807 1.331 6.274.693 8.399-1.769l.956-1.108a5.89 5.89 0 001.42-4.308 5.885 5.885 0 00-2.041-4.048l-1.539-1.327 5.625-.004a6.867 6.867 0 007.571 5.522l14.447-1.778a1.875 1.875 0 001.632-2.09z"/><path d="M116.501 62.812a5.506 5.506 0 00-5.5 5.5c0 3.032 2.467 5.5 5.5 5.5a5.506 5.506 0 005.499-5.5c0-3.033-2.467-5.5-5.499-5.5zm0 7.25c-.965 0-1.75-.786-1.75-1.75 0-.965.785-1.75 1.75-1.75.964 0 1.749.785 1.749 1.75 0 .964-.785 1.75-1.749 1.75zm-98.703-1.75c0-3.033-2.467-5.5-5.5-5.5a5.506 5.506 0 00-5.5 5.5c0 3.032 2.468 5.5 5.5 5.5 3.033 0 5.5-2.468 5.5-5.5zm-7.25 0c0-.965.786-1.75 1.75-1.75.965 0 1.75.785 1.75 1.75s-.785 1.75-1.75 1.75c-.964 0-1.75-.785-1.75-1.75z"/></g><defs><clipPath id="clip0_119357_172390"><path fill="#fff" transform="translate(.5)" d="M0 0h128v128H0z"/></clipPath></defs></svg>