<svg width="128" height="128" fill="none" xmlns="http://www.w3.org/2000/svg"><path d="M50.97 43.714l10 6a2 2 0 002.06 0l10-6A2 2 0 0074 42V30a2 2 0 00-.97-1.714l-10-6a2 2 0 00-2.06 0l-10 6A2 2 0 0050 30v12a2 2 0 00.97 1.714zM70 40.868l-6 3.6v-7.336l6-3.6v7.336zm-8-14.536L68.112 30 62 33.668 55.888 30 62 26.332zm-8 7.2l6 3.6v7.336l-6-3.6v-7.336zM54 54h16v4H54v-4zm-6 8h28v4H48v-4z" fill="#2780EB"/><path d="M120.528 88.366A19.205 19.205 0 00107.54 72.4l-4.712-1.57-.768-.96A10.27 10.27 0 0094 66a5.959 5.959 0 00-1.878.318l-3.292-5.484A5.838 5.838 0 0084 58.022v-2.266a11.762 11.762 0 002.946-1l3.898-1.95a5.689 5.689 0 00.788-9.712l.862-.346a5.574 5.574 0 00.148-10.29A6.492 6.492 0 0087.508 22c-1.165 0-2.326.143-3.456.424l-.052.014v-1.736l6.462-8.08A7.015 7.015 0 0092 8.242a6.243 6.243 0 00-10.656-4.414l-.144.142A7.934 7.934 0 0076 2H48a8 8 0 00-8 8v4.23a5.388 5.388 0 00-6.692 3.52L25.37 41.572A26.55 26.55 0 0024 50v22.036a1.96 1.96 0 00-1.648.832l-22 32 3.296 2.264L15.186 90.35l26.582 16.614L38.04 125.6l3.92.784 3.938-19.682L53.736 93a2 2 0 00-.654-2.674l-.386-.25L59.536 82H70v8a26.55 26.55 0 001.37 8.428l3.358 10.08a20.344 20.344 0 007.12 9.876l6.574 4.932 1.788 3.578 3.58-1.788-2-4a2 2 0 00-.6-.706l-6.954-5.216a16.402 16.402 0 01-5.724-7.942l-3.36-10.08A22.596 22.596 0 0174 90V79.37a1.37 1.37 0 012.698-.334l.4 1.568c.6 2.42.904 4.903.902 7.396v4a2 2 0 00.8 1.6l8 6A2 2 0 0090 98V88a20.742 20.742 0 00-1.8-8.468l-5.496-12.36a8.198 8.198 0 01-.704-3.34 1.83 1.83 0 013.4-.942l10.886 18.14 3.428-2.06-5.358-8.93a6.26 6.26 0 014.58 2.332l5.502 6.878 3.124-2.5-.012-.016a15.033 15.033 0 019 12.1l3.46 29.4c.028.23.096.453.2.66l4 8 3.58-1.788-3.844-7.688-3.418-29.052zM92 37.578a1.568 1.568 0 01-.99 1.464l-5.504 2.2a10.532 10.532 0 01-3.928.758 1.578 1.578 0 01-.588-3.042l5.504-2.2A10.532 10.532 0 0190.422 36 1.58 1.58 0 0192 37.578zM84.172 6.656A2.242 2.242 0 0188 8.242a3.02 3.02 0 01-.66 1.882L84 14.298V10a7.944 7.944 0 00-.494-2.678l.666-.666zM81.888 27.09l3.132-.784A10.273 10.273 0 0187.508 26a2.492 2.492 0 01.6 4.91l-3.132.784c-.813.203-1.647.306-2.484.306a2.492 2.492 0 01-.6-4.91h-.004zM67.44 6l-1 4h-8.878l-1-4H67.44zm-24.144 97.2L17.454 87.05l7.094-10.32 24.774 15.926-6.026 10.544zm6-15.314L28 74.2V50a22.596 22.596 0 011.162-7.162l7.94-23.822a1.488 1.488 0 012.898.472v12.268l-1.94 7.758c-.08.32-.08.653 0 .972L40 48.244V74a8 8 0 008 8h6.292l-4.996 5.886zM80 59.47a5.8 5.8 0 00-2 4.362 12.18 12.18 0 001.052 4.962L80 70.926V74a3.971 3.971 0 01-.518 1.938A5.341 5.341 0 0070.2 78H48a4 4 0 01-4-4V10a4 4 0 014-4h4.44l1.622 6.486A2 2 0 0056 14h12a2 2 0 001.94-1.514L71.562 6H76a4 4 0 014 4v13.522a6.458 6.458 0 00-.488 11.72 5.554 5.554 0 00-.544 10.074 5.664 5.664 0 001.038 10.4L80 59.47zm3.04 18.298l1.506 3.4A16.691 16.691 0 0186 88v6l-4-3v-3a34.666 34.666 0 00-.916-7.846 7.937 7.937 0 001.956-2.386zM81.708 52a1.708 1.708 0 01-.762-3.236l3.898-1.95A7.756 7.756 0 0188.292 46a1.708 1.708 0 01.762 3.236l-3.898 1.95a7.757 7.757 0 01-3.448.814z" fill="#2780EB"/></svg>