<svg width="128" height="128" fill="none" xmlns="http://www.w3.org/2000/svg"><path d="M119.661 0H75.088c-4.597 0-8.338 3.74-8.338 8.338v33.073c0 4.598 3.74 8.338 8.338 8.338h44.573c4.598 0 8.339-3.74 8.339-8.338V8.338C128 3.741 124.259 0 119.661 0zm4.589 41.411a4.594 4.594 0 01-4.589 4.588H75.088a4.594 4.594 0 01-4.588-4.588V8.338a4.594 4.594 0 014.588-4.588h44.573a4.594 4.594 0 014.589 4.588v33.073z" fill="#2780EB"/><path d="M108.479 102.637a5.213 5.213 0 00-3.639-3.594 16.457 16.457 0 001.307-12.376l-1.51-5.213a1.876 1.876 0 00-3.602 1.044l1.511 5.213a12.72 12.72 0 01-2.463 11.71 1.92 1.92 0 00-.162.23l-33.093 9.589c-.034-.012-.068-.024-.104-.034-6.964-1.841-13.394-7.657-13.458-7.715a2.051 2.051 0 00-.145-.12 16.276 16.276 0 01-5.873-8.343l-3.12-10.202a1.852 1.852 0 01.515-1.897c.826-.758 2.294-2.056 4.378-3.87l2.946 10.166a1.875 1.875 0 103.602-1.044L51.806 73.2v-.001L43.79 45.53a4.154 4.154 0 01.353-3.181 4.154 4.154 0 012.5-2 4.155 4.155 0 013.18.354 4.155 4.155 0 012 2.499l5.855 20.208 2.417 8.34a1.875 1.875 0 103.602-1.043l-2.416-8.335a4.188 4.188 0 012.857-5.166 4.153 4.153 0 013.18.353 4.153 4.153 0 011.999 2.5l.602 2.077 2.12 7.32a1.875 1.875 0 103.602-1.044l-2.108-7.278a4.157 4.157 0 012.883-5.059 4.153 4.153 0 013.18.353 4.155 4.155 0 012 2.5l.886 3.061.004.012 1.817 6.271a1.875 1.875 0 103.602-1.043l-1.817-6.272-.002-.007a4.186 4.186 0 012.854-5.172 4.185 4.185 0 015.18 2.852l4.48 15.463a1.876 1.876 0 003.601-1.044l-4.48-15.462c-1.217-4.2-5.624-6.627-9.825-5.411a7.894 7.894 0 00-4.165 2.902 7.922 7.922 0 00-2.326-1.934 7.88 7.88 0 00-6.033-.67 7.914 7.914 0 00-4.399 3.2 7.955 7.955 0 00-1.847-1.4 7.88 7.88 0 00-6.033-.67 7.874 7.874 0 00-3.683 2.312l-2.144-7.401a8.375 8.375 0 003.983-7.106V8.338C61.25 3.741 57.51 0 52.911 0H23.67c-2.479.077-2.477 3.674 0 3.75h29.242A4.594 4.594 0 0157.5 8.338v33.073c0 1.234-.504 2.4-1.352 3.248l-.724-2.499a7.88 7.88 0 00-3.792-4.74 7.88 7.88 0 00-6.033-.671 7.88 7.88 0 00-4.74 3.792A7.87 7.87 0 0040.045 46H8.34a4.593 4.593 0 01-4.59-4.59V8.338A4.594 4.594 0 018.338 3.75h6.502c2.479-.077 2.477-3.674 0-3.75H8.337C3.741 0 0 3.74 0 8.338v33.073c0 4.598 3.74 8.338 8.338 8.338h32.77l6.017 20.767.745 2.574c-2.813 2.44-4.75 4.146-5.763 5.076a5.62 5.62 0 00-1.565 5.757l3.12 10.201a20.001 20.001 0 007.144 10.199c.704.632 5.88 5.165 12.224 7.615a5.216 5.216 0 00-.446 3.996l2.398 8.276a5.213 5.213 0 002.51 3.136 5.213 5.213 0 003.992.444l35.812-10.376a5.255 5.255 0 003.581-6.502l-2.398-8.275zm-2.226 11.175l-35.812 10.376c-.385.112-.79.067-1.14-.126a1.488 1.488 0 01-.717-.896l-2.397-8.275a1.487 1.487 0 01.127-1.14c.193-.351.51-.606.896-.717l35.811-10.376a1.488 1.488 0 011.14.127c.351.193.606.511.717.896l2.398 8.274a1.5 1.5 0 01-1.023 1.857z" fill="#2780EB"/><path fill-rule="evenodd" clip-rule="evenodd" d="M18.625 17c0-1.036.84-1.875 1.875-1.875h3.875a5 5 0 010 10H20.5a1.875 1.875 0 010-3.75h3.875a1.25 1.25 0 100-2.5H20.5A1.875 1.875 0 0118.625 17z" fill="#2780EB"/><path fill-rule="evenodd" clip-rule="evenodd" d="M18.625 23.25c0-1.035.84-1.875 1.875-1.875h4.625a5.75 5.75 0 010 11.5H20.5a1.875 1.875 0 010-3.75h4.625a2 2 0 100-4H20.5a1.875 1.875 0 01-1.875-1.875zM33.375 17c0-1.036.84-1.875 1.875-1.875h4.625a5.75 5.75 0 015.75 5.75v6.25a5.75 5.75 0 01-5.75 5.75H35.25A1.875 1.875 0 0133.375 31V17zm3.75 1.875v10.25h2.75a2 2 0 002-2v-6.25a2 2 0 00-2-2h-2.75zm37.25 1.25a5 5 0 015-5h3.875a1.875 1.875 0 110 3.75h-3.875a1.25 1.25 0 100 2.5h1.5a5.75 5.75 0 110 11.5H76.25a1.875 1.875 0 010-3.75h4.625a2 2 0 000-4h-1.5a5 5 0 01-5-5zm15.907-4.857a1.877 1.877 0 012.044.406l4.924 4.924 4.924-4.924A1.876 1.876 0 01105.375 17v14a1.875 1.875 0 11-3.75 0v-9.473l-3.05 3.049a1.875 1.875 0 01-2.65 0l-3.05-3.05V31a1.875 1.875 0 01-3.75 0V17c0-.758.457-1.442 1.157-1.732zM108.875 17c0-1.036.839-1.875 1.875-1.875h8.5a1.875 1.875 0 110 3.75h-6.625v2.5H117a1.875 1.875 0 110 3.75h-4.375V31a1.875 1.875 0 11-3.75 0V17z" fill="#2780EB"/></svg>