<svg width="128" height="128" fill="none" xmlns="http://www.w3.org/2000/svg"><g clip-path="url(#clip0_119357_172396)" fill="#2780EB"><path d="M113.111 48.919H69.725a1.875 1.875 0 100 3.75h43.386a1.875 1.875 0 100-3.75zm0 11.081H69.725a1.875 1.875 0 100 3.75h43.386a1.875 1.875 0 100-3.75zm0 11.082H69.725a1.875 1.875 0 100 3.75h43.386a1.875 1.875 0 100-3.75zM91.956 20.893l3.932-3.178v11.247a1.875 1.875 0 103.75 0V17.715l3.931 3.178a1.875 1.875 0 102.357-2.916l-6.985-5.647-.002-.001a1.875 1.875 0 00-2.24-.085c-.158.11-.03.025-7.1 5.733a1.875 1.875 0 002.357 2.916z"/><path d="M126.12 39.533c-1.035 0-1.875.84-1.875 1.875v45.924H3.755V23.027a5.018 5.018 0 015.013-5.012h54.683a1.875 1.875 0 100-3.75H8.768c-4.831 0-8.762 3.93-8.762 8.762v73.015c0 4.832 3.93 8.763 8.762 8.763h42.706a23.595 23.595 0 01-4.24 9.411h-7.49a6.9 6.9 0 00-6.893 6.892A6.9 6.9 0 0039.743 128h48.515a6.9 6.9 0 006.892-6.892 6.9 6.9 0 00-6.892-6.892h-7.49a23.596 23.596 0 01-4.24-9.411h42.705c4.832 0 8.762-3.931 8.762-8.763V41.408a1.875 1.875 0 00-1.875-1.875zM91.4 121.108a3.145 3.145 0 01-3.142 3.142H39.743a3.146 3.146 0 01-3.142-3.142 3.145 3.145 0 013.142-3.142h48.515a3.145 3.145 0 013.143 3.142zm-15.152-6.893H51.754a27.32 27.32 0 003.537-9.411h17.42a27.32 27.32 0 003.537 9.411zm42.985-13.16H8.768a5.018 5.018 0 01-5.012-5.013v-4.96h120.489v4.96a5.018 5.018 0 01-5.012 5.013z"/><path d="M52.877 43.568l-16.37-9.452a4.76 4.76 0 00-4.748 0l-16.37 9.452a4.761 4.761 0 00-2.374 4.111v18.904c0 1.69.91 3.266 2.373 4.111l16.371 9.452a4.76 4.76 0 004.748 0l16.37-9.452a4.761 4.761 0 002.374-4.111V47.679a4.762 4.762 0 00-2.374-4.111zM17.263 67.447a1.001 1.001 0 01-.498-.864V49.268l15.493 8.945v17.89l-14.995-8.656zm33.74 0l-14.995 8.657v-17.89l4.453-2.572a1.875 1.875 0 00-1.875-3.247l-4.453 2.571-15.494-8.945 14.995-8.657a1 1 0 01.998 0l14.994 8.657-3.447 1.99a1.875 1.875 0 001.875 3.248l3.447-1.99v17.314a1 1 0 01-.499.864zm32.437-27.2h31.999c3.662 0 6.963-1.456 9.2-3.911 4.365-4.791 4.471-11.988.247-16.741a12.339 12.339 0 00-6.63-3.891 1.482 1.482 0 01-1.128-1.058C114.694 6.023 106.73 0 97.76 0a20.167 20.167 0 00-16.438 8.516c-.232.327-.587.55-1 .627-7.5 1.4-12.88 7.96-12.792 15.6.098 8.549 7.235 15.504 15.91 15.504zm-2.43-27.418a5.291 5.291 0 003.373-2.148A16.412 16.412 0 0197.76 3.75c7.299 0 13.779 4.9 15.759 11.915a5.244 5.244 0 003.937 3.703 8.616 8.616 0 014.627 2.718c2.946 3.315 2.853 8.355-.216 11.724-1.494 1.64-3.77 2.687-6.428 2.687h-32c-6.63 0-12.084-5.292-12.159-11.797a11.91 11.91 0 019.73-11.87z"/></g><defs><clipPath id="clip0_119357_172396"><path fill="#fff" d="M0 0h128v128H0z"/></clipPath></defs></svg>