<svg width="40" height="40" fill="none" xmlns="http://www.w3.org/2000/svg"><g clip-path="url(#clip0)" fill="#00D2A0"><path d="M37.656 26.06V9.97l1.582-.59a1.172 1.172 0 00.004-2.195L20.414.074a1.169 1.169 0 00-.828 0L.758 7.185a1.171 1.171 0 00.004 2.194l6.347 2.37v8.544c0 .48.292.91.737 1.088A32.577 32.577 0 0020 23.72c4.182 0 8.271-.787 12.154-2.34.445-.178.737-.609.737-1.088V11.75l2.422-.905V26.06a3.521 3.521 0 00-2.344 3.314c0 .9.34 1.721.898 2.344a3.502 3.502 0 00-.898 2.344v4.765c0 .648.524 1.172 1.172 1.172h4.687c.647 0 1.172-.525 1.172-1.172v-4.765a3.5 3.5 0 00-.898-2.344A3.5 3.5 0 0040 29.374a3.52 3.52 0 00-2.344-3.314zM20 2.424l15.495 5.85L20 14.061 4.505 8.274 20 2.424zm10.547 17.064a30.237 30.237 0 01-21.094 0v-6.864L19.59 16.41c.264.098.556.098.82 0l10.137-3.786v6.864zm5.937 8.714c.646 0 1.172.526 1.172 1.172a1.173 1.173 0 11-1.172-1.172zm1.172 9.453h-2.343v-3.593c0-.646.525-1.172 1.171-1.172s1.172.526 1.172 1.172v3.593z"/><path d="M21.172 8.281a1.172 1.172 0 11-2.344 0 1.172 1.172 0 012.344 0z"/></g><defs><clipPath id="clip0"><path fill="#fff" d="M0 0h40v40H0z"/></clipPath></defs></svg>