<svg width="40" height="40" fill="none" xmlns="http://www.w3.org/2000/svg"><g clip-path="url(#clip0)"><path d="M35.853 18.168l-5.255-1.954-8.524-7.854a1.548 1.548 0 00-.114-.096c-.849-.644-1.855-.998-2.833-.998H7.344c-1.543 0-3.381.776-3.928 2.261L.964 15.823A11.19 11.19 0 000 20.383v4.539a4.693 4.693 0 004.688 4.687h1.44a4.695 4.695 0 004.419 3.125 4.695 4.695 0 004.418-3.125h3.941a1.562 1.562 0 000-3.125h-3.94a4.695 4.695 0 00-4.42-3.125 4.695 4.695 0 00-4.418 3.125h-1.44a1.564 1.564 0 01-1.563-1.562v-4.54c0-.341.021-.68.063-1.014h9.156c.026 0 .052-.002.078-.004.026.002.051.004.078.004h17.383c.066 0 .131-.005.195-.013l4.69 1.743.007.003c1.252.458 2.116 1.698 2.1 3.014v1.589c0 .43-.35.78-.782.78h-2.612a4.695 4.695 0 00-4.419-3.125 4.693 4.693 0 00-4.687 4.688 4.693 4.693 0 004.687 4.687 4.695 4.695 0 004.42-3.125h2.611A3.91 3.91 0 0040 25.703v-1.56c.028-2.655-1.638-5.055-4.147-5.975zm-25.306 8.316a1.563 1.563 0 11-1.563 1.563c0-.862.701-1.563 1.563-1.563zm9.472-15.769l6 5.528H13.905v-5.852h5.22c.284 0 .599.114.893.324zm-12.675-.324h3.437v5.852H4.154l1.942-4.985a1.346 1.346 0 011.234-.867h.014zm21.718 19.218a1.563 1.563 0 010-3.125c.862 0 1.563.701 1.563 1.563 0 .861-.701 1.562-1.563 1.562z" fill="#1E5DC5"/></g><defs><clipPath id="clip0"><path fill="#fff" d="M0 0h40v40H0z"/></clipPath></defs></svg>