<svg width="40" height="40" fill="none" xmlns="http://www.w3.org/2000/svg"><g clip-path="url(#clip0)"><path d="M39.108.896C38.693.48 37.947-.012 36.738 0c-3.446.033-8.59 4.23-10.518 6.016H6.016A6.023 6.023 0 000 12.03c0 .653.405 1.236 1.017 1.464l13.056 4.868-6.124 6.17-4.725.546a4.497 4.497 0 00-2.82 1.45 1.563 1.563 0 00.441 2.437l5.054 2.612-1.535 1.536a1.562 1.562 0 102.21 2.21l1.598-1.6 3.127 5.487a1.564 1.564 0 002.516.274l.113-.125a4.479 4.479 0 001.132-2.492l.569-4.823 5.912-5.932 4.798 12.87a1.562 1.562 0 001.464 1.016 6.022 6.022 0 006.016-6.015 1.562 1.562 0 00-3.125 0c0 1.236-.78 2.294-1.874 2.706l-4.852-13.012 2.565-2.576a1.563 1.563 0 00-2.213-2.205l-4.904 4.921-6.382 6.404a1.561 1.561 0 00-.445.92l-.393 3.331-2.323-4.075a1.56 1.56 0 00-.64-.615L5.67 27.941l3.182-.367c.352-.04.68-.2.93-.451l6.598-6.648 4.885-4.922a1.563 1.563 0 00-2.218-2.201l-2.557 2.577-13.18-4.914A2.896 2.896 0 016.015 9.14h20.83c.415 0 .812-.165 1.105-.458.892-.892 2.6-2.33 4.404-3.533 2.8-1.867 4.085-2.022 4.413-2.025.042 0 .076.001.103.004a.66.66 0 01.004.069c.029 1.88-3.315 6.607-5.583 8.875a.175.175 0 01-.006.006l-.128.129a1.562 1.562 0 00-.464 1.112v12.852a1.563 1.563 0 003.125 0V13.957c.953-1.003 2.365-2.687 3.642-4.604C39.169 6.786 40.023 4.699 40 3.15c-.018-1.143-.495-1.857-.892-2.254z" fill="#1E5DC5"/></g><defs><clipPath id="clip0"><path fill="#fff" d="M0 0h40v40H0z"/></clipPath></defs></svg>