<svg width="40" height="40" fill="none" xmlns="http://www.w3.org/2000/svg"><g clip-path="url(#clip0)" fill="#00D2A0"><path d="M34.142 5.858A19.87 19.87 0 0020 0 19.87 19.87 0 005.858 5.858 19.87 19.87 0 000 20a19.87 19.87 0 005.858 14.142A19.87 19.87 0 0020 40a19.87 19.87 0 0014.142-5.858A19.87 19.87 0 0040 20a19.87 19.87 0 00-5.858-14.142zm-3.034 18.08a1.034 1.034 0 01-2.067 0 1.034 1.034 0 012.067 0zM8.892 16.062a1.034 1.034 0 012.067 0 1.034 1.034 0 01-2.067 0zm24.622 15.286v-2.38a1.172 1.172 0 00-2.343 0v4.694c-.456.373-.93.723-1.422 1.05v-4.181a1.172 1.172 0 00-2.344 0v5.494c-.802.372-1.636.686-2.498.936V16.676h3.023a3.382 3.382 0 003.247 2.45 3.38 3.38 0 003.376-3.377 3.38 3.38 0 00-3.376-3.376 3.38 3.38 0 00-3.064 1.96h-4.377a1.17 1.17 0 00-1.172 1.171V37.47c-.838.123-1.693.187-2.564.187-9.736 0-17.656-7.92-17.656-17.656 0-.94.075-1.864.217-2.765h4.197a3.383 3.383 0 003.167 2.204 3.38 3.38 0 003.377-3.376 3.38 3.38 0 00-3.377-3.377c-1.45 0-2.689.919-3.167 2.205h-3.66a17.65 17.65 0 013.388-6.24v1.5a1.172 1.172 0 002.343 0V6.337c.456-.373.93-.723 1.422-1.05v3.302a1.172 1.172 0 002.344 0V3.974a17.4 17.4 0 012.226-.855v20.56h-2.83a3.382 3.382 0 00-3.168-2.205 3.38 3.38 0 00-3.377 3.377 3.38 3.38 0 003.377 3.377c1.45 0 2.69-.919 3.167-2.205h4.003c.647 0 1.172-.525 1.172-1.172V2.573c.923-.15 1.87-.23 2.835-.23 9.736 0 17.656 7.921 17.656 17.657 0 .94-.075 1.864-.217 2.765h-4.197a3.383 3.383 0 00-3.167-2.204 3.38 3.38 0 00-3.377 3.376 3.38 3.38 0 003.377 3.377c1.45 0 2.689-.919 3.167-2.205h3.66a17.649 17.649 0 01-3.388 6.24zm-2.338-16.633a1.034 1.034 0 11-1.033 1.033c0-.569.464-1.033 1.034-1.033zM9.857 24.852a1.034 1.034 0 01-2.066 0 1.034 1.034 0 012.067 0z"/><path d="M26.046 4.063a3.38 3.38 0 00-3.182 4.507l-3.751 3.133a1.17 1.17 0 00-.42.9v14.872l-1.61.868a3.362 3.362 0 00-2.226-.841 3.38 3.38 0 00-3.377 3.377 3.38 3.38 0 003.377 3.376 3.38 3.38 0 003.343-3.85l2.221-1.2c.379-.205.615-.601.615-1.032V13.151l3.332-2.783a3.357 3.357 0 001.678.448 3.38 3.38 0 003.377-3.376 3.38 3.38 0 00-3.377-3.377zM13.824 30.879a1.034 1.034 0 012.066 0 1.034 1.034 0 01-2.066 0zm11.189-23.44a1.034 1.034 0 012.066 0 1.034 1.034 0 01-2.066 0z"/></g><defs><clipPath id="clip0"><path fill="#fff" d="M0 0h40v40H0z"/></clipPath></defs></svg>