<svg width="40" height="40" fill="none" xmlns="http://www.w3.org/2000/svg"><g clip-path="url(#clip0)" fill="#1E5DC5"><path d="M10.547 28.203A3.52 3.52 0 007.03 31.72a3.52 3.52 0 003.516 3.515 3.52 3.52 0 003.515-3.515 3.52 3.52 0 00-3.515-3.516zm0 4.688a1.173 1.173 0 01-1.172-1.172c0-.646.526-1.172 1.172-1.172a1.173 1.173 0 010 2.344z"/><path d="M39.541 23.759l-4.229-3.243V18.55a3.521 3.521 0 002.344-3.314 3.498 3.498 0 00-1.338-2.758l-.004-.003v-.001c-.125-.098-14.64-11.45-14.716-11.504A4.663 4.663 0 0018.75.001a4.7 4.7 0 00-4.281 2.776L3.055 28.373a8.144 8.144 0 00-.711 3.347v5.937H1.172a1.172 1.172 0 000 2.344h18.75a1.172 1.172 0 000-2.344H18.75v-5.835l3.438-19.601c11.05 6.567 10.276 6.15 10.78 6.328v1.967l-4.228 3.242-.004.004a1.17 1.17 0 00-.333 1.446l.002.004 2.344 4.688a1.172 1.172 0 102.096-1.048l-1.911-3.822 3.207-2.459 3.206 2.459-1.91 3.822a1.172 1.172 0 102.095 1.048l2.344-4.687a1.172 1.172 0 00-.335-1.454zM16.406 37.657H4.687V31.72c0-3.25 2.635-5.86 5.86-5.86 3.23 0 5.86 2.629 5.86 5.86v5.937zm.817-10.698a8.198 8.198 0 00-9.691-2.87l7.425-16.651a4.684 4.684 0 005.4 1.654l-3.134 17.867zM18.75 7.032a2.346 2.346 0 01-2.344-2.344 2.346 2.346 0 012.344-2.343 2.346 2.346 0 012.344 2.343 2.346 2.346 0 01-2.344 2.344zm11.943 7.517L22.62 9.752c.726-4.138.748-4.255.77-4.41l8.861 6.93a3.524 3.524 0 00-1.56 2.277zm3.448 1.858a1.173 1.173 0 010-2.344 1.173 1.173 0 010 2.344z"/></g><defs><clipPath id="clip0"><path fill="#fff" d="M0 0h40v40H0z"/></clipPath></defs></svg>