<svg width="40" height="40" fill="none" xmlns="http://www.w3.org/2000/svg"><path d="M38.438 25.431c.862 0 1.562-.7 1.562-1.562v-9.375a6.257 6.257 0 00-6.25-6.25h-6.724V6.68a4.693 4.693 0 00-4.688-4.687h-4.676a4.693 4.693 0 00-4.687 4.687v1.563H6.25A6.257 6.257 0 000 14.494v17.262a6.257 6.257 0 006.25 6.25h27.5a6.257 6.257 0 006.25-6.25 1.562 1.562 0 10-3.125 0 3.129 3.129 0 01-3.125 3.125H6.25a3.129 3.129 0 01-3.125-3.125V14.494a3.129 3.129 0 013.125-3.125h27.5a3.129 3.129 0 013.125 3.125v9.375c0 .863.7 1.562 1.563 1.562zM23.9 8.244h-7.8V6.68c0-.861.7-1.562 1.562-1.562h4.676c.861 0 1.563.7 1.563 1.562v1.563z" fill="#00D2A0"/><path d="M20 30.822c.863 0 1.563-.7 1.563-1.563v-4.14h4.296a1.563 1.563 0 000-3.125h-4.297V17.54a1.562 1.562 0 10-3.125 0v4.453h-4.296a1.562 1.562 0 100 3.125h4.296v4.14c0 .863.7 1.563 1.563 1.563z" fill="#00D2A0"/></svg>