<svg width="40" height="40" fill="none" xmlns="http://www.w3.org/2000/svg"><g clip-path="url(#clip0)" fill="#1E5DC5"><path d="M20.125 20.174l3.455.049h.017c.475 0 .903-.288 1.082-.729l1.137-2.805c.18-.446.07-.957-.281-1.288l-2.514-2.37 2.478-2.409c.345-.335.449-.848.26-1.292l-1.178-2.787a1.169 1.169 0 00-1.11-.712l-3.454.101.05-3.455a1.168 1.168 0 00-.73-1.098L16.534.242a1.168 1.168 0 00-1.288.28l-2.37 2.515L10.465.559A1.168 1.168 0 009.174.298l-2.788 1.18a1.168 1.168 0 00-.712 1.108l.102 3.454-3.455-.049a1.164 1.164 0 00-1.098.729L.085 9.525c-.18.446-.069.957.282 1.288l2.514 2.37-2.478 2.409a1.168 1.168 0 00-.262 1.292l1.18 2.787c.188.444.629.728 1.11.712l3.453-.101-.049 3.455c-.007.48.283.917.729 1.098l2.805 1.137a1.17 1.17 0 001.288-.28l2.37-2.515 2.409 2.478c.335.345.848.449 1.292.261l2.787-1.179c.444-.188.726-.628.712-1.11l-.102-3.453zm-.51-2.343c-.34-.004-.667.14-.893.397-.175.2-.367.394-.568.58-.25.229-.388.555-.378.894l.094 3.196-1.317.557-2.228-2.292a1.166 1.166 0 00-.905-.352 7.68 7.68 0 01-.813.004 1.168 1.168 0 00-.906.365l-2.195 2.33-1.325-.538.046-3.236a1.167 1.167 0 00-.386-.885 7.594 7.594 0 01-.54-.537 1.168 1.168 0 00-.898-.382l-3.243.095-.557-1.317 2.363-2.296c.24-.233.368-.558.352-.892a7.703 7.703 0 010-.693 1.166 1.166 0 00-.366-.9L2.549 9.662l.537-1.325 3.34.047c.335.006.654-.134.88-.382.145-.16.297-.314.452-.457a1.17 1.17 0 00.372-.89l-.098-3.339 1.316-.557 2.329 2.395c.235.242.561.37.898.353.21-.011.426-.013.643-.006.335.011.658-.123.887-.366l2.29-2.43 1.326.538-.047 3.302c-.005.339.138.664.392.889.173.153.34.316.497.483.229.244.55.377.885.368l3.294-.097.557 1.317-2.326 2.26a1.17 1.17 0 00-.352.911c.016.253.02.51.01.763-.012.336.121.661.366.892l2.355 2.221-.537 1.325-3.2-.046z"/><path d="M14.727 8.833a4.639 4.639 0 00-3.573.027 4.638 4.638 0 00-2.508 2.546 4.639 4.639 0 00.027 3.574 4.675 4.675 0 006.12 2.48 4.638 4.638 0 002.507-2.546 4.64 4.64 0 00-.027-3.573 4.64 4.64 0 00-2.546-2.508zm.41 5.204a2.32 2.32 0 01-1.254 1.273 2.337 2.337 0 01-3.06-1.24 2.32 2.32 0 01-.014-1.787 2.32 2.32 0 011.255-1.273 2.32 2.32 0 011.786-.014 2.32 2.32 0 011.273 1.255 2.32 2.32 0 01.014 1.786zm24.118 13.801l-2.03-.789.878-1.993a1.169 1.169 0 00-.243-1.296l-1.556-1.555a1.167 1.167 0 00-1.295-.243l-1.993.877-.79-2.03a1.168 1.168 0 00-1.088-.744h-2.2c-.48 0-.913.296-1.087.745l-.79 2.03-1.993-.878a1.167 1.167 0 00-1.295.243l-1.555 1.556c-.34.34-.438.855-.243 1.295l.877 1.993-2.03.79a1.167 1.167 0 00-.744 1.088v2.2c0 .48.295.913.744 1.087l2.03.79-.877 1.993c-.194.44-.098.955.243 1.295l1.555 1.556c.34.34.855.437 1.296.243l1.993-.877.79 2.029c.174.449.606.744 1.087.744h2.2c.481 0 .913-.295 1.088-.744l.789-2.03 1.993.877c.441.194.956.098 1.296-.243l1.555-1.555c.34-.34.437-.855.243-1.296l-.877-1.993 2.03-.79c.448-.174.744-.606.744-1.087v-2.2c0-.481-.296-.913-.745-1.088zm-1.59 2.49l-1.993.775c-.318.123-.566.38-.679.701a5.181 5.181 0 01-.197.484 1.167 1.167 0 00-.011.964l.86 1.954-.426.426-1.93-.849a1.167 1.167 0 00-.976.017c-.164.08-.337.151-.513.214-.32.114-.574.36-.697.677l-.763 1.962h-.602l-.764-1.962a1.167 1.167 0 00-.696-.677 5.25 5.25 0 01-.513-.214 1.167 1.167 0 00-.977-.017l-1.929.85-.426-.427.86-1.953c.135-.309.131-.66-.011-.965a5.117 5.117 0 01-.198-.483 1.168 1.168 0 00-.678-.702l-1.994-.775v-.603l2.028-.789c.312-.12.557-.37.672-.684.054-.146.116-.293.185-.437.146-.306.151-.66.014-.972l-.878-1.996.426-.426 2.021.889c.307.135.656.131.96-.009a5.06 5.06 0 01.407-.168 1.17 1.17 0 00.69-.674l.8-2.059h.603l.8 2.06c.123.313.374.558.69.673.136.05.273.106.407.168.304.14.654.144.96.009l2.021-.89.426.427-.878 1.996a1.17 1.17 0 00.014.972c.069.143.13.29.185.438.116.313.36.562.672.683l2.028.789v.602z"/><path d="M30.039 26.367a3.706 3.706 0 00-3.702 3.701 3.706 3.706 0 003.702 3.703 3.706 3.706 0 003.702-3.703 3.706 3.706 0 00-3.702-3.701zm0 5.069a1.369 1.369 0 01-1.367-1.367c0-.754.613-1.368 1.367-1.368s1.367.614 1.367 1.367c0 .755-.613 1.368-1.367 1.368z"/></g><defs><clipPath id="clip0"><path fill="#fff" d="M0 0h40v40H0z"/></clipPath></defs></svg>