<svg width="40" height="40" fill="none" xmlns="http://www.w3.org/2000/svg"><g clip-path="url(#clip0)"><path d="M34.851 15.436l-4.643-1.146a4.94 4.94 0 01-2.011-1.03l-8.475-7.223a1.562 1.562 0 00-1.013-.373c-.88 0-1.671.337-2.289.974-1.318 1.36-1.581 3.84-1.57 6.292H8.453c-.93-.04-2.203-.524-3.853-3.824a1.562 1.562 0 00-2.843.104C1.686 9.384 0 13.576 0 21.946v7.702a4.693 4.693 0 004.688 4.688h21.171a1.562 1.562 0 100-3.125H4.687a1.564 1.564 0 01-1.562-1.563V27.93h33.75v1.718c0 .862-.7 1.563-1.563 1.563h-1.64a1.562 1.562 0 100 3.125h1.64A4.693 4.693 0 0040 29.648v-7.64a6.756 6.756 0 00-5.149-6.572zM18.08 10.713c.104-.83.27-1.337.407-1.623l7.684 6.548c.29.247.598.473.92.676l-1.679 2.934-7.44-6.27a17.4 17.4 0 01.108-2.265zM3.813 13.665c.197.23.398.442.604.638 1.162 1.111 2.492 1.7 3.953 1.75l.054.002h.639v.86a1.8 1.8 0 01-1.797 1.796H4.922c-.605 0-1.184.11-1.72.31.118-2.21.36-3.996.611-5.356zm-.688 9.968c0-.991.806-1.797 1.797-1.797h2.344a4.927 4.927 0 004.921-4.922v-.86h4.257c.102 0 .2-.01.296-.028l7.093 5.979-1.603 2.8H3.125v-1.172zm22.706 1.172l4.201-7.34 4.071 1.005a3.637 3.637 0 012.772 3.539v2.796H25.831z" fill="#1E5DC5"/></g><defs><clipPath id="clip0"><path fill="#fff" d="M0 0h40v40H0z"/></clipPath></defs></svg>