<svg width="70" height="70" fill="none" xmlns="http://www.w3.org/2000/svg"><g clip-path="url(#clip0)" fill="#00D2A0"><path d="M43.2 45.167v-2.238c0-4.447-3.68-8.065-8.202-8.065-4.523 0-8.203 3.618-8.203 8.065v2.238c-3.383.408-6.014 3.294-6.014 6.785v13.672a2.734 2.734 0 002.735 2.734h22.968a2.734 2.734 0 002.735-2.734V51.952c0-3.492-2.633-6.38-6.018-6.785zm-10.937-2.238c0-1.431 1.227-2.596 2.735-2.596 1.507 0 2.734 1.165 2.734 2.596v2.187h-5.469V42.93zm11.487 19.96h-17.5V51.953c0-.754.613-1.367 1.367-1.367h14.766c.754 0 1.367.613 1.367 1.367V62.89z"/><path d="M63.164 22.233V20.28c0-10.277-8.36-18.637-18.638-18.637-4.475 0-8.802 1.61-12.183 4.533a18.685 18.685 0 00-5.072 7.054 12.16 12.16 0 00-5.533-1.333c-6.71 0-12.168 5.458-12.168 12.168v2.486C4.1 27.777 0 32.633 0 38.42c0 3.25 1.23 6.298 3.464 8.583 2.262 2.312 5.304 3.585 8.567 3.585h1.504a2.734 2.734 0 100-5.469h-1.504c-3.68 0-6.562-2.942-6.562-6.699 0-3.694 3.057-6.7 6.815-6.7h.02a2.734 2.734 0 002.735-2.734v-4.921c0-3.695 3.005-6.7 6.7-6.7 1.918 0 3.75.828 5.023 2.27a2.735 2.735 0 004.752-1.39c.983-6.35 6.576-11.135 13.012-11.135 7.262 0 13.17 5.908 13.17 13.17v3.362c0 .022.002.042.003.063a2.732 2.732 0 001.449 2.483 10.106 10.106 0 015.383 8.944c0 8.025-7.841 9.987-8.076 10.043a2.735 2.735 0 001.093 5.359c.032-.007 3.273-.676 6.519-3.185C67.948 44.35 70 40.125 70 35.132a15.556 15.556 0 00-6.836-12.899z"/></g><defs><clipPath id="clip0"><path fill="#fff" d="M0 0h70v70H0z"/></clipPath></defs></svg>