<svg width="70" height="70" fill="none" xmlns="http://www.w3.org/2000/svg"><path d="M58.782 56.849a2.734 2.734 0 010 3.867c-3.198 3.198-8.403 3.198-11.601 0l-.974-.974a.916.916 0 00-1.005-.18l-.06.025a.91.91 0 00-.572.833v1.377c0 4.523-3.68 8.203-8.203 8.203h-2.734c-4.524 0-8.203-3.68-8.203-8.203V60.42a.914.914 0 00-.582-.837l-.05-.02a.916.916 0 00-1.005.179l-.974.974c-3.199 3.198-8.403 3.198-11.601 0l-1.933-1.934a8.148 8.148 0 01-2.403-5.8c0-2.192.853-4.252 2.403-5.801l.973-.974a.916.916 0 00.18-1.005l-.023-.054a.912.912 0 00-.835-.578H8.203C3.68 44.57 0 40.89 0 36.367v-2.734c0-4.524 3.68-8.203 8.203-8.203H9.58c.363 0 .69-.229.837-.582l.02-.05a.916.916 0 00-.179-1.005l-.973-.974a8.149 8.149 0 01-2.403-5.8 8.15 8.15 0 012.403-5.801l1.933-1.933a8.15 8.15 0 015.8-2.403 8.15 8.15 0 015.801 2.403l.974.973a.916.916 0 001.005.18l.06-.025a.91.91 0 00.572-.833V8.203C25.43 3.68 29.11 0 33.633 0h2.734c4.524 0 8.203 3.68 8.203 8.203V9.58c0 .362.229.691.582.837l.05.02a.916.916 0 001.006-.179l.973-.974a2.734 2.734 0 113.867 3.867l-.974.974c-1.826 1.826-4.56 2.362-6.966 1.364l-.035-.014c-2.416-.998-3.971-3.31-3.971-5.895V8.203a2.738 2.738 0 00-2.735-2.734h-2.734a2.738 2.738 0 00-2.735 2.734V9.58a6.365 6.365 0 01-3.962 5.891l-.044.019c-2.406.998-5.14.462-6.966-1.365l-.974-.973a2.716 2.716 0 00-1.934-.801c-.73 0-1.417.284-1.933.8l-1.934 1.934a2.716 2.716 0 00-.8 1.934c0 .73.284 1.417.8 1.933l.974.974c1.828 1.827 2.363 4.563 1.363 6.97l-.015.037c-.996 2.41-3.308 3.965-5.893 3.965H8.203a2.738 2.738 0 00-2.734 2.735v2.734a2.738 2.738 0 002.734 2.735H9.58a6.365 6.365 0 015.891 3.962l.02.048a6.364 6.364 0 01-1.366 6.962l-.974.974a2.717 2.717 0 00-.8 1.933c0 .731.284 1.417.8 1.934l1.934 1.934a2.737 2.737 0 003.867 0l.974-.974c1.826-1.826 4.56-2.362 6.966-1.364l.035.014c2.416.998 3.971 3.31 3.971 5.895v1.377a2.737 2.737 0 002.735 2.734h2.734a2.737 2.737 0 002.735-2.734V60.42a6.365 6.365 0 013.962-5.891l.044-.019c2.406-.997 5.14-.462 6.966 1.365l.974.974a2.737 2.737 0 003.867 0 2.735 2.735 0 013.867 0zm3.015-31.42a2.734 2.734 0 100 5.47 2.737 2.737 0 012.734 2.734v2.734a2.737 2.737 0 01-2.734 2.735H60.42c-2.585 0-4.897 1.555-5.893 3.965l-.015.037c-1 2.407-.465 5.143 1.363 6.97a2.725 2.725 0 001.934.801 2.734 2.734 0 001.934-4.668c-.257-.256-.327-.65-.177-1.013l.017-.043a.913.913 0 01.837-.58h1.377c4.523 0 8.203-3.68 8.203-8.204v-2.734c0-4.523-3.68-8.203-8.203-8.203zm-26.73 13.944a2.705 2.705 0 01-1.985-.743l-9.725-9.322a2.734 2.734 0 10-3.784 3.948l9.733 9.33a8.131 8.131 0 005.982 2.25 8.136 8.136 0 005.876-2.835L67.054 9.78a2.735 2.735 0 00-4.263-3.425L36.954 38.509a2.71 2.71 0 01-1.886.864z" fill="#1E5DC5"/></svg>