<svg width="70" height="70" fill="none" xmlns="http://www.w3.org/2000/svg"><g clip-path="url(#clip0)"><path d="M63.555-.137c-.076 0-.151.003-.227.01-.447.037-10.442.954-14.198 8.243L35.566 6.738a10.885 10.885 0 00-8.838 3.147L3.326 33.21c-4.254 4.26-4.252 11.192.003 15.45l17.95 17.964a11.006 11.006 0 007.803 3.238c2.78 0 5.55-1.05 7.657-3.155a2.733 2.733 0 00-3.863-3.867c-2.112 2.11-5.58 2.073-7.73-.08L7.196 44.797a5.472 5.472 0 01-.007-7.72l23.403-23.325a5.446 5.446 0 014.42-1.577L55.81 14.29l.27 2.658c-3.787 1.412-7.392 1.637-7.474 1.642a2.733 2.733 0 00.29 5.459c.175-.01 3.673-.21 7.754-1.515l1.272 12.493a5.445 5.445 0 01-1.569 4.415L43.02 52.579a2.733 2.733 0 003.836 3.893l13.341-13.145.014-.014a10.888 10.888 0 003.15-8.841l-1.452-14.245c1.838-1.076 3.388-2.343 4.627-3.789 2.366-2.761 3.565-6.1 3.562-9.923v-.109a6.55 6.55 0 00-6.542-6.543zm1.076 6.654c.002 3.054-1.104 5.533-3.356 7.493l-.254-2.491a2.734 2.734 0 00-2.443-2.443l-3.17-.322c2.797-2.67 7.42-3.323 8.245-3.42.548.05.978.512.978 1.072v.11zm-22.15 33.389a2.732 2.732 0 11-3.865-3.865c.292-.292.345-.63.338-.862a1.508 1.508 0 00-.459-1.02l-1.674-1.675a2.26 2.26 0 00-1.573-.683 2.062 2.062 0 00-1.515.63l-.432.432c-.89.89-.923 2.361-.072 3.213L35 37.846a7.705 7.705 0 012.283 5.393 7.544 7.544 0 01-2.232 5.45l-.202.201a7.45 7.45 0 01-5.295 2.215 7.672 7.672 0 01-4.654-1.593l-1.144 1.104a2.724 2.724 0 01-1.898.766 2.733 2.733 0 01-1.898-4.7l1.025-.988a6.846 6.846 0 01-1.84-4.509A6.59 6.59 0 0121.1 36.35a2.734 2.734 0 013.866 3.865c-.243.242-.362.53-.355.855.007.35.163.694.44.97l2.879 2.878c.901.902 2.214.948 3.054.108l.202-.201c.413-.413.636-.955.63-1.529a2.27 2.27 0 00-.681-1.583l-1.771-1.77c-2.998-2.998-2.965-7.908.072-10.945l.432-.431a7.525 7.525 0 015.355-2.231h.085a7.635 7.635 0 013.911 1.127l1.174-1.212a2.733 2.733 0 113.927 3.802l-1.159 1.197a6.907 6.907 0 011.257 3.77 6.571 6.571 0 01-1.937 4.887z" fill="#1E5DC5"/></g><defs><clipPath id="clip0"><path fill="#fff" d="M0 0h70v70H0z"/></clipPath></defs></svg>