<svg width="70" height="70" fill="none" xmlns="http://www.w3.org/2000/svg"><path d="M22.382 5.206a2.729 2.729 0 115.191-1.686 2.729 2.729 0 01-5.19 1.686zM7.272 18.272a2.712 2.712 0 001.606.522 2.729 2.729 0 10-1.605-.523zm8.734-6.6a2.728 2.728 0 10-1.607-4.935 2.727 2.727 0 001.607 4.934zM3.456 27.63a2.731 2.731 0 001.687-5.19 2.73 2.73 0 00-1.687 5.19zm-3.403 7.9a2.982 2.982 0 00.156.51 2.62 2.62 0 00.25.471c.05.075.103.148.16.216a2.5 2.5 0 00.38.38 2.52 2.52 0 00.445.295 2.602 2.602 0 00.492.205 2.517 2.517 0 00.524.105 2.54 2.54 0 00.538 0 2.947 2.947 0 00.775-.195 2.602 2.602 0 00.47-.251 2.523 2.523 0 00.415-.34 2.522 2.522 0 00.476-.644 2.597 2.597 0 00.205-.493 2.539 2.539 0 00.119-.793 2.547 2.547 0 00-.053-.533 2.79 2.79 0 00-.407-.981 2.274 2.274 0 00-.16-.216 2.501 2.501 0 00-.379-.379 2.239 2.239 0 00-.215-.16 2.436 2.436 0 00-.23-.136 2.576 2.576 0 00-.492-.205 2.845 2.845 0 00-.524-.105 2.713 2.713 0 00-1.784.447 2.236 2.236 0 00-.215.16 2.5 2.5 0 00-.38.378 2.62 2.62 0 00-.296.446 2.58 2.58 0 00-.204.492 2.788 2.788 0 00-.119.793 2.555 2.555 0 00.053.533zM67.271 6.343a2.729 2.729 0 00-2.73 2.729v7.383A35.019 35.019 0 0053.92 5.673 34.804 34.804 0 0034.932.066a2.766 2.766 0 00-1.492.445 2.741 2.741 0 00-.427.344l-.02.021a2.579 2.579 0 00-.3.36 2.983 2.983 0 00-.129.205 2.711 2.711 0 00-.343 1.049l-.005.04a2.578 2.578 0 000 .53l.005.04a2.705 2.705 0 00.627 1.454 2.592 2.592 0 00.595.526c.042.028.086.054.13.08a2.704 2.704 0 001.051.345l.044.006c.089.009.177.013.264.013 10.32 0 19.897 5.475 25.2 14.181l-6.238.01a2.729 2.729 0 00.004 5.458h.005l7.984-.012a7.99 7.99 0 005.722-2.35 8.157 8.157 0 002.39-5.849v-7.89a2.729 2.729 0 00-2.728-2.73zm-.728 36.02a2.73 2.73 0 10-1.685 5.194 2.73 2.73 0 001.685-5.194zm-3.816 9.361a2.73 2.73 0 10-3.212 4.413 2.73 2.73 0 003.212-4.413zM44.179 63.037a2.729 2.729 0 101.684 5.192 2.729 2.729 0 00-1.684-5.192zm8.212-4.19a2.728 2.728 0 103.21 4.413 2.73 2.73 0 00-3.21-4.413zm17.556-24.383a2.737 2.737 0 00-2.407-2.182 2.713 2.713 0 00-1.784.447 2.24 2.24 0 00-.215.16 2.503 2.503 0 00-.38.378 2.519 2.519 0 00-.296.445 2.602 2.602 0 00-.204.493 2.784 2.784 0 00-.12.793 2.98 2.98 0 00.054.533 2.978 2.978 0 00.156.51 2.643 2.643 0 00.25.471c.05.075.104.148.16.216a2.486 2.486 0 00.38.38 2.525 2.525 0 00.444.295 2.602 2.602 0 00.493.205 2.516 2.516 0 00.524.105 2.54 2.54 0 00.538 0 2.512 2.512 0 00.524-.105 2.72 2.72 0 001.136-.68 2.506 2.506 0 00.34-.416 2.606 2.606 0 00.251-.47 2.75 2.75 0 00.195-1.313 2.519 2.519 0 00-.04-.265zM37.193 68.911a2.575 2.575 0 00.241-.354 2.704 2.704 0 00.345-1.048l.005-.045c.009-.088.013-.175.013-.26v-.007c0-.086-.004-.173-.013-.26l-.005-.046a2.706 2.706 0 00-.626-1.45 2.53 2.53 0 00-.142-.157l-.027-.026a2.733 2.733 0 00-1.916-.787c-10.32 0-19.897-5.476-25.2-14.182l6.238-.01a2.729 2.729 0 00-.005-5.457h-.004l-7.983.012a8.004 8.004 0 00-5.724 2.35C.84 48.734-.009 50.814 0 53.033v7.89a2.729 2.729 0 105.458 0V53.54A35.017 35.017 0 0016.08 64.323a34.804 34.804 0 0018.988 5.607c.087 0 .176-.005.263-.014l.045-.005a2.709 2.709 0 001.453-.628 2.532 2.532 0 00.364-.373zm4.928-18.767H28.015c-2.657 0-4.818-2.168-4.818-4.834v-1.63c0-3.487 3.389-6.356 5.863-8.45l.274-.232-.274-.232c-2.474-2.095-5.863-4.964-5.863-8.45v-1.63c0-2.666 2.162-4.834 4.819-4.834H42.12c2.657 0 4.818 2.168 4.818 4.833v1.631c0 3.486-3.389 6.355-5.863 8.45l-.266.225.281.238c2.475 2.095 5.864 4.964 5.864 8.45v1.631c0 .15-.012.298-.035.442-.224 2.459-2.29 4.392-4.8 4.392zm-12.4-22.192c.833.927 1.913 1.842 2.866 2.649.314.266.61.517.884.756a4.865 4.865 0 011.597 2.858 4.863 4.863 0 011.597-2.858c.273-.24.57-.49.884-.756.953-.807 2.034-1.722 2.866-2.65 1.022-1.137 1.066-1.635 1.066-1.64V25.31H28.655v1.006s.045.498 1.066 1.636zm11.776 15.727s-.045-.497-1.066-1.635c-.833-.928-1.913-1.842-2.866-2.65a71.36 71.36 0 01-.707-.602c-.066-.048-.13-.1-.193-.154a4.864 4.864 0 01-1.597-2.857 4.864 4.864 0 01-1.597 2.858c-.273.239-.57.49-.884.756-.953.807-2.033 1.721-2.866 2.649-1.021 1.138-1.066 1.636-1.066 1.64v1.002h12.842v-1.007z" fill="#1E5DC5"/></svg>