<svg width="70" height="70" fill="none" xmlns="http://www.w3.org/2000/svg"><g clip-path="url(#clip0)" fill="#00D2A0"><path d="M37.528 20.723c-3.198 3.199-3.198 8.402 0 11.601a8.178 8.178 0 005.8 2.399c2.101 0 4.202-.8 5.801-2.4 3.199-3.198 3.199-8.401 0-11.6-3.198-3.198-8.403-3.198-11.6 0zm7.734 7.734a2.737 2.737 0 01-3.867 0 2.737 2.737 0 010-3.867 2.725 2.725 0 011.934-.8c.7 0 1.4.267 1.933.8a2.737 2.737 0 010 3.867z"/><path d="M67.76 2.351A7.754 7.754 0 0061.407.04C58.005.38 52.813 1.187 47.4 3.095c-6.165 2.173-11.358 5.301-15.436 9.297l-.027.027-.555.56-29.49 9.544a2.735 2.735 0 00-1.09 4.536L14.15 40.394a13.58 13.58 0 00-7.65 3.845c-2.197 2.197-3.891 6.639-5.18 13.58A102.288 102.288 0 00.054 67.04a2.735 2.735 0 002.95 2.95c.177-.014 4.4-.369 9.222-1.264 6.941-1.29 11.383-2.984 13.58-5.181a13.579 13.579 0 003.847-7.663L42.985 69.2a2.734 2.734 0 004.546-1.13l9.087-29.531a2.734 2.734 0 00-1.81-3.418c-.045-.014-.092-.023-.138-.035a2.733 2.733 0 00-3.02.59l-17.137 17.33-17.651-17.633 17.733-17.869c.178-.14.337-.3.473-.477l.737-.742C43.91 8.352 55.665 6.11 61.953 5.48a2.292 2.292 0 011.895.692c.513.525.755 1.249.664 1.986-.529 4.277-1.787 10.656-4.778 16.75a2.735 2.735 0 004.91 2.41c3.325-6.777 4.715-13.795 5.295-18.49a7.844 7.844 0 00-2.18-6.478zM48.36 46.78l-4.72 15.343-5.258-5.252L48.36 46.78zm-29.393 1.316a2.095 2.095 0 011.481-.608c.41 0 .8.117 1.137.334l.638.636c.217.337.335.729.335 1.14a2.1 2.1 0 01-.607 1.48c-.496.412-2.223.9-4.27 1.263.374-2.038.872-3.754 1.285-4.245zm-.002 9.568c2.42-.442 3.988-.966 5.04-1.475a8.131 8.131 0 01-2.066 3.489c-2.066 2.067-9.778 3.721-16.087 4.515.794-6.31 2.448-14.02 4.515-16.087a8.139 8.139 0 013.487-2.07c-.51 1.047-1.038 2.604-1.492 5.006a47.055 47.055 0 00-.594 4.232 2.734 2.734 0 002.94 2.96 47.186 47.186 0 004.257-.57zm-5.972-26.156L7.83 26.35l15.148-4.903-9.985 10.06z"/><path d="M54.004 18.73a2.734 2.734 0 100-5.468 2.734 2.734 0 000 5.469z"/></g><defs><clipPath id="clip0"><path fill="#fff" d="M0 0h70v70H0z"/></clipPath></defs></svg>