<svg width="70" height="70" fill="none" xmlns="http://www.w3.org/2000/svg"><g clip-path="url(#clip0)"><path d="M42.382 64.531H8.297a2.778 2.778 0 01-2.187-1.04 2.857 2.857 0 01-.58-2.395c2.84-13.64 14.877-23.6 28.773-23.923.23.008.463.014.697.014 10.252 0 18.593-8.341 18.593-18.593C53.593 8.34 45.253 0 35 0S16.406 8.341 16.406 18.594c0 6.085 2.938 11.497 7.47 14.89a35.525 35.525 0 00-11.458 6.298C6.165 44.925 1.818 52.1.177 59.982a8.303 8.303 0 001.69 6.96A8.254 8.254 0 008.297 70h34.085a2.734 2.734 0 100-5.469zM21.875 18.594c0-7.237 5.887-13.125 13.124-13.125 7.237 0 13.125 5.888 13.125 13.125 0 7.133-5.72 12.955-12.814 13.12a2.724 2.724 0 00-.31-.018c-.214 0-.428.003-.641.007-6.941-.336-12.485-6.087-12.485-13.11zM69.15 67.682l-.03.034c-1.559 1.559-3.727 2.296-6.182 2.284l-.015-.015c-4.372-.022-9.653-2.42-14.026-6.79-4.369-4.371-6.767-9.653-6.79-14.025-.01-2.455.726-4.623 2.285-6.182l.034-.03a3.315 3.315 0 014.601.166c2.482 2.574 3.976 5.148 1.477 7.707l-2.194 2.21s1.274 2.86 4.508 6.094l.156.155c3.233 3.234 6.093 4.508 6.093 4.508l2.21-2.194c2.559-2.499 5.133-1.005 7.708 1.477a3.316 3.316 0 01.165 4.601z" fill="#00D2A0"/></g><defs><clipPath id="clip0"><path fill="#fff" d="M0 0h70v70H0z"/></clipPath></defs></svg>