<svg width="38" height="38" fill="none" xmlns="http://www.w3.org/2000/svg"><path d="M36.516 21.635c.82 0 1.484-.665 1.484-1.485v-9.722a5.944 5.944 0 00-5.938-5.938H5.939A5.944 5.944 0 000 10.428v17.144a5.944 5.944 0 005.938 5.938h26.125A5.944 5.944 0 0038 27.572a1.484 1.484 0 10-2.969 0 2.972 2.972 0 01-2.968 2.969H5.936a2.972 2.972 0 01-2.968-2.969v-16.83l12.896 8.02a5.928 5.928 0 003.135.901 5.92 5.92 0 003.135-.902l12.896-8.019v9.408c0 .82.665 1.485 1.485 1.485zM20.568 16.24a2.95 2.95 0 01-3.136 0L4.207 8.017a2.953 2.953 0 011.73-.558h26.125c.646 0 1.243.207 1.73.558L20.569 16.24z" fill="#1E5DC5"/></svg>