<svg width="38" height="38" fill="none" xmlns="http://www.w3.org/2000/svg"><g clip-path="url(#clip0)"><path d="M34.214 15.197c-.003 3.326-1.003 6.333-3.146 9.466a1.485 1.485 0 01-2.45-1.677c1.79-2.616 2.625-5.091 2.628-7.789C31.238 8.456 25.744 2.97 19 2.97c-6.745 0-12.238 5.487-12.246 12.231.005 5.37 3.295 8.973 7.104 13.144 1.751 1.919 3.554 3.893 5.142 6.163 1.588-2.27 3.39-4.245 5.142-6.163l.23-.25a1.484 1.484 0 112.192 2l-.23.252c-1.97 2.158-4.007 4.389-5.634 6.963-.272.43-.746.691-1.255.691h-.89c-.51 0-.983-.26-1.255-.691-1.627-2.574-3.665-4.805-5.635-6.963-2.01-2.2-3.907-4.279-5.368-6.662-1.687-2.75-2.509-5.526-2.512-8.484A15.118 15.118 0 018.247 4.45 15.115 15.115 0 0119 0c4.06 0 7.88 1.58 10.752 4.45a15.115 15.115 0 014.462 10.747zm-6.011.018c0 5.115-4.162 9.277-9.277 9.277-5.116 0-9.278-4.162-9.278-9.277 0-5.116 4.162-9.277 9.277-9.277 5.116 0 9.278 4.161 9.278 9.277zm-2.969 0a6.316 6.316 0 00-6.309-6.309 6.316 6.316 0 00-6.308 6.309 6.316 6.316 0 006.308 6.308 6.316 6.316 0 006.31-6.308z" fill="#1E5DC5"/></g><defs><clipPath id="clip0"><path fill="#fff" d="M0 0h38v38H0z"/></clipPath></defs></svg>