<svg width="38" height="38" fill="none" xmlns="http://www.w3.org/2000/svg"><g clip-path="url(#clip0)"><path d="M37.996 30.62a5.62 5.62 0 00-1.724-3.863c-2.073-2-3.81-3.153-5.466-3.632-2.282-.66-4.395-.06-6.282 1.783a.677.677 0 01-.008.008l-2.007 1.992c-1.254-.707-3.693-2.26-6.328-4.894l-.195-.196c-2.636-2.635-4.188-5.074-4.894-6.327l1.992-2.007.008-.008c1.842-1.887 2.442-4 1.783-6.282-.479-1.656-1.633-3.393-3.632-5.466A5.621 5.621 0 007.381.004a5.62 5.62 0 00-3.977 1.441l-.043.039c-.02.017-.039.036-.057.054C1.124 3.718-.018 6.768 0 10.36c.03 6.102 3.385 13.081 8.972 18.668a36.186 36.186 0 003.559 3.1 1.484 1.484 0 001.806-2.357 33.232 33.232 0 01-3.266-2.842c-5.047-5.046-8.075-11.246-8.102-16.584-.014-2.766.818-5.075 2.407-6.68l.011-.01a2.67 2.67 0 013.72.133c3.842 3.986 3.564 5.867 1.866 7.609L8.22 14.169a1.485 1.485 0 00-.302 1.65c.07.156 1.76 3.89 5.968 8.1l.195.194c4.209 4.208 7.943 5.898 8.1 5.968.56.25 1.214.13 1.65-.302l2.771-2.752c1.742-1.698 3.623-1.976 7.609 1.867a2.67 2.67 0 01.134 3.718l-.01.012c-1.592 1.576-3.877 2.407-6.613 2.407h-.068c-2.188-.01-4.72-.61-7.325-1.734a1.484 1.484 0 10-1.176 2.726c3.01 1.299 5.866 1.964 8.486 1.977h.083c3.556 0 6.577-1.142 8.739-3.304l.054-.057.039-.043a5.621 5.621 0 001.441-3.977z" fill="#1E5DC5"/></g><defs><clipPath id="clip0"><path fill="#fff" d="M0 0h38v38H0z"/></clipPath></defs></svg>