<svg width="200" height="200" fill="none" xmlns="http://www.w3.org/2000/svg"><path d="M186.477 8.768H13.523C6.066 8.768 0 14.835 0 22.29v115.12c0 7.457 6.066 13.523 13.523 13.523H36.72a2.93 2.93 0 100-5.859H13.523c-4.225 0-7.664-3.438-7.664-7.664v-9.089a13.447 13.447 0 007.664 2.389h172.954c2.843 0 5.484-.884 7.664-2.389v9.089c0 4.226-3.439 7.664-7.664 7.664H48.438a2.93 2.93 0 000 5.859H84.99l-8.445 19.6h-5.303c-6.97 0-12.642 5.672-12.642 12.643v1.901a6.163 6.163 0 006.156 6.156h70.487a6.163 6.163 0 006.156-6.156v-1.901c0-6.971-5.671-12.643-12.643-12.643h-5.302l-8.445-19.6h71.467c7.457 0 13.523-6.066 13.523-13.523V22.291c0-7.456-6.066-13.523-13.523-13.523zM135.54 183.175v1.901a.297.297 0 01-.296.297H64.756a.297.297 0 01-.296-.297v-1.901a6.79 6.79 0 016.783-6.783h7.214l.015.001.01-.001h43.035l.011.001.015-.001h7.214a6.79 6.79 0 016.783 6.783zm-18.466-12.643H82.926l8.444-19.6h17.26l8.444 19.6zm69.403-45.682H13.523c-4.225 0-7.664-3.438-7.664-7.664V22.291c0-4.225 3.439-7.664 7.664-7.664h172.954c4.225 0 7.664 3.439 7.664 7.664v94.895c0 4.226-3.439 7.664-7.664 7.664z" fill="#1890FF"/><path d="M92.815 37.745l4.255-2.42v10.296a2.93 2.93 0 005.86 0V35.325l4.255 2.42a2.929 2.929 0 102.896-5.093c-9.461-5.379-8.718-4.974-9.011-5.088a2.935 2.935 0 00-2.501.17l-.017.009-8.633 4.909a2.93 2.93 0 102.896 5.093zM69.162 93.962l-8.918 5.136v-4.862a2.93 2.93 0 00-5.86 0c.002 10.424-.446 11.407 1.49 12.482l8.563 5.001a2.93 2.93 0 102.954-5.06l-4.237-2.475 8.932-5.144a2.93 2.93 0 00-2.924-5.078zm73.524-2.655a2.93 2.93 0 00-2.93 2.93v4.862l-8.918-5.136a2.93 2.93 0 00-2.924 5.077l8.932 5.144-4.237 2.475a2.929 2.929 0 102.954 5.06c7.962-4.784 9.487-4.967 9.96-6.83.193-.756.031-.711.093-10.653a2.93 2.93 0 00-2.93-2.93zm-19.899-26.614L101.465 52.38a2.93 2.93 0 00-2.93 0L77.213 64.693a2.93 2.93 0 00-1.465 2.537c0 .073.009.145.014.218v24.403a2.93 2.93 0 001.465 2.537l21.097 12.179c.065.045.127.091.195.131.453.261.96.392 1.465.392l.016-.001.015.001c.506 0 1.012-.131 1.465-.392.068-.04.131-.087.195-.131l21.097-12.18a2.928 2.928 0 001.465-2.536V67.448c.006-.073.015-.145.015-.218a2.929 2.929 0 00-1.465-2.537zM100 58.3l15.455 8.924L100 76.148l-15.455-8.923L100 58.301zM81.622 72.312l15.433 8.911V99.07l-15.433-8.91V72.312zm21.323 26.757V81.223l15.433-8.91v17.846l-15.433 8.91zM32.422 25.655H18.75a5.67 5.67 0 00-5.664 5.665v69.364a5.67 5.67 0 005.664 5.664h13.672a5.67 5.67 0 005.664-5.664V31.32a5.67 5.67 0 00-5.664-5.665zm-.195 74.834H18.945V31.515h13.282v68.974z" fill="#1890FF"/><path d="M24.48 45.992h2.213a2.93 2.93 0 000-5.86h-2.214a2.93 2.93 0 000 5.86zm0 15.293h2.213a2.93 2.93 0 000-5.86h-2.214a2.93 2.93 0 000 5.86zm0 15.293h2.213a2.93 2.93 0 000-5.86h-2.214a2.93 2.93 0 000 5.86zm0 15.293h2.213a2.93 2.93 0 000-5.86h-2.214a2.93 2.93 0 000 5.86zM182.246 21.9h-37.574a4.888 4.888 0 00-4.883 4.884v31.855a4.888 4.888 0 004.883 4.883h37.574a4.888 4.888 0 004.883-4.883V26.784a4.889 4.889 0 00-4.883-4.883zm-.976 35.763h-35.622V27.76h35.622v29.902z" fill="#1890FF"/><path d="M154.084 40.563h8.984a2.93 2.93 0 000-5.86h-8.984a2.93 2.93 0 100 5.86zm0 10.157h18.75a2.93 2.93 0 100-5.86h-18.75a2.93 2.93 0 000 5.86z" fill="#1890FF"/></svg>