<svg width="128" height="128" fill="none" xmlns="http://www.w3.org/2000/svg"><path fill-rule="evenodd" clip-rule="evenodd" d="M60.28 72.48H22.1l.29 1.22a42.73 42.73 0 0082.71 2l.08-.24c.245-.642.4-1.315.46-2h-2a7.999 7.999 0 01-.37 1.36l-.09.3a40.73 40.73 0 01-78.54-.65h35.28v.45a8.06 8.06 0 109.06-8V.09H67v66.85a8.07 8.07 0 00-6.72 5.54zM68 68.87a6.06 6.06 0 11-6.06 6.06A6.07 6.07 0 0168 68.87zm-7-45.49l-.15-2c-1.35.1-2.72.27-4.06.5l.34 2a38.542 38.542 0 013.87-.5zm18.33.72c-1-.39-2.06-.75-3.1-1.06L75.66 25c1 .29 2 .63 3 1l.67-1.9zm10.68 5.99c1.12.83 2.12 1.72 3.12 2.64l-1.34 1.47c-1-.88-2-1.73-3-2.52l1.22-1.59zm8.54 8.76c-.79-1.09-1.66-2.16-2.56-3.19L94.49 37c.86 1 1.69 2 2.45 3l1.61-1.15zm4.17 7.04c-.58-1.23-1.22-2.45-1.92-3.62l-1.72 1c.66 1.12 1.28 2.28 1.83 3.45l1.81-.83zm2.74 7.71l-1.94.49c-.32-1.26-.7-2.52-1.13-3.74l1.88-.67c.46 1.28.86 2.6 1.19 3.92zM11.04 72.48h2v2h-2v-2zm0 9.48h2v2h-2v-2zm0 9.47h2v2h-2v-2zm0 9.48h2v2h-2v-2zm2 9.48h-2v2h2v-2zm6.11 0h-2v2h2v-2zm4.11 0h2v2h-2v-2zm8.12 0h-2v2h2v-2zm4.11 0h2v2h-2v-2zm8.11 0h-2v2h2v-2zm4.12 0h2v2h-2v-2zm8.11 0h-2v2h2v-2zm4.11 0h2v2h-2v-2zm8.12 0h-2v2h2v-2zm4.11 0h2v2h-2v-2zm8.11 0h-2v2h2v-2zm4.12 0h2v2h-2v-2zm8.11 0h-2v2h2v-2zm4.11 0h2v2h-2v-2zm8.12 0h-2v2h2v-2zm4.11 0h2v2h-2v-2zm8.11 0h-2v2h2v-2zm-97.81-9.48h-2v2h2v-2zm4.11 0h2v2h-2v-2zm8.12 0h-2v2h2v-2zm4.11 0h2v2h-2v-2zm57.02 0h-2v2h2v-2zm4.11 0h2v2h-2v-2zm8.12 0h-2v2h2v-2zm4.11 0h2v2h-2v-2zm8.11 0h-2v2h2v-2zm-97.81-9.48h-2v2h2v-2zm4.11 0h2v2h-2v-2zm81.48 0h-2v2h2v-2zm4.11 0h2v2h-2v-2zm8.11 0h-2v2h2v-2zm-97.81-9.47h-2v2h2v-2zm89.7 0h2v2h-2v-2zm8.11 0h-2v2h2v-2zm0-9.48h-2v2h2v-2zm-10.62-2.62l-2-.27c.18-1.29.3-2.59.36-3.89l2 .08c-.05 1.36-.18 2.73-.36 4.08zM83.08 25.75c1.21.61 2.41 1.28 3.56 2l-1.06 1.7c-1.1-.69-2.24-1.33-3.4-1.91l.9-1.79zm21.59 36.05l2-.11c-.07-1.36-.21-2.73-.41-4.07l-2 .3a38.54 38.54 0 01.41 3.88zM27.28 42.12l1.72 1c-.65 1.11-1.26 2.27-1.84 3.47l-1.81-.86c.59-1.23 1.24-2.44 1.93-3.61zM38.16 30l1.21 1.55c-1.03.79-2.04 1.63-2.99 2.55l-1.36-1.47c1-.92 2.06-1.81 3.14-2.63zm15.13-5.31l-.53-1.93c-1.31.36-2.62.78-3.89 1.26l.71 1.87c1.21-.45 2.42-.89 3.71-1.2zM23.8 49.48l1.88.68c-.44 1.22-.83 2.47-1.15 3.73l-1.94-.5c.34-1.32.75-2.63 1.21-3.91zm9.84-12.64l-1.49-1.33a39.374 39.374 0 00-2.58 3.18l1.61 1.18c.135-.17.268-.341.401-.51l.003-.004.004-.005.001-.002.003-.003.002-.003c.673-.857 1.332-1.697 2.046-2.503zM21.75 57.4l2 .31a38.65 38.65 0 00-.43 3.88l-2-.12a46 46 0 01.43-4.07zm1.88 11.98c-.18-1.29-.29-2.588-.33-3.89l-2 .08a40.38 40.38 0 00.35 4.08l1.98-.27zm21.48-43.72l.89 1.79c-1.16.55-2.31 1.21-3.41 1.91l-1.06-1.7c1.16-.73 2.37-1.4 3.58-2zm9.605 70.193l5.314-9.207 1.732 1-5.313 9.207-1.733-1zm1.738-42.864l-1.732 1 5.315 9.206 1.733-1-5.316-9.206zm17.697 9.197l5.314-9.207 1.732 1-5.313 9.206-1.733-1zM55.226 81.139l-4.798 2.77 1 1.731 4.798-2.769-1-1.732zm-4.799-15.187l1-1.733 4.798 2.77-1 1.732-4.798-2.77zM68.96 89.05h-2v5.54h2v-5.54zm10.726-22.052l4.798-2.77 1 1.732-4.798 2.77-1-1.733zm-3.802 19.67l-1.732 1 5.315 9.206 1.732-1-5.315-9.206zm3.811-3.802l1-1.732 4.798 2.77-1 1.732-4.798-2.77z" fill="#00D2A0"/></svg>