<svg version="1.1" id="Layer_1" xmlns="http://www.w3.org/2000/svg" xmlns:xlink="http://www.w3.org/1999/xlink" x="0" y="0" viewBox="0 0 403 354" xml:space="preserve"><style>.st1,.st2,.st3{fill:none;stroke-miterlimit:10}.st1{stroke:#c6e3fd;stroke-linecap:round}.st2{stroke:#96b5cb}.st3{stroke:#a1bfe7;stroke-width:1.33}.st4{fill:#dd8a5a}.st7{fill:#bccfee}.st8{fill:#fff}.st12{fill:#1e5dc5}</style><g id="XMLID_42_" opacity=".5"><path id="XMLID_72_" class="st1" d="M132.9 346.9V1"/><path id="XMLID_71_" class="st1" d="M46.5 256.8v-185"/><path id="XMLID_70_" class="st1" d="M152.3 300.7V26.1"/><path id="XMLID_69_" class="st1" d="M234.9 300.7V29.1"/><path id="XMLID_68_" class="st1" d="M315.2 353.3V35.5"/><path id="XMLID_67_" class="st1" d="M49.4 68.8c0 .6-.2 1.2-.5 1.6-.3.5-.8.9-1.3 1.1-.5.2-1.1.3-1.7.2-.6-.1-1.1-.4-1.5-.8-.4-.4-.7-.9-.8-1.5-.1-.6-.1-1.2.2-1.7.2-.5.6-1 1.1-1.3.5-.3 1.1-.5 1.6-.5.8 0 1.5.3 2.1.9.5.5.8 1.2.8 2z"/><path id="XMLID_66_" class="st1" d="M154.4 22.8c0-1.6-1.3-2.9-2.9-2.9-1.6 0-2.9 1.3-2.9 2.9 0 1.6 1.3 2.9 2.9 2.9 1.6 0 2.9-1.3 2.9-2.9z"/><path id="XMLID_65_" class="st1" d="M318.2 32c0 .6-.2 1.2-.5 1.6-.3.5-.8.9-1.3 1.1-.5.2-1.1.3-1.7.2-.6-.1-1.1-.4-1.5-.8-.4-.4-.7-.9-.8-1.5-.1-.6-.1-1.2.2-1.7s.6-1 1.1-1.3c.5-.3 1.1-.5 1.6-.5.8 0 1.5.3 2.1.9.5.5.8 1.2.8 2z"/><path id="XMLID_64_" class="st1" d="M353.2 176.4V56.7"/><path id="XMLID_63_" class="st1" d="M356.1 53.3c0 .6-.2 1.2-.5 1.6-.3.5-.8.9-1.3 1.1-.5.2-1.1.3-1.7.2-.6-.1-1.1-.4-1.5-.8-.4-.4-.7-.9-.8-1.5-.1-.6-.1-1.2.2-1.7.2-.5.6-1 1.1-1.3.5-.3 1.1-.5 1.6-.5.8 0 1.5.3 2.1.9s.8 1.2.8 2z"/><path id="XMLID_62_" class="st1" d="M399.2 300.5v-166"/><path id="XMLID_61_" class="st1" d="M402.1 131.1c0 .6-.2 1.2-.5 1.6-.3.5-.8.9-1.3 1.1-.5.2-1.1.3-1.7.2-.6-.1-1.1-.4-1.5-.8-.4-.4-.7-.9-.8-1.5-.1-.6-.1-1.2.2-1.7.2-.5.6-1 1.1-1.3.5-.3 1.1-.5 1.6-.5.8 0 1.5.3 2.1.9.5.4.8 1.2.8 2z"/><path id="XMLID_60_" class="st1" d="M3.9 292.7V126.6"/><path id="XMLID_59_" class="st1" d="M6.9 123.2c0 .6-.2 1.2-.5 1.6s-.8.9-1.3 1.1c-.5.2-1.1.3-1.7.2-.6-.1-1.1-.4-1.5-.8-.4-.4-.7-.9-.8-1.5-.1-.6-.1-1.2.2-1.7s.6-1 1.1-1.3c.5-.3 1.1-.5 1.6-.5.8 0 1.5.3 2.1.9.5.5.8 1.2.8 2z"/><path id="XMLID_58_" class="st1" d="M237.9 26.1c0 .6-.2 1.2-.5 1.6-.3.5-.8.9-1.3 1.1-.5.2-1.1.3-1.7.2-.6-.1-1.1-.4-1.5-.8-.4-.4-.7-.9-.8-1.5-.1-.6-.1-1.2.2-1.7.2-.5.6-1 1.1-1.3.5-.3 1.1-.5 1.6-.5.8 0 1.5.3 2.1.9.5.5.8 1.2.8 2z"/><path id="XMLID_55_" class="st2" d="M381.6 187.3v-33.9c0-1.5-.6-2.9-1.6-4s-2.4-1.7-3.9-1.8l-15-1c-2-7.4-5-14.5-8.8-21.2l10-11.3c1-1.1 1.5-2.5 1.4-4 0-1.5-.7-2.9-1.7-3.9l-24-24c-1-1-2.4-1.6-3.9-1.7s-2.9.5-4 1.4l-11.3 9.9C312.1 88 305 85 297.6 83l-1-15c-.1-1.5-.8-2.8-1.8-3.9-1.1-1-2.5-1.6-4-1.6h-33.9c-1.5 0-2.9.6-4 1.6s-1.7 2.4-1.8 3.9l-1 15c-7.4 2-14.5 5-21.2 8.8L217.6 82c-1.1-1-2.5-1.5-4-1.4s-2.9.7-3.9 1.7l-24 24c-1 1-1.6 2.4-1.7 3.9 0 1.5.5 2.9 1.4 4l9.9 11.3c-3.8 6.7-6.8 13.8-8.8 21.2l-15 1c-1.5.1-2.9.7-3.9 1.8s-1.6 2.5-1.6 4v33.9c0 1.5.6 2.9 1.6 4s2.4 1.7 3.9 1.8l15 1c2 7.4 5 14.5 8.8 21.2l-9.9 11.3c-1 1.1-1.5 2.5-1.4 4 0 1.5.7 2.9 1.7 3.9l24 24c1 1 2.4 1.6 3.9 1.7 1.5 0 2.9-.5 4-1.4l11.3-9.9c6.7 3.8 13.8 6.8 21.2 8.8l1 15c.1 1.5.8 2.8 1.8 3.8 1.1 1 2.5 1.6 4 1.6h33.9c1.5 0 2.9-.6 4-1.6s1.7-2.4 1.8-3.8l1-15c7.4-2 14.5-5 21.2-8.8l11.3 9.9c1.1 1 2.5 1.5 4 1.4 1.5 0 2.9-.7 3.9-1.7l24-24c1-1 1.7-2.4 1.7-3.9s-.5-2.9-1.4-4l-10-11.3c3.8-6.6 6.8-13.8 8.8-21.2l15-1c1.5-.1 2.9-.8 3.9-1.8 1.1-1.2 1.6-2.6 1.6-4.1zm-102.3 36.3c-11 1.1-22.1-1.2-31.7-6.6-9.6-5.4-17.3-13.7-22.1-23.6-4.7-10-6.3-21.2-4.4-32 1.9-10.9 7.1-20.9 14.9-28.7 7.8-7.8 17.9-13 28.7-14.9 10.9-1.9 22.1-.3 32.1 4.4s18.2 12.5 23.7 22.1c5.4 9.6 7.7 20.7 6.6 31.7-1.3 12.2-6.7 23.7-15.4 32.3-8.7 8.6-20.1 14-32.4 15.3z"/><path id="XMLID_52_" class="st2" d="M162 229.7v-23.2c0-1-.4-2-1.1-2.7-.7-.7-1.6-1.2-2.6-1.2l-10.3-.7c-1.4-5.1-3.4-9.9-6-14.5l6.8-7.8c.7-.8 1-1.7 1-2.7 0-1-.4-2-1.2-2.7l-16.4-16.4c-.7-.7-1.7-1.1-2.7-1.2-1 0-2 .3-2.7 1l-7.7 6.8c-4.6-2.6-9.4-4.6-14.5-6l-.7-10.3c-.1-1-.5-1.9-1.2-2.6-.7-.7-1.7-1.1-2.7-1.1H76.8c-1 0-2 .4-2.7 1.1-.7.7-1.2 1.6-1.2 2.6l-.7 10.3c-5.1 1.4-9.9 3.4-14.5 6l-7.6-6.7c-.8-.7-1.7-1-2.7-1s-2 .4-2.7 1.2l-16.4 16.4c-.7.7-1.1 1.7-1.2 2.7 0 1 .3 2 1 2.7l6.8 7.8c-2.6 4.6-4.6 9.4-6 14.5l-10.3.7c-1 .1-1.9.5-2.6 1.2-.7.7-1.1 1.7-1.1 2.7v23.2c0 1 .4 2 1.1 2.7.7.7 1.6 1.2 2.6 1.2l10.3.7c1.4 5.1 3.4 9.9 6 14.5l-6.8 7.7c-.7.8-1 1.7-1 2.7 0 1 .4 2 1.2 2.7l16.4 16.4c.7.7 1.7 1.1 2.7 1.2s2-.3 2.7-1l7.7-6.8c4.6 2.6 9.4 4.6 14.5 6l.7 10.3c.1 1 .5 1.9 1.2 2.6.7.7 1.7 1.1 2.7 1.1h23.2c1 0 2-.4 2.7-1.1.7-.7 1.2-1.6 1.2-2.6l.7-10.3c5.1-1.4 9.9-3.4 14.5-6l7.7 6.8c.8.7 1.7 1 2.7 1 1 0 2-.4 2.7-1.2l16.4-16.4c.7-.7 1.1-1.7 1.2-2.7 0-1-.3-2-1-2.7l-6.8-7.7c2.6-4.6 4.6-9.4 6-14.5l10.3-.7c1-.1 1.9-.6 2.6-1.3.7-.8 1-1.7 1-2.7zm-69.9 24.7c-7.5.8-15.1-.8-21.6-4.5-6.6-3.7-11.9-9.3-15.1-16.1-3.2-6.8-4.3-14.5-3-21.9 1.3-7.4 4.8-14.3 10.2-19.6 5.3-5.3 12.2-8.9 19.6-10.2 7.4-1.3 15.1-.2 21.9 3 6.8 3.2 12.5 8.5 16.2 15.1 3.7 6.6 5.3 14.1 4.5 21.6-.9 8.3-4.6 16.1-10.5 22.1-6 5.9-13.8 9.6-22.2 10.5z"/><path id="XMLID_51_" class="st3" d="M365.9 300.5c0 .6-.2 1.2-.5 1.6-.3.5-.8.9-1.3 1.1-.5.2-1.1.3-1.7.2-.6-.1-1.1-.4-1.5-.8-.4-.4-.7-.9-.8-1.5-.1-.6-.1-1.2.2-1.7.2-.5.6-1 1.1-1.3.5-.3 1.1-.5 1.6-.5.8 0 1.5.3 2.1.9.5.5.8 1.3.8 2z"/><path id="XMLID_50_" class="st3" d="M323.4 109.7c0 .6-.2 1.2-.5 1.6s-.8.9-1.3 1.1c-.5.2-1.1.3-1.7.2-.6-.1-1.1-.4-1.5-.8-.4-.4-.7-.9-.8-1.5-.1-.6-.1-1.2.2-1.7.2-.5.6-1 1.1-1.3.5-.3 1.1-.5 1.6-.5.8 0 1.5.3 2.1.9.5.4.8 1.2.8 2z"/><path id="XMLID_49_" class="st4" d="M346.3 181.3c0 .4-.1.7-.3 1.1-.2.3-.5.6-.9.7-.3.1-.7.2-1.1.1-.4-.1-.7-.3-1-.5-.3-.3-.4-.6-.5-1-.1-.4 0-.8.1-1.1.1-.3.4-.6.7-.9.3-.2.7-.3 1.1-.3.5 0 1 .2 1.3.6.4.3.6.8.6 1.3z"/><path id="XMLID_48_" class="st4" d="M54.6 291.6c0 .4-.1.7-.3 1.1-.2.3-.5.6-.9.7-.3.1-.7.2-1.1.1-.4-.1-.7-.3-1-.5-.3-.3-.4-.6-.5-1-.1-.4 0-.8.1-1.1.1-.3.4-.6.7-.9.3-.2.7-.3 1.1-.3.3 0 .5 0 .7.1.2.1.4.2.6.4.2.2.3.4.4.6.2.3.2.5.2.8z"/><path id="XMLID_47_" class="st4" d="M78.4 109.7c0 .4-.1.8-.3 1.1-.2.3-.5.6-.9.7-.4.1-.7.2-1.1.1-.4-.1-.7-.3-1-.5-.3-.3-.4-.6-.5-1-.1-.4 0-.8.1-1.1.1-.3.4-.6.7-.9.3-.2.7-.3 1.1-.3.5 0 1 .2 1.3.6.4.3.6.8.6 1.3z"/><path id="XMLID_46_" class="st4" d="M333.6 307.2c0 .4-.1.8-.3 1.1-.2.3-.5.6-.9.7-.3.1-.7.2-1.1.1-.4-.1-.7-.3-1-.5-.3-.3-.5-.6-.5-1-.1-.4 0-.8.1-1.1.1-.3.4-.6.7-.9.3-.2.7-.3 1.1-.3.5 0 1 .2 1.4.6.3.3.5.7.5 1.3z"/><path id="XMLID_45_" class="st3" d="M128.2 141.6c0 .6-.2 1.1-.5 1.6s-.8.9-1.3 1.1c-.5.2-1.1.3-1.7.2-.6-.1-1.1-.4-1.5-.8-.4-.4-.7-.9-.8-1.5-.1-.6-.1-1.2.2-1.7.2-.5.6-1 1.1-1.3.5-.3 1.1-.5 1.6-.5.8 0 1.5.3 2.1.9.5.5.8 1.2.8 2z"/><path id="XMLID_44_" class="st3" d="M24.8 299.4c0 .6-.2 1.1-.5 1.6s-.8.9-1.3 1.1c-.5.2-1.1.3-1.7.2-.6-.1-1.1-.4-1.5-.8-.4-.4-.7-.9-.8-1.5-.1-.6-.1-1.2.2-1.7.2-.5.6-1 1.1-1.3.5-.3 1.1-.5 1.6-.5.8 0 1.5.3 2.1.9.5.5.8 1.2.8 2z"/><path id="XMLID_43_" class="st3" d="M58.6 109.7c0 .6-.2 1.1-.5 1.6s-.8.9-1.3 1.1c-.5.2-1.1.3-1.7.2-.6-.1-1.1-.4-1.5-.8-.4-.4-.7-.9-.8-1.5-.1-.6-.1-1.2.2-1.7.2-.5.6-1 1.1-1.3.5-.3 1.1-.5 1.6-.5.8 0 1.5.3 2.1.9.5.4.8 1.2.8 2z"/></g><g id="XMLID_1_"><defs><path id="XMLID_41_" d="M71.5 55h260v256h-260z"/></defs><clipPath id="XMLID_74_"><use xlink:href="#XMLID_41_" overflow="visible"/></clipPath><g id="XMLID_2_" clip-path="url(#XMLID_74_)"><path id="XMLID_40_" d="M304.9 253c0-50.9 26.6-85.9 26.6-110.5s-14.2-76.1-127.9-76.1-130.5 69.4-130.5 96.4c0 126.5 231.8 180.5 231.8 90.2z" fill="#f4f8ff"/><path id="XMLID_39_" class="st7" d="M156.4 102h121.3c2.7 0 4.9 2.5 4.9 5.6v150.8c0 3.1-2.2 5.6-4.9 5.6H156.4c-2.7 0-4.9-2.5-4.9-5.6V107.6c0-3.1 2.2-5.6 4.9-5.6z"/><path id="XMLID_38_" class="st8" d="M126 102.1h139.9c3.1 0 5.6 2.5 5.6 5.6v150.6c0 3.1-2.5 5.6-5.6 5.6H126c-3.1 0-5.6-2.5-5.6-5.6V107.7c0-3.1 2.5-5.6 5.6-5.6z"/><path id="XMLID_37_" d="M126.3 103h139.4c3.2 0 5.8 2.5 5.8 5.5v149c0 3-2.6 5.5-5.8 5.5H126.3c-3.2 0-5.8-2.5-5.8-5.5v-149c0-3 2.6-5.5 5.8-5.5z" fill="#d0dff9"/><path id="XMLID_36_" class="st8" d="M195.9 169.1v-16.7h11.2v16.7c0 3.1-2.5 5.6-5.6 5.6s-5.6-2.6-5.6-5.6z"/><path id="XMLID_35_" class="st8" d="M217.6 141.2h-32.1c-1.2-.1-2.3-.9-2.7-2.1l-3.7-9.1h44.8l-3.7 9.1c-.4 1.2-1.4 2-2.6 2.1z"/><path id="XMLID_34_" class="st8" d="M187.5 141.2h28v5.6c0 3.1-2.5 5.6-5.6 5.6h-16.8c-3.1 0-5.6-2.5-5.6-5.6v-5.6z"/><path id="XMLID_33_" class="st7" d="M195.9 169.1v-16.7h11.2v16.7c0 3.1-2.5 5.6-5.6 5.6-3.1-.1-5.6-2.6-5.6-5.6z"/><path id="XMLID_32_" class="st7" d="M217.6 141.2h-32.1c-1.2-.1-2.3-.9-2.7-2.1l-3.7-9.1h44.8l-3.7 9.1c-.4 1.2-1.4 2-2.6 2.1z"/><path id="XMLID_31_" class="st7" d="M187.5 141.2h28v5.6c0 3.1-2.5 5.6-5.6 5.6h-16.8c-3.1 0-5.6-2.5-5.6-5.6v-5.6z"/><path id="XMLID_30_" d="M201.5 185.8v67l-47.6-7.4v-52.1l47.6-7.5z" fill="#00d2a0"/><path id="XMLID_29_" d="M249.1 193.2v52.1l-18.2 2.8-9.4 1.5-10.5 1.6-9.4 1.5v-67l14.6 2.3 6.9 1.1 7.7 1.2 6.9 1.1 7.6 1.2 3.8.6z" fill="#00b58a"/><path id="XMLID_26_" class="st12" d="M201.5 177.4c-4.6 0-8.4-3.7-8.4-8.4v-16.7c0-.7.3-1.4.8-2 .5-.5 1.2-.8 2-.8h11.2c.7 0 1.5.3 2 .8s.8 1.2.8 2V169c0 4.7-3.8 8.4-8.4 8.4zm-2.8-22.3V169c0 1.5 1.3 2.8 2.8 2.8 1.5 0 2.8-1.2 2.8-2.8v-13.9h-5.6z"/><path id="XMLID_23_" class="st12" d="M282.6 132.8H120.4c-.7 0-1.5-.3-2-.8s-.8-1.2-.8-2v-16.7c0-.7.3-1.4.8-2 .5-.5 1.2-.8 2-.8h162.3c.7 0 1.5.3 2 .8s.8 1.2.8 2V130c0 .7-.3 1.4-.8 2-.6.5-1.3.8-2.1.8zm-159.4-5.6h156.7V116H123.2v11.2z"/><path id="XMLID_20_" class="st12" d="M217.6 143.9h-32.1c-2.4-.1-4.5-1.6-5.3-3.8l-3.7-9.1c-.3-.9-.2-1.8.3-2.6s1.4-1.2 2.3-1.2h44.8c.9 0 1.8.5 2.3 1.2.5.8.6 1.7.3 2.6l-3.7 9.1c-.8 2.3-2.9 3.8-5.2 3.8zm-34.3-11.1l2.1 5.3c0 .1.1.2.2.3h31.9c.1-.1.1-.2.2-.3l2.1-5.3h-36.5z"/><path id="XMLID_17_" class="st12" d="M209.9 155.1h-16.8c-4.6 0-8.4-3.8-8.4-8.4v-5.6c0-.7.3-1.5.8-2s1.2-.8 2-.8h28c.7 0 1.5.3 2 .8s.8 1.2.8 2v5.6c0 4.7-3.8 8.4-8.4 8.4zm-19.6-11.2v2.8c0 1.5 1.3 2.8 2.8 2.8h16.8c1.5 0 2.8-1.2 2.8-2.8v-2.8h-22.4z"/><path id="XMLID_16_" class="st12" d="M282.6 241.6H249c-1.5 0-2.8-1.2-2.8-2.8s1.3-2.8 2.8-2.8h33.6c1.5 0 2.8 1.2 2.8 2.8s-1.2 2.8-2.8 2.8z"/><path id="XMLID_15_" class="st12" d="M153.9 241.6h-33.6c-1.5 0-2.8-1.2-2.8-2.8s1.3-2.8 2.8-2.8h33.6c1.5 0 2.8 1.2 2.8 2.8s-1.2 2.8-2.8 2.8z"/><path id="XMLID_14_" class="st12" d="M201.5 255.5h-.4l-47.6-7.4c-1.4-.2-2.4-1.4-2.4-2.8v-52.1c0-1.5 1.3-2.8 2.8-2.8 1.5 0 2.8 1.2 2.8 2.8v49.7l45.2 7.1c1.4.2 2.5 1.5 2.4 3-.1 1.4-1.3 2.5-2.8 2.5z"/><path id="XMLID_13_" class="st12" d="M153.9 196c-1.5 0-2.7-1.1-2.8-2.6-.1-1.5.9-2.7 2.4-3l47.6-7.4c1-.2 2 .2 2.6 1 .6.8.8 1.8.4 2.8s-1.2 1.6-2.2 1.8l-47.6 7.4h-.4z"/><path id="XMLID_10_" class="st12" d="M201.5 255.5c-.7 0-1.5-.3-2-.8s-.8-1.2-.8-2v-67c0-.8.4-1.6 1-2.1s1.4-.8 2.3-.6l47.6 7.4c1.4.2 2.4 1.4 2.4 2.8v52.1c0 1.4-1 2.5-2.4 2.8l-47.6 7.4h-.5zm2.8-66.4v60.4l42-6.6v-47.3l-42-6.5z"/><path id="XMLID_9_" class="st12" d="M201.5 209.5c-1.1 0-2.2-.7-2.6-1.7-.4-1-.2-2.2.6-3l18.1-18.1c.7-.7 1.7-1 2.7-.7 1 .3 1.7 1 2 2 .3 1 0 2-.7 2.7l-18.1 18.1c-.5.4-1.3.7-2 .7z"/><path id="XMLID_8_" class="st12" d="M201.5 226.2c-1.1 0-2.2-.7-2.6-1.7-.4-1-.2-2.2.6-3l32.6-32.6c1.1-1.1 2.9-1.1 4 0s1.1 2.9 0 3.9l-32.6 32.6c-.5.5-1.3.8-2 .8z"/><path id="XMLID_7_" class="st12" d="M201.5 243c-1.1 0-2.2-.7-2.6-1.7-.4-1-.2-2.2.6-3l47.1-47c1.1-1.1 2.9-1.1 4 0s1.1 2.9 0 3.9l-47.1 47c-.5.5-1.3.8-2 .8z"/><path id="XMLID_6_" class="st12" d="M206.5 254.8c-1.1 0-2.2-.7-2.6-1.7-.4-1-.2-2.2.6-3l42.6-42.5c1.1-1.1 2.9-1.1 3.9 0 1.1 1.1 1.1 2.8 0 3.9L208.4 254c-.5.5-1.2.8-1.9.8z"/><path id="XMLID_5_" class="st12" d="M226.4 251.6c-1.1 0-2.2-.7-2.6-1.7-.4-1-.2-2.2.6-3l22.7-22.6c1.1-1.1 2.9-1.1 3.9 0 1.1 1.1 1.1 2.8 0 3.9l-22.7 22.6c-.4.5-1.2.8-1.9.8z"/><path id="XMLID_4_" class="st12" d="M277 266.7H126c-4.6 0-8.4-3.7-8.4-8.4v-27.9c0-1.5 1.3-2.8 2.8-2.8 1.5 0 2.8 1.2 2.8 2.8v27.9c0 1.5 1.3 2.8 2.8 2.8h151c1.5 0 2.8-1.2 2.8-2.8V107.7c0-1.5-1.3-2.8-2.8-2.8H126c-1.5 0-2.8 1.2-2.8 2.8v100.4c0 1.5-1.3 2.8-2.8 2.8-1.5 0-2.8-1.2-2.8-2.8V107.7c0-4.6 3.8-8.4 8.4-8.4h151c4.6 0 8.4 3.7 8.4 8.4v150.6c0 4.6-3.7 8.4-8.4 8.4z"/><path id="XMLID_3_" class="st12" d="M120.4 222.1c1.5 0 2.8-1.2 2.8-2.8 0-1.5-1.3-2.8-2.8-2.8-1.5 0-2.8 1.2-2.8 2.8 0 1.5 1.2 2.8 2.8 2.8z"/></g></g></svg>