<svg width="205" height="40" fill="none" xmlns="http://www.w3.org/2000/svg"><path fill-rule="evenodd" clip-rule="evenodd" d="M200.394 18.743l-8.063-7.256L193.669 10l10 9 .826.743-.826.744-10 9L192.331 28l8.063-7.257h-1.24v-2h1.24zM3 20.743h3.846v-2H3v2zm11.539 0h7.692v-2h-7.693v2zm15.384 0h7.692v-2h-7.692v2zm15.385 0H53v-2h-7.692v2zm15.384 0h7.693v-2h-7.693v2zm15.385 0h7.692v-2h-7.692v2zm15.385 0h7.692v-2h-7.692v2zm15.384 0h7.692v-2h-7.692v2zm15.385 0h7.692v-2h-7.692v2zm15.384 0h7.693v-2h-7.693v2zm15.385 0h7.692v-2H153v2zm15.385 0h7.692v-2h-7.692v2zm15.384 0h7.693v-2h-7.693v2z" fill="#00D2A0"/></svg>