<svg width="204" height="72" fill="none" xmlns="http://www.w3.org/2000/svg"><path fill-rule="evenodd" clip-rule="evenodd" d="M3 21h4.136v-2H3v2zm12.41 0h8.272v-2h-8.273v2zm16.544 0h8.273v-2h-8.272v2zM48.5 21h8.273v-2H48.5v2zm16.546 0h8.272v-2h-8.272v2zm16.545 0h8.273v-2H81.59v2zm16.545 0h8.273v-2h-8.273v2zm16.546 0h8.273v-2h-8.273v2zm16.545 0h8.273v-2h-8.273v2zm16.546 0h8.272v-2h-8.272v2zm16.545 0h8.273v-2h-8.273v2zm16.546 0H184v2.375h2V19h-5.136v2zM184 30.125v6.75h2v-6.75h-2zm2 15.269l7.257-8.063 1.486 1.338-9 10-.743.826-.743-.826-9-10 1.486-1.338L184 45.394v-1.769h2v1.769z" fill="#00D2A0"/></svg>