<svg width="65" height="64" fill="none" xmlns="http://www.w3.org/2000/svg"><g clip-path="url(#clip0_119221:170980)" fill="#1890FF"><path d="M8.649 38.15l4.461-2.121 3.075 1.274 1.655 4.654h6.61l1.656-4.654 3.075-1.274 4.461 2.12 4.675-4.674-2.121-4.461 1.273-3.075 4.655-1.655v-6.61l-4.654-1.656-1.274-3.075 2.12-4.461-4.674-4.675-4.461 2.121-3.075-1.274L24.45 0h-6.61l-1.656 4.654-3.075 1.274-4.461-2.12-4.675 4.674 2.12 4.461-1.273 3.075-4.654 1.655v6.61l4.654 1.656 1.274 3.075-2.12 4.461 4.674 4.675zM2.046 22.958v-3.959l4.191-1.49L8.15 12.89 6.24 8.873l2.8-2.8 4.018 1.91 4.617-1.913 1.491-4.191h3.959l1.49 4.191 4.618 1.913 4.018-1.91 2.8 2.8-1.91 4.018 1.912 4.617L40.245 19v3.959l-4.191 1.49-1.913 4.618 1.91 4.018-2.8 2.8-4.018-1.91-4.617 1.913-1.491 4.191h-3.959l-1.49-4.191-4.618-1.913-4.018 1.91-2.8-2.8 1.91-4.018-1.913-4.617-4.191-1.491z"/><path d="M21.145 31.937c6.043 0 10.96-4.916 10.96-10.959 0-6.042-4.917-10.959-10.96-10.959-6.042 0-10.958 4.917-10.958 10.96 0 6.042 4.916 10.958 10.958 10.958zM12.114 20.04c.185-1.8.9-3.445 1.984-4.779l1.424 1.423 1.328-1.328-1.423-1.423a9.037 9.037 0 014.779-1.985v2.018h1.879v-2.018c1.8.186 3.445.9 4.779 1.985l-1.424 1.423 1.329 1.328 1.423-1.423a9.037 9.037 0 011.985 4.779h-2.018v1.879h2.018a9.038 9.038 0 01-1.985 4.779l-1.423-1.423-1.328 1.328 1.423 1.423a9.036 9.036 0 01-4.78 1.985v-2.018h-1.878v2.018a9.038 9.038 0 01-4.779-1.985l1.423-1.423-1.328-1.328-1.423 1.423a9.038 9.038 0 01-1.985-4.78h2.018V20.04h-2.018z"/><path d="M24.565 23.07l-2.48-2.48v-4.37h-1.879v5.147l3.03 3.031 1.33-1.328zm39.602 11.184v-5.949h-9.394V64h9.394V36.133h-1.879v25.988h-5.636V30.184h5.636v4.07h1.879zM42.249 64h9.393V48.657h-1.878v13.464h-5.636v-18.16h5.636v2.818h1.878v-4.697H42.25V64zm-12.524 0h9.393v-7.828h-1.879v5.95h-5.636V51.474h5.636v2.819h1.879v-4.697h-9.393V64zM17.2 64h9.393v-4.822h-1.878v2.944h-5.636v-6.889h5.636V57.3h1.878v-3.946H17.2V64zM4.676 64h9.393v-8.141H4.676v8.14zm1.878-6.262h5.636v4.383H6.554v-4.383zM4.99 51.225c.634 0 1.276-.01 1.907-.03l-.06-1.878c-.611.02-1.233.03-1.848.03v1.878zm3.813-.122c.633-.04 1.273-.093 1.903-.154l-.181-1.87c-.61.06-1.23.11-1.842.149l.12 1.875zm3.557-2.232l.242 1.863A58.27 58.27 0 0042.64 37.517a58.539 58.539 0 0017.298-24.583l1.922 4.646 1.736-.718-3.232-7.812-7.812 3.232.718 1.736 5.035-2.083c-7.16 19.81-24.982 34.215-45.944 36.936zm7.846-41.356h1.879v1.878h-1.879V7.515zM10.072 12.49l1.329-1.328 1.328 1.328-1.329 1.328-1.328-1.328zM6.43 21.292h1.878v1.878H6.43v-1.878zm3.64 10.678l1.329-1.328 1.328 1.329-1.329 1.328-1.328-1.328zm10.136 3.099h1.879v1.878h-1.879v-1.879z"/><path d="M29.553 31.974l1.328-1.328 1.328 1.328-1.328 1.329-1.328-1.328zm4.43-10.682h1.88v1.878h-1.88v-1.878zm-4.428-8.801l1.328-1.328 1.328 1.328-1.328 1.328-1.328-1.328z"/></g><defs><clipPath id="clip0_119221:170980"><path fill="#fff" transform="translate(.167)" d="M0 0h64v64H0z"/></clipPath></defs></svg>