<svg width="129" height="128" fill="none" xmlns="http://www.w3.org/2000/svg"><path d="M80.833 61.2h-2v2h2v-2zm21.1 0h-3.5v2h3.5v-2zm-7 0h-3.5v2h3.5v-2zm14.1 0h-3.5v2h3.5v-2zm-21.2 0h-3.5v2h3.5v-2zm24.7 0v2h1v1h2v-3h-3zm3 14.5h-2v3.8h2v-3.8zm0-7.7h-2v3.8h2V68zm0 23h-2v3.8h2V91zm0-7.7h-2v3.8h2v-3.8z" fill="#1890FF"/><path d="M75.133 91.6c0-4-.9-7.9-2.8-11.5l-.5-.8c2.2-2.7 3.4-6.1 3.3-9.6V56.8c2.9-.5 5.7-1.2 8.5-2.2 5.5-2.1 8.5-5 8.5-8.1 0-2.7-2.3-5.3-6.5-7.3l5.2-2.6-.9-1.8-7.9 4 3.1 7.9 1.8-.7-1.9-4.8c3.2 1.6 5 3.5 5 5.3 0 2.2-2.6 4.5-7.2 6.2-2.5.9-5.1 1.6-7.8 2V43.2c.1-4-.9-8-2.8-11.5l-.5-.8c2.2-2.7 3.4-6.1 3.3-9.6V0h-2.1v13.1L65.833 0h-2.3l7.9 14.1c1.2 2.2 1.8 4.7 1.8 7.2.1 2.7-.8 5.4-2.3 7.7l-13.6-24.2c-.8-1.5-1.4-3.1-1.6-4.8h-2.2v24c0 2.4.3 4.7 1 7-3.2.4-6.4 1.2-9.4 2.3-5.5 2.1-8.5 5-8.5 8.1 0 2.8 2.3 5.3 6.5 7.3l-5.2 2.6.9 1.8 7.9-4-3.1-7.9-1.9.8 1.9 4.8c-3.2-1.6-5-3.5-5-5.3 0-2.2 2.6-4.5 7.2-6.2 3-1.1 6.1-1.9 9.3-2.3.3.9.7 1.7 1.2 2.5l.5.9c-2.2 2.7-3.4 6.1-3.3 9.6v15.2h-40.4v59.9h102.5V98.6h-40.5v-7zM55.533 24V5.8l14.8 26.6.2.3c1.7 3.2 2.6 6.9 2.6 10.5V55c-1.1.2-2.2.3-3.4.4l-11.4-20.5-.2-.4c-1.7-3.2-2.6-6.8-2.6-10.5zm17.6 33.1v4.5l-2.4-4.2c.8-.2 1.6-.2 2.4-.3zm-15.3-18.8l9.6 17.3c-1 0-2.1.1-3.2.1v2c1.4 0 2.8-.1 4.2-.1l2.8 5.1c1.2 2.2 1.8 4.7 1.8 7.2.1 2.8-.8 5.5-2.3 7.7l-13.4-24.4c-1.2-2.2-1.8-4.7-1.8-7.2-.1-2.8.8-5.5 2.3-7.7zm-2.3 15.9l14.8 26.6.2.3c1.7 3.2 2.6 6.9 2.6 10.5v7h-6.3l-8.5-15.2-.2-.4c-1.7-3.2-2.6-6.9-2.6-10.5V54.2zm2.3 32.5l6.6 11.9h-8.4c-.4-1.4-.6-2.8-.6-4.2 0-2.7.9-5.4 2.4-7.7zm-1.5-2.7l.5.9c-.5.6-.9 1.2-1.3 1.8v-4.4c.3.6.5 1.1.8 1.7zm57.2 16.6v18.5h-98.4v-56h38.4v37.5h60z" fill="#1890FF"/></svg>