<svg width="263" height="263" fill="none" xmlns="http://www.w3.org/2000/svg"><path d="M64.008 34.305C112.88 34.305 146.442 9 169.99 9 193.541 9 243 22.532 243 130.821 243 239.109 176.464 255 150.561 255 29.266 255.007-22.545 34.305 64.008 34.305z" fill="#F4F8FF"/><path d="M223 67.781C223 49.154 207.846 34 189.219 34s-33.781 15.154-33.781 33.781c0 17.387 13.203 31.745 30.109 33.581v34.716h-15.055a3.673 3.673 0 000 7.344h18.727a3.673 3.673 0 003.672-3.672v-38.388C209.797 99.526 223 85.168 223 67.782zM189.219 94.22c-14.578 0-26.438-11.86-26.438-26.438s11.86-26.437 26.438-26.437c14.577 0 26.437 11.86 26.437 26.437 0 14.578-11.86 26.438-26.437 26.438z" fill="#00D2A0"/><path d="M197.176 58.502l-10.77 10.77-5.145-5.145a3.672 3.672 0 00-5.193 5.193l7.741 7.741a3.674 3.674 0 005.193 0l13.366-13.367a3.672 3.672 0 00-5.192-5.192z" fill="#00D2A0"/><path d="M80.87 55.693a3.672 3.672 0 00-5.194 0l-6.895 6.896-6.896-6.896a3.672 3.672 0 00-5.193 5.193l6.896 6.895-6.896 6.896a3.672 3.672 0 005.193 5.193l6.896-6.896 6.895 6.895a3.66 3.66 0 002.596 1.076 3.672 3.672 0 002.596-6.268l-6.895-6.896 6.896-6.896a3.672 3.672 0 000-5.192z" fill="#1E5DC5"/><path d="M152.03 158.844h-4.773c5.035-4.817 8.181-11.593 8.181-19.094v-16.909c0-14.578-11.86-26.437-26.438-26.437s-26.438 11.859-26.438 26.437v16.909c0 7.501 3.146 14.277 8.181 19.094h-4.773c-20.911 0-37.923 17.012-37.923 37.923v21.561A3.672 3.672 0 0071.719 222H186.28a3.672 3.672 0 003.672-3.672v-21.561c0-20.911-17.012-37.923-37.923-37.923z" fill="#D0DFF9"/><path d="M152.03 158.844h-4.773c5.035-4.817 8.181-11.593 8.181-19.094v-16.909c0-14.578-11.86-26.437-26.438-26.437s-26.438 11.859-26.438 26.437v16.909c0 7.501 3.146 14.277 8.181 19.094h-4.773c-20.911 0-37.923 17.012-37.923 37.923v21.561A3.672 3.672 0 0071.719 222H186.28a3.672 3.672 0 003.672-3.672v-21.561c0-20.911-17.012-37.923-37.923-37.923zM129 178.672a3.672 3.672 0 003.672-3.672v-8.812h13.87L129 208.702l-17.542-42.514h13.87V175a3.672 3.672 0 003.672 3.672zm0-74.925c10.528 0 19.094 8.566 19.094 19.094v.037h-.016a31.09 31.09 0 01-17.067-5.091 3.672 3.672 0 00-4.021 0 31.095 31.095 0 01-17.068 5.091h-.016v-.037c0-10.528 8.566-19.094 19.094-19.094zm-19.094 36.003v-9.528h.016A38.404 38.404 0 00129 125.163a38.404 38.404 0 0019.078 5.059h.016v9.528c0 10.528-8.566 19.094-19.094 19.094s-19.094-8.566-19.094-19.094zm-34.515 57.017c0-16.048 12.429-29.239 28.165-30.476l19.957 48.365H75.391v-17.889zm107.218 17.889h-48.122l19.957-48.364c15.736 1.236 28.165 14.427 28.165 30.475v17.889z" fill="#1E5DC5"/><path d="M87.508 143.422a3.672 3.672 0 003.665-3.899c-.118-1.962-1.843-3.445-3.809-3.445H72.473a.02.02 0 01-.02-.019v-34.696c10.286-1.104 19.46-6.813 25.024-15.748a3.672 3.672 0 00-6.234-3.882C86.374 89.551 77.978 94.22 68.78 94.22c-14.578 0-26.437-11.86-26.437-26.438s11.86-26.437 26.437-26.437c9.197 0 17.593 4.667 22.461 12.485a3.672 3.672 0 006.234-3.882C91.258 39.962 80.53 34 68.78 34 50.154 34 35 49.154 35 67.781c0 17.387 13.203 31.745 30.11 33.581v38.369a3.691 3.691 0 003.69 3.691h18.708z" fill="#1E5DC5"/><path d="M95.219 67.781c0 .966.392 1.913 1.076 2.596a3.7 3.7 0 002.596 1.076c.965 0 1.913-.393 2.595-1.076a3.695 3.695 0 001.076-2.596c0-.966-.392-1.913-1.076-2.596a3.697 3.697 0 00-2.595-1.076 3.7 3.7 0 00-2.596 1.076 3.698 3.698 0 00-1.076 2.596z" fill="#1E5DC5"/></svg>