<svg width="31" height="31" fill="none" xmlns="http://www.w3.org/2000/svg"><path d="M29.79 17.65A1.21 1.21 0 0031 16.438V8.507a4.85 4.85 0 00-4.844-4.844H4.844A4.85 4.85 0 000 8.507v13.986a4.85 4.85 0 004.844 4.844h21.312A4.85 4.85 0 0031 22.493a1.21 1.21 0 10-2.422 0 2.425 2.425 0 01-2.422 2.422H4.844a2.425 2.425 0 01-2.422-2.422V8.763l10.52 6.542c.79.49 1.674.736 2.558.736.884 0 1.769-.245 2.558-.736l10.52-6.542v7.676c0 .668.542 1.21 1.211 1.21zm-13.011-4.401a2.41 2.41 0 01-2.558 0L3.432 6.538a2.409 2.409 0 011.412-.454h21.312a2.41 2.41 0 011.412.455l-10.79 6.708z" fill="#fff"/></svg>