<svg width="65" height="64" fill="none" xmlns="http://www.w3.org/2000/svg"><g clip-path="url(#clip0_119221:171005)" fill="#1890FF"><path d="M61.133.139h-57.6a3.2 3.2 0 00-3.2 3.2v27.733a3.2 3.2 0 003.2 3.2h57.6a3.2 3.2 0 003.2-3.2V3.339a3.2 3.2 0 00-3.2-3.2zM62.2 31.072c0 .59-.478 1.067-1.067 1.067h-57.6c-.59 0-1.067-.478-1.067-1.067V3.339c0-.59.478-1.067 1.067-1.067h57.6c.59 0 1.067.478 1.067 1.067v27.733z"/><path d="M59 9.739a4.267 4.267 0 01-4.267-4.267c0-.589-.478-1.067-1.067-1.067H11c-.59 0-1.067.478-1.067 1.067A4.267 4.267 0 015.666 9.74c-.589 0-1.066.477-1.066 1.066v12.8c0 .59.477 1.067 1.066 1.067a4.267 4.267 0 014.267 4.267c0 .589.478 1.066 1.067 1.066h42.666c.59 0 1.067-.477 1.067-1.066A4.267 4.267 0 0159 24.672c.589 0 1.066-.477 1.066-1.067v-12.8c0-.589-.477-1.066-1.066-1.066zM11.98 27.872a6.4 6.4 0 00-5.247-5.248v-10.89a6.4 6.4 0 005.248-5.238h13.29a12.8 12.8 0 000 21.333l-13.29.043zM32.334 6.54C38.224 6.539 43 11.314 43 17.205s-4.776 10.667-10.667 10.667-10.667-4.776-10.667-10.667c0-5.89 4.776-10.666 10.667-10.666zm25.6 16.085a6.4 6.4 0 00-5.248 5.248h-13.29a12.8 12.8 0 000-21.333h13.29a6.4 6.4 0 005.248 5.194v10.891z"/><path d="M32.333 22.539a2.133 2.133 0 01-2.133-2.134 1.067 1.067 0 10-2.134 0 4.267 4.267 0 003.2 4.128v1.227a1.067 1.067 0 002.134 0v-1.227a4.267 4.267 0 00-1.067-8.373 2.133 2.133 0 112.133-2.133 1.067 1.067 0 002.134 0 4.267 4.267 0 00-3.2-4.118V8.672a1.067 1.067 0 10-2.134 0v1.216a4.267 4.267 0 001.067 8.384 2.133 2.133 0 110 4.267zM20.066 46.005a1.6 1.6 0 001.6-1.6v-6.4a1.6 1.6 0 00-1.6-1.6h-9.6a1.6 1.6 0 00-1.6 1.6v6.4a1.6 1.6 0 001.6 1.6h9.6zM11 38.54h8.533v5.333h-8.534V38.54zm26.134 11.732a1.6 1.6 0 001.6-1.6V38.005a1.6 1.6 0 00-1.6-1.6h-9.6a1.6 1.6 0 00-1.6 1.6v10.667a1.6 1.6 0 001.6 1.6h9.6zM28.067 38.54H36.6v9.6h-8.533v-9.6zM54.2 36.405h-9.6a1.6 1.6 0 00-1.6 1.6v14.4h-.95a1.6 1.6 0 00-1.184 2.656l7.35 8.267a1.6 1.6 0 002.389 0l7.328-8.267a1.6 1.6 0 00-1.195-2.656h-.939v-14.4a1.6 1.6 0 00-1.6-1.6zm-4.8 25.056l-6.155-6.922h.288a1.6 1.6 0 001.6-1.6v-14.4h8.533v14.4a1.6 1.6 0 001.6 1.6h.288l-6.155 6.922z"/></g><defs><clipPath id="clip0_119221:171005"><path fill="#fff" transform="translate(.333)" d="M0 0h64v64H0z"/></clipPath></defs></svg>