<svg width="128" height="128" fill="none" xmlns="http://www.w3.org/2000/svg"><path d="M103.77 59.22V10.63H110v-2h-6.23v-4H85.38v4H31.44v-4H13.05v4H6.72v2h6.33v106.74H6.72v2h6.33v4h18.39v-4h53.94v4h18.39v-4H110v-2h-6.23V68.79h8.7l15.53 17v-3l-14.65-16h-9.58l-19.65.07L76.93 71v20.8c0 .87-.44 1.45-.73 1.45H42.26v6.2h-6.32V88.89c0-1.52.81-2.58 1.54-2.58h24.19c1.53 0 2.73-1.51 2.73-3.45V79.6l-3.61-4.81v-3.31l3.61-4.81v-5.34l-3.61-4.81v-3.31l3.61-4.81v-3.25c0-1.94-1.21-3.46-2.74-3.46H37.48c-.73 0-1.54-1.06-1.54-2.58V28.55h6.32v6.2H76.2c.29 0 .73.58.73 1.46V57l7.19 4.14 19.65.07h9.58l14.65-16v-3l-15.53 17-8.7.01zM85.38 10.63v7.14H31.44v-7.14h53.94zM31.44 117.37v-7.14h53.94v7.14H31.44zM76.2 95.25c1.53 0 2.73-1.52 2.73-3.45V72.16l5.73-3.3 17.11-.07v52.54H87.38v-13.1H62.69v-13l13.51.02zm-31.94-62.5v-6.2H33.94v12.56c0 2.57 1.56 4.58 3.54 4.58h24.18c.29 0 .74.61.74 1.46v2.58l-3.61 4.81v4.65L62.4 62v4l-3.61 4.81v4.65l3.61 4.81v2.59c0 .87-.44 1.45-.73 1.45H37.48c-2 0-3.54 2-3.54 4.58v12.56h10.32v-6.2h16.43v13H29.44v13.1H15.05V6.67h14.39v13.1h31.25v13l-16.43-.02zm34.67 23.1V36.21c0-1.94-1.2-3.46-2.73-3.46H62.69v-13h24.69V6.67h14.39v52.54l-17.11-.05-5.73-3.31z" fill="#1890FF"/></svg>