<svg width="200" height="200" fill="none" xmlns="http://www.w3.org/2000/svg"><path d="M190.647 159.826a12.353 12.353 0 00-6.746-6.926 12.133 12.133 0 00-9.492 0l-21.98 9.333c.058-.406.096-.814.111-1.224 0-6.553-5.312-11.865-11.864-11.865H114.38a17.246 17.246 0 01-7.661-1.807 79.673 79.673 0 00-35.419-8.363h-1.813a3.39 3.39 0 000 6.78H71.3a72.79 72.79 0 0132.388 7.648 24.03 24.03 0 0010.692 2.522h26.296a5.085 5.085 0 011.122 10.038c-.444.04-.882.132-1.333.132H99.996a3.39 3.39 0 000 6.78h40.68c.067 0 .132-.021.203-.021a20.966 20.966 0 007.824-1.654l28.34-12.034a5.369 5.369 0 014.234 0 5.598 5.598 0 013.051 3.156 5.796 5.796 0 01-.092 4.508 5.585 5.585 0 01-3.135 3.004L128.733 189.8a51.87 51.87 0 01-38.144-.414l-27.882-11.59v-38.822a3.39 3.39 0 00-3.39-3.39h-27.12a3.39 3.39 0 00-3.39 3.39h-16.95a3.39 3.39 0 000 6.78h16.95v16.95a3.39 3.39 0 006.78 0v-20.34h20.34v40.679h-20.34v-6.779a3.39 3.39 0 10-6.78 0v3.39h-16.95a3.39 3.39 0 100 6.779h16.95a3.39 3.39 0 003.39 3.39h27.12a3.39 3.39 0 003.39-3.39v-1.291l25.31 10.509a58.687 58.687 0 0043.14.474l52.364-19.967a12.327 12.327 0 006.926-6.6 12.544 12.544 0 00.2-9.732zm-2.658-133.628v-.119a3.332 3.332 0 00-.597-1.068c-.078-.098-.169-.17-.254-.257a3.478 3.478 0 00-.654-.516 3.718 3.718 0 00-.387-.196 2.992 2.992 0 00-.305-.153L111.213.16a3.392 3.392 0 00-2.054 0L34.58 23.89a3.39 3.39 0 00-2.383 3.217v81.359a3.39 3.39 0 002.373 3.231l74.579 23.729a3.396 3.396 0 002.054 0l74.579-23.729a3.391 3.391 0 002.353-3.231v-81.36a3.374 3.374 0 00-.146-.908zM110.166 6.936l63.392 20.17-13.112 4.173-63.389-20.173 13.109-4.17zm-24.292 7.73l63.392 20.17-13.109 4.172-63.392-20.17 13.109-4.173zm95.481 91.317l-67.799 21.574v-12.312a3.39 3.39 0 00-6.78 0v12.312l-67.799-21.57V29.584l22.6-7.19 63.393 20.174-14.804 4.708L53.554 29.27a3.39 3.39 0 10-2.054 6.46l55.276 17.584v48.371a3.39 3.39 0 006.78 0V53.314l19.211-6.102v22.489a3.39 3.39 0 003.39 3.39 3.469 3.469 0 001.017-.16l7.908-2.522a3.39 3.39 0 10-2.054-6.46l-3.492 1.111v-20l17.513-5.574v20.001l-3.851 1.224a3.39 3.39 0 001.017 6.62 3.31 3.31 0 001.017-.159l6.217-1.976a3.39 3.39 0 002.373-3.231V37.317l17.533-5.573v74.239z" fill="#1890FF"/><path d="M49.147 84.735a3.39 3.39 0 00-3.39 3.39v10.17a3.39 3.39 0 006.78 0v-10.17a3.39 3.39 0 00-3.39-3.39zm13.56 3.39a3.39 3.39 0 00-3.39 3.39v10.17a3.39 3.39 0 006.78 0v-10.17a3.39 3.39 0 00-3.39-3.39z" fill="#1890FF"/></svg>