<svg width="228" height="252" fill="none" xmlns="http://www.w3.org/2000/svg"><path d="M44.17 25.922C94.364 25.922 128.832 0 153.018 0 177.204 0 228 13.862 228 124.792S159.665 252 133.063 252C8.49 252.007-44.722 25.922 44.17 25.922z" fill="#F4F8FF"/><path d="M165.933 36.263l4.125-4.125 8.249 8.25-4.124 4.125-8.25-8.25zm23.714 23.718l4.125-4.125 8.25 8.25-4.125 4.125-8.25-8.25zm-1.025-19.591l8.25-8.25 4.124 4.125-8.249 8.25-4.125-4.125z" fill="#D2DFF4"/><path d="M167.958 179.958H60.042c-6.446 0-11.667-5.221-11.667-11.666v-87.5h131.25v87.5c0 6.445-5.221 11.666-11.667 11.666z" fill="#D0DFF9"/><path d="M179.625 80.792H48.375v-8.75c0-6.446 5.22-11.667 11.667-11.667h107.916c6.446 0 11.667 5.22 11.667 11.667v8.75zm-63.881 28.367l3.827-1.738a4.21 4.21 0 015.687 2.357l1.476 3.937a4.222 4.222 0 002.468 2.468l3.937 1.475a4.213 4.213 0 012.357 5.688l-1.738 3.827a4.227 4.227 0 000 3.488l1.738 3.827a4.21 4.21 0 01-2.357 5.687l-3.937 1.476a4.223 4.223 0 00-2.468 2.467l-1.476 3.938a4.211 4.211 0 01-5.687 2.357l-3.827-1.739a4.235 4.235 0 00-3.488 0l-3.827 1.739a4.21 4.21 0 01-5.687-2.357l-1.476-3.938a4.224 4.224 0 00-2.468-2.467l-3.937-1.476a4.212 4.212 0 01-2.357-5.687l1.739-3.827a4.23 4.23 0 000-3.488l-1.739-3.827a4.211 4.211 0 012.357-5.688l3.937-1.475a4.225 4.225 0 002.468-2.468l1.476-3.937a4.212 4.212 0 015.687-2.357l3.827 1.738a4.227 4.227 0 003.488 0z" fill="#2FDF84"/><path d="M127.125 143.558v48.067L114 179.958l-13.125 11.667v-48.067h26.25z" fill="#2FDF84"/><path d="M73.167 60.375H60.042c-6.446 0-11.667 5.22-11.667 11.667v8.75H61.5v-8.75c0-6.446 5.22-11.667 11.667-11.667zm42.7 87.681l-1.476-3.938a4.223 4.223 0 00-2.468-2.467l-3.937-1.476a4.212 4.212 0 01-2.357-5.687l1.739-3.827a4.235 4.235 0 000-3.488l-1.739-3.827a4.211 4.211 0 012.357-5.688l3.937-1.475a4.224 4.224 0 002.468-2.468l1.476-3.937c.14-.368.385-.648.601-.945l-.724.326a4.227 4.227 0 01-3.488 0l-3.827-1.738a4.21 4.21 0 00-5.687 2.357l-1.476 3.937a4.223 4.223 0 01-2.468 2.468l-3.937 1.475a4.213 4.213 0 00-2.357 5.688l1.739 3.827a4.23 4.23 0 010 3.488l-1.739 3.827a4.21 4.21 0 002.357 5.687l3.937 1.476a4.223 4.223 0 012.468 2.467l1.476 3.938a4.212 4.212 0 005.687 2.357l3.827-1.739a4.235 4.235 0 013.488 0l.724.327c-.222-.298-.467-.578-.601-.945z" fill="#00D2A0"/><path d="M114 143.558h-13.125v48.067L114 179.958v-36.4z" fill="#00D2A0"/><path d="M61.5 168.292v-87.5H48.375v87.5c0 6.445 5.22 11.666 11.667 11.666h13.125c-6.446 0-11.667-5.221-11.667-11.666z" fill="#BCCFEE"/><path d="M106.685 155.161a8.644 8.644 0 01-3.284-.648 8.6 8.6 0 01-4.754-4.923l-1.476-3.932-3.844-1.382a8.627 8.627 0 01-4.918-4.754 8.624 8.624 0 01.117-6.837l1.744-3.833-1.738-3.692a8.651 8.651 0 01-.117-6.848 8.632 8.632 0 014.918-4.749l3.931-1.476 1.389-3.844a8.594 8.594 0 014.742-4.911 8.672 8.672 0 016.848.11l3.757 1.704 3.763-1.709a8.651 8.651 0 016.848-.117 8.634 8.634 0 014.748 4.917l1.476 3.932 3.844 1.388a8.596 8.596 0 014.912 4.743 8.627 8.627 0 01-.111 6.848l-1.744 3.833 1.738 3.692a8.64 8.64 0 01.117 6.843 8.615 8.615 0 01-4.912 4.754l-3.943 1.476-1.383 3.844a8.585 8.585 0 01-4.754 4.917 8.623 8.623 0 01-6.848-.122l-3.821-1.738-3.698 1.738a8.42 8.42 0 01-3.547.776zm-.07-43.756l-1.26 3.85a8.564 8.564 0 01-5.028 5.022l-3.932 1.476 1.826 3.611a8.625 8.625 0 010 7.105l-1.744 3.833 3.844 1.26a8.594 8.594 0 015.028 5.022l1.476 3.938 3.611-1.826a8.61 8.61 0 017.099-.006l3.833 1.744 1.26-3.844a8.566 8.566 0 015.028-5.023l3.937-1.475-1.831-3.611a8.61 8.61 0 010-7.099l1.744-3.839-3.85-1.26a8.568 8.568 0 01-5.023-5.028l-1.475-3.932-3.611 1.826h-.006a8.596 8.596 0 01-7.093 0l-3.833-1.744z" fill="#1E5DC5"/><path d="M127.125 196a4.38 4.38 0 01-2.905-1.103L114 185.815l-10.22 9.082a4.394 4.394 0 01-4.696.724 4.386 4.386 0 01-2.584-3.996v-48.067h8.75v38.325l5.845-5.197a4.378 4.378 0 015.81 0l5.845 5.197v-38.325h8.75v48.067a4.386 4.386 0 01-2.584 3.996 4.404 4.404 0 01-1.791.379z" fill="#1E5DC5"/><path d="M167.958 184.333h-24.791v-8.75h24.791c4.02 0 7.292-3.272 7.292-7.291v-96.25c0-4.02-3.272-7.292-7.292-7.292H60.042c-4.02 0-7.292 3.272-7.292 7.292v96.25c0 4.019 3.273 7.291 7.292 7.291h24.791v8.75H60.042c-8.85 0-16.042-7.192-16.042-16.041v-96.25C44 63.192 51.193 56 60.042 56h107.916C176.808 56 184 63.193 184 72.042v96.25c0 8.849-7.192 16.041-16.042 16.041z" fill="#1E5DC5"/><path d="M48.375 76.417h131.25v8.75H48.375v-8.75z" fill="#1E5DC5"/></svg>