<svg width="259" height="233" fill="none" xmlns="http://www.w3.org/2000/svg"><path d="M232.359 187.861c0-51.294 26.641-86.518 26.641-111.235C259 51.91 244.754 0 130.745 0 16.737 0 0 69.833 0 97.02c0 127.304 232.359 181.683 232.359 90.841z" fill="#F4F8FF"/><path d="M51.5 35C45.16 35 40 29.84 40 23.5S45.16 12 51.5 12 63 17.16 63 23.5 57.84 35 51.5 35zm0-15.333a3.84 3.84 0 00-3.833 3.833 3.84 3.84 0 003.833 3.833 3.84 3.84 0 003.833-3.833 3.84 3.84 0 00-3.833-3.833z" fill="#D2DFF4"/><path d="M163.521 183.063h26.625v-47.334a2.96 2.96 0 00-2.959-2.958h-20.708a2.959 2.959 0 00-2.958 2.958v47.334zm-44.375-73.959a2.959 2.959 0 00-2.958 2.958v71h26.624v-71a2.959 2.959 0 00-2.958-2.958h-20.708zm-50.292 73.958h26.625V88.396a2.96 2.96 0 00-2.958-2.959H71.812a2.96 2.96 0 00-2.958 2.959v94.666z" fill="#D0DFF9"/><path d="M196.063 55.854V82.48c0 3.254-2.663 5.917-5.917 5.917h-19.229l-19.229 17.75v-17.75h-11.834c-3.254 0-5.916-2.663-5.916-5.917V55.854c0-3.254 2.662-5.916 5.916-5.916h50.292c3.254 0 5.917 2.662 5.917 5.916z" fill="#00D2A0"/><path d="M147.25 82.48V55.853c0-3.254 2.662-5.916 5.917-5.916h-13.313c-3.254 0-5.916 2.662-5.916 5.916V82.48c0 3.254 2.662 5.917 5.916 5.917h11.833s-4.437-2.663-4.437-5.917z" fill="#00B58A"/><path d="M179.792 132.771h-13.313a2.959 2.959 0 00-2.958 2.958v47.334h13.312v-47.334a2.96 2.96 0 012.959-2.958zm-47.334-23.667h-13.312a2.96 2.96 0 00-2.958 2.959v71H129.5v-71a2.96 2.96 0 012.958-2.959zM85.125 85.438H71.812a2.96 2.96 0 00-2.958 2.958v94.666h13.313V88.396a2.96 2.96 0 012.958-2.959z" fill="#BCCFEE"/><path d="M58.5 178.625h142v8.875h-142v-8.875z" fill="#1E5DC5"/><path d="M190.146 187.5h-26.625a4.44 4.44 0 01-4.438-4.437v-47.334c0-4.076 3.319-7.396 7.396-7.396h20.708c4.077 0 7.396 3.32 7.396 7.396v47.334a4.439 4.439 0 01-4.437 4.437zm-22.188-8.875h17.75v-41.417h-17.75v41.417zm-25.146 8.875h-26.625a4.439 4.439 0 01-4.437-4.437v-71c0-4.077 3.319-7.396 7.396-7.396h15.028v8.875h-13.549v65.083h17.75V121.47h8.875v61.593a4.44 4.44 0 01-4.438 4.437zm-47.333 0H68.854a4.439 4.439 0 01-4.438-4.437V88.396c0-4.077 3.32-7.396 7.396-7.396h20.709c4.076 0 7.395 3.32 7.395 7.396v94.667a4.439 4.439 0 01-4.437 4.437zm-22.188-8.875h17.75v-88.75h-17.75v88.75zm78.397-68.042a4.476 4.476 0 01-1.781-.372 4.447 4.447 0 01-2.657-4.065V92.833h-7.396c-5.709 0-10.354-4.644-10.354-10.354V55.854c0-5.71 4.645-10.354 10.354-10.354h50.292c5.709 0 10.354 4.645 10.354 10.354V82.48c0 5.71-4.645 10.354-10.354 10.354H172.65l-17.951 16.573a4.43 4.43 0 01-3.011 1.177zm-11.834-56.208c-.805 0-1.479.675-1.479 1.48v26.624c0 .805.674 1.48 1.479 1.48h11.834a4.439 4.439 0 014.437 4.437v7.615l11.78-10.875a4.45 4.45 0 013.012-1.178h19.229c.804 0 1.479-.674 1.479-1.479V55.854c0-.804-.675-1.479-1.479-1.479h-50.292z" fill="#1E5DC5"/></svg>