<svg width="191" height="71" fill="none" xmlns="http://www.w3.org/2000/svg"><path fill-rule="evenodd" clip-rule="evenodd" d="M30.768 6.281a1.417 1.417 0 110 2.831c-.784 0-1.42-.633-1.42-1.415s.636-1.416 1.42-1.416zm-6.073 23.99a1.89 1.89 0 011.894 1.887 1.89 1.89 0 01-1.893 1.887 1.89 1.89 0 01-1.894-1.887 1.89 1.89 0 011.893-1.887zm0-6.517c.785 0 1.42.633 1.42 1.415 0 .781-.635 1.416-1.42 1.416-.784 0-1.42-.635-1.42-1.416 0-.782.636-1.415 1.42-1.415zm6.073 3.493c.785 0 1.42.634 1.42 1.416 0 .782-.635 1.416-1.42 1.416-.784 0-1.42-.634-1.42-1.416 0-.782.636-1.416 1.42-1.416zm6.072-3.493c.785 0 1.42.633 1.42 1.415 0 .781-.635 1.416-1.42 1.416-.784 0-1.42-.635-1.42-1.416 0-.782.636-1.415 1.42-1.415zm-6.072-3.495a1.417 1.417 0 110 2.831c-.784 0-1.42-.634-1.42-1.416 0-.782.636-1.415 1.42-1.415zM24.695 9.775c.785 0 1.42.634 1.42 1.415 0 .783-.635 1.416-1.42 1.416-.784 0-1.42-.633-1.42-1.415s.636-1.416 1.42-1.416zm-6.072 3.495c.784 0 1.42.634 1.42 1.415 0 .782-.636 1.416-1.42 1.416-.784 0-1.42-.634-1.42-1.415 0-.782.636-1.416 1.42-1.416zm-6.073 3.494a1.417 1.417 0 110 2.831c-.784 0-1.42-.633-1.42-1.415s.636-1.416 1.42-1.416zm0 6.99c.785 0 1.42.633 1.42 1.415 0 .781-.635 1.416-1.42 1.416-.784 0-1.42-.635-1.42-1.416 0-.782.636-1.415 1.42-1.415zm0 6.988c.785 0 1.42.634 1.42 1.416 0 .781-.635 1.415-1.42 1.415-.784 0-1.42-.634-1.42-1.415 0-.782.636-1.416 1.42-1.416zm0 6.989c.785 0 1.42.633 1.42 1.416 0 .781-.635 1.415-1.42 1.415-.784 0-1.42-.634-1.42-1.415 0-.783.636-1.416 1.42-1.416zm0 6.989a1.417 1.417 0 110 2.831c-.784 0-1.42-.634-1.42-1.416 0-.782.636-1.415 1.42-1.415zm0 6.989a1.417 1.417 0 110 2.831c-.784 0-1.42-.634-1.42-1.416 0-.782.636-1.416 1.42-1.416zm6.073 3.494c.784 0 1.42.634 1.42 1.416 0 .781-.636 1.415-1.42 1.415-.784 0-1.42-.634-1.42-1.415 0-.782.636-1.416 1.42-1.416zm6.072-3.495c.785 0 1.42.634 1.42 1.416 0 .782-.635 1.416-1.42 1.416-.784 0-1.42-.634-1.42-1.416 0-.782.636-1.416 1.42-1.416zm0-6.988a1.417 1.417 0 110 2.831c-.784 0-1.42-.634-1.42-1.416 0-.782.636-1.415 1.42-1.415zm6.073 3.495c.785 0 1.42.633 1.42 1.415 0 .781-.635 1.415-1.42 1.415-.784 0-1.42-.634-1.42-1.415 0-.782.636-1.415 1.42-1.415zm6.072 3.493c.785 0 1.42.634 1.42 1.416 0 .782-.635 1.416-1.42 1.416-.784 0-1.42-.634-1.42-1.416 0-.782.636-1.416 1.42-1.416zm6.073 3.495c.785 0 1.42.634 1.42 1.416 0 .781-.635 1.415-1.42 1.415-.784 0-1.42-.634-1.42-1.415 0-.782.636-1.416 1.42-1.416zm6.073-3.495c.784 0 1.42.634 1.42 1.416 0 .782-.636 1.416-1.42 1.416-.784 0-1.42-.634-1.42-1.416 0-.782.636-1.416 1.42-1.416zm0-6.988c.784 0 1.42.633 1.42 1.415s-.636 1.416-1.42 1.416c-.784 0-1.42-.634-1.42-1.416 0-.782.636-1.415 1.42-1.415zm-6.073-3.495c.785 0 1.42.634 1.42 1.416 0 .781-.635 1.415-1.42 1.415-.784 0-1.42-.634-1.42-1.415 0-.782.636-1.416 1.42-1.416zm-6.072-3.494c.784 0 1.42.633 1.42 1.416 0 .781-.636 1.415-1.42 1.415-.785 0-1.42-.634-1.42-1.415 0-.783.635-1.416 1.42-1.416zm6.072-3.494c.785 0 1.42.634 1.42 1.416 0 .78-.635 1.414-1.42 1.414-.784 0-1.42-.633-1.42-1.414 0-.782.636-1.416 1.42-1.416zm6.073-3.495c.784 0 1.42.634 1.42 1.416 0 .781-.636 1.415-1.42 1.415-.784 0-1.42-.634-1.42-1.415 0-.782.636-1.416 1.42-1.416zm0-6.988c.784 0 1.42.633 1.42 1.415 0 .781-.636 1.416-1.42 1.416-.784 0-1.42-.635-1.42-1.416 0-.782.636-1.415 1.42-1.415zm0-6.99c.784 0 1.42.634 1.42 1.416 0 .782-.636 1.415-1.42 1.415-.784 0-1.42-.633-1.42-1.415s.636-1.416 1.42-1.416zm-6.073-3.494c.785 0 1.42.634 1.42 1.415 0 .782-.635 1.416-1.42 1.416-.784 0-1.42-.634-1.42-1.415 0-.782.636-1.416 1.42-1.416zM36.84 9.775c.784 0 1.42.634 1.42 1.415 0 .783-.636 1.416-1.42 1.416a1.417 1.417 0 110-2.831zm6.072 37.496a2.363 2.363 0 012.367 2.359c0 1.303-1.06 2.36-2.367 2.36a2.363 2.363 0 01-2.366-2.36 2.363 2.363 0 012.367-2.36zm-6.072-3.495a2.363 2.363 0 012.366 2.36 2.363 2.363 0 01-2.367 2.358 2.363 2.363 0 01-2.366-2.359 2.363 2.363 0 012.367-2.359zm-6.073-3.495a2.363 2.363 0 012.367 2.36A2.363 2.363 0 0130.77 45a2.363 2.363 0 01-2.368-2.36 2.364 2.364 0 012.367-2.359zm-12.145 6.99a2.363 2.363 0 012.367 2.359c0 1.303-1.06 2.36-2.367 2.36a2.363 2.363 0 01-2.367-2.36 2.363 2.363 0 012.367-2.36zm0-6.99a2.363 2.363 0 012.367 2.36A2.363 2.363 0 0118.623 45a2.363 2.363 0 01-2.367-2.36 2.364 2.364 0 012.367-2.359zm0-6.988a2.363 2.363 0 012.367 2.36 2.363 2.363 0 01-2.367 2.358 2.363 2.363 0 01-2.367-2.359 2.363 2.363 0 012.367-2.359zm0-6.989a2.363 2.363 0 012.367 2.36 2.363 2.363 0 01-2.367 2.358 2.363 2.363 0 01-2.367-2.359 2.363 2.363 0 012.367-2.359zm6.072 10.483a2.363 2.363 0 012.368 2.36 2.363 2.363 0 01-2.367 2.358 2.363 2.363 0 01-2.367-2.358c0-1.304 1.06-2.36 2.366-2.36zm6.073-3.494a2.363 2.363 0 012.367 2.36 2.363 2.363 0 01-2.366 2.358 2.363 2.363 0 01-2.368-2.359 2.363 2.363 0 012.367-2.359zM36.84 29.8a2.363 2.363 0 012.367 2.359 2.363 2.363 0 01-2.367 2.359 2.363 2.363 0 01-2.366-2.36A2.363 2.363 0 0136.84 29.8zm6.073-3.495a2.363 2.363 0 012.367 2.36 2.363 2.363 0 01-2.367 2.358 2.363 2.363 0 01-2.367-2.359 2.363 2.363 0 012.367-2.359zm0-6.989a2.363 2.363 0 012.367 2.36 2.363 2.363 0 01-2.367 2.358 2.363 2.363 0 01-2.366-2.359 2.363 2.363 0 012.367-2.359zm-6.072-3.494a2.363 2.363 0 012.366 2.359c0 1.303-1.06 2.36-2.367 2.36a2.363 2.363 0 01-2.366-2.36 2.363 2.363 0 012.367-2.36zm-6.073-3.494a2.363 2.363 0 012.367 2.358 2.363 2.363 0 01-2.366 2.36 2.363 2.363 0 01-2.368-2.36 2.363 2.363 0 012.367-2.358zm-6.073 3.494a2.363 2.363 0 012.368 2.359c0 1.303-1.06 2.36-2.367 2.36a2.363 2.363 0 01-2.367-2.36 2.363 2.363 0 012.366-2.36zm36.436 36.9a.404.404 0 11.002.808.404.404 0 01-.002-.809zm0-6.99a.404.404 0 11.002.809.404.404 0 01-.002-.809zm0-6.988a.404.404 0 11.002.808.404.404 0 01-.002-.808zm0-6.989a.404.404 0 11.002.809.404.404 0 01-.002-.809zm0-6.989a.404.404 0 11.002.809.404.404 0 01-.002-.809zm0-6.989a.404.404 0 11.002.809.404.404 0 01-.002-.809zM30.768 70.193a.404.404 0 11.001.808.404.404 0 010-.808zm-6.073-3.495a.404.404 0 11.002.809.404.404 0 01-.002-.809zm12.145 0a.404.404 0 11.002.809.404.404 0 01-.002-.809zm-6.072-3.494a.404.404 0 11.002.808.404.404 0 01-.002-.808zm18.218-3.799a.71.71 0 11-.71.708.71.71 0 01.71-.708zm-12.146 0a.71.71 0 11.002 1.418.71.71 0 01-.002-1.418zm18.218-3.495a.71.71 0 01.71.709.71.71 0 01-1.42 0 .71.71 0 01.71-.709zm0-6.988a.709.709 0 11.002 1.418.709.709 0 01-.001-1.418zm0-6.99a.71.71 0 01.71.708.71.71 0 01-1.42 0c0-.39.318-.707.71-.707zm0-6.988a.709.709 0 110 1.416.709.709 0 110-1.416zm0-6.989a.709.709 0 110 1.415.708.708 0 110-1.415zm0-6.989a.708.708 0 110 1.416.709.709 0 110-1.416zm0-6.989a.71.71 0 01.71.708.71.71 0 01-1.42 0 .71.71 0 01.71-.708zm-6.072 24.461a.709.709 0 110 1.416.709.709 0 110-1.416zm0-27.955a.709.709 0 110 1.415.709.709 0 110-1.415zm-6.073-3.495a.71.71 0 11.002 1.418.71.71 0 01-.002-1.418zM36.84 3.494a.709.709 0 110 1.415.708.708 0 110-1.415zM30.768 0a.709.709 0 110 1.415.709.709 0 110-1.415zm-6.073 3.494a.709.709 0 11-.71.708.71.71 0 01.71-.708zm-6.072 3.494a.71.71 0 01.71.708.71.71 0 01-1.42 0 .71.71 0 01.71-.708zm-6.073 3.495a.709.709 0 110 1.415.709.709 0 110-1.415zm-6.073 3.494a.71.71 0 11.002 1.419.71.71 0 01-.002-1.419zm0 6.99a.709.709 0 110 1.415.709.709 0 110-1.416zm0 6.988a.709.709 0 110 1.415.708.708 0 110-1.415zm0 6.99a.709.709 0 110 1.415.709.709 0 110-1.416zm0 6.988a.709.709 0 11.003 1.418.709.709 0 01-.003-1.418zm0 6.989a.71.71 0 11.003 1.418.71.71 0 01-.002-1.418zm0 6.989a.709.709 0 110 1.416.708.708 0 110-1.416zm6.073 3.494a.709.709 0 110 1.416.709.709 0 110-1.416zm6.073 3.495c.392 0 .71.316.71.707a.71.71 0 01-1.42 0c0-.39.318-.707.71-.707zm6.072-3.495a.709.709 0 11.002 1.418.709.709 0 01-.002-1.418zm6.073-3.495a.709.709 0 110 1.416.709.709 0 110-1.416zm12.145 6.99a.708.708 0 110 1.415.709.709 0 110-1.415zM.405 52.72a.404.404 0 11.002.809.404.404 0 01-.002-.809zm0-6.989a.404.404 0 11.001.809.404.404 0 01-.001-.809zm0-6.988a.404.404 0 11.002.808.404.404 0 01-.002-.808zm0-6.989a.404.404 0 11.002.809.404.404 0 01-.002-.809zm0-6.989a.404.404 0 11.002.809.404.404 0 01-.002-.809zm18.218-5.45a2.363 2.363 0 012.367 2.36 2.363 2.363 0 01-2.367 2.359 2.363 2.363 0 01-2.367-2.36 2.363 2.363 0 012.367-2.358zM.405 17.776a.404.404 0 11.001.809.404.404 0 01-.001-.809z" fill="#2780EB"/><path d="M167.684 40.461h3.707v-6.157l1.073-.843 6.21 7h4.715l-8.097-9.43 7.706-7.421h-4.779l-6.828 6.643V17.776h-3.707v22.685zm-42.263.292c-4.96 0-7.722-2.366-7.722-7.55v-9.69h3.706v9.333c0 2.462 1.09 4.51 4.016 4.51 2.694 0 4.016-1.217 4.016-4.51v-9.334h3.706v9.69c0 4.935-2.762 7.55-7.722 7.55zm-43.91-.292v-8.328h4.812l6.21 8.328h4.78l-6.829-9.074c3.025-.875 5.008-3.435 5.008-6.546 0-3.63-1.886-7.065-8.974-7.065h-8.942v22.685h3.934zm4.909-18.99c3.837 0 4.975 1.393 4.975 3.37 0 2.236-1.789 3.597-4.78 3.597H81.51v-6.967h4.91zm10.6 10.532c0 5.055 3.772 8.75 9.039 8.75 5.332 0 9.071-3.695 9.071-8.75 0-5.088-3.739-8.782-9.071-8.782-5.365 0-9.04 3.694-9.04 8.782zm3.836 0c0-3.305 2.244-5.347 5.203-5.347 2.926 0 5.234 2.074 5.234 5.347 0 3.24-2.146 5.314-5.234 5.314-3.089 0-5.203-2.267-5.203-5.314zm36.933 2.593c0 4.018 2.113 6.06 5.332 6.06 1.825 0 3.426-.75 4.466-1.847l-1.899-2.563c-.53.547-1.19.974-2.014.974-1.528 0-2.179-.94-2.179-3.661v-6.514h3.786v-3.436h-3.786v-5.833h-3.706v5.834h-2.033v3.435h2.033v7.55zm23.755 1.08a5.701 5.701 0 01-4.005 1.641c-2.796 0-4.974-1.36-5.267-4.017h12.551c.13-1.005.195-1.815.195-2.366 0-4.667-3.382-7.713-7.934-7.713-5.658 0-8.681 3.856-8.681 8.782 0 5.314 3.641 8.75 9.071 8.75 2.33 0 4.383-.806 6.002-2.438l-1.932-2.639zm-4.622-9.117c2.373 0 3.966 1.199 4.259 3.532h-8.877c.488-2.171 2.114-3.532 4.618-3.532z" fill="#fff"/><path fill-rule="evenodd" clip-rule="evenodd" d="M188.258 40.465A2.737 2.737 0 00191 37.732 2.737 2.737 0 00188.258 35a2.737 2.737 0 00-2.741 2.732 2.737 2.737 0 002.741 2.733z" fill="#2780EB"/><path d="M77.55 50.642c0 1.714 1.333 2.984 2.987 2.984a2.944 2.944 0 002.978-2.984c0-1.715-1.324-2.985-2.978-2.985a2.956 2.956 0 00-2.986 2.985zm1.333 0c0-1.072.777-1.748 1.654-1.748.844 0 1.646.676 1.646 1.748 0 1.071-.736 1.748-1.646 1.748-.877 0-1.654-.677-1.654-1.748zm6.7 2.885v-1.97h.918l1.414 1.97h1.547l-1.613-2.201a1.802 1.802 0 001.133-1.69c0-.956-.496-1.88-2.34-1.88H84.3v5.771h1.282zm1.034-4.575c.818 0 1.033.272 1.033.684 0 .462-.355.725-.984.725h-1.083v-1.41h1.034zm3.382 4.575h1.713c2.432 0 3.457-1.31 3.457-2.96 0-1.508-.852-2.81-3.333-2.81h-1.837v5.77zm1.82-4.575c1.506 0 2.027.643 2.027 1.615 0 1.072-.58 1.765-2.027 1.765h-.537v-3.38h.537zm4.136 4.575h4.5v-1.195h-3.218v-1.154h2.937v-1.155h-2.937v-1.071h3.143v-1.196h-4.425v5.771zm6.651 0v-1.97h.918l1.414 1.97h1.547l-1.613-2.201a1.802 1.802 0 001.133-1.69c0-.956-.496-1.88-2.341-1.88h-2.341v5.771h1.283zm1.034-4.575c.818 0 1.033.272 1.033.684 0 .462-.355.725-.984.725h-1.083v-1.41h1.034zm11.365 4.575a10.503 10.503 0 01-1.407-1.286c.645-.684.96-1.92.96-2.836h-1.232c0 .816-.232 1.443-.571 1.847-.414-.437-.687-.759-.852-1.03.554-.364.934-.907.934-1.402 0-.676-.446-1.138-1.563-1.138-1.051 0-1.522.569-1.522 1.154 0 .388.157.742.488 1.163-.843.478-1.58.997-1.58 1.962 0 .956.861 1.64 2.308 1.64.918 0 1.414-.337 1.795-.618.198.181.323.314.645.544h1.597zm-3.987-1.08c-.745 0-.993-.37-.993-.618 0-.264.157-.429.877-.857.248.321.587.66.984 1.137-.14.165-.471.338-.868.338zm.058-3.446c0-.165.041-.247.223-.247.157 0 .215.107.215.247s-.074.28-.232.38c-.091-.091-.206-.256-.206-.38zm6.327 4.526h4.5v-1.195h-3.218v-1.154h2.937v-1.155h-2.937v-1.071h3.143v-1.196h-4.425v5.771zm5.369 0h1.282v-2.119h2.895v-1.195h-2.895v-1.261h3.102v-1.196h-4.384v5.771zm5.128 0h1.282v-2.119h2.895v-1.195h-2.895v-1.261h3.102v-1.196H127.9v5.771zm5.128 0h4.5v-1.195h-3.217v-1.154h2.936v-1.155h-2.936v-1.071h3.142v-1.196h-4.425v5.771zm9.744-1.904a1.992 1.992 0 01-1.596.767c-1.001 0-1.737-.71-1.737-1.748 0-1.072.72-1.748 1.753-1.748.472 0 1.035.223 1.382.651l.868-.791c-.413-.652-1.282-1.097-2.341-1.097-1.795 0-2.994 1.336-2.994 2.985 0 1.789 1.158 2.984 2.961 2.984 1.026 0 1.944-.429 2.465-1.187l-.761-.816zm1.01-2.671h1.852v4.575h1.282v-4.575h1.862v-1.196h-4.996v1.196zm5.575 4.575h1.282v-5.77h-1.282v5.77zm7.982-5.77h-1.381l-1.646 3.825-1.762-3.826h-1.415l2.722 5.771h.893l2.589-5.77zm.455 5.77h4.499v-1.195h-3.217v-1.154h2.936v-1.155h-2.936v-1.071h3.143v-1.196h-4.425v5.771zm10.414 0v-5.77h-1.249v3.429l-2.813-3.43h-.984v5.771h1.249v-3.421l2.804 3.421h.993zm1.075 0h4.5v-1.195h-3.218v-1.154h2.937v-1.155h-2.937v-1.071h3.143v-1.196h-4.425v5.771zm8.379-1.6c0 .29-.256.537-.901.537-.712 0-1.332-.38-1.712-.99l-.935.775c.397.75 1.282 1.41 2.68 1.41 1.249 0 2.192-.783 2.192-1.83 0-2.086-3.226-1.583-3.226-2.465 0-.33.273-.544.868-.544.646 0 1.125.33 1.456.693l.861-.825c-.497-.66-1.283-1.064-2.267-1.064-1.373 0-2.242.841-2.242 1.756 0 2.094 3.226 1.542 3.226 2.548zm5.121 0c0 .29-.257.537-.902.537-.711 0-1.332-.38-1.712-.99l-.935.775c.397.75 1.282 1.41 2.68 1.41 1.249 0 2.192-.783 2.192-1.83 0-2.086-3.226-1.583-3.226-2.465 0-.33.273-.544.869-.544.645 0 1.125.33 1.456.693l.86-.825c-.497-.66-1.282-1.064-2.267-1.064-1.373 0-2.241.841-2.241 1.756 0 2.094 3.226 1.542 3.226 2.548z" fill="#fff"/></svg>