<svg width="129" height="128" fill="none" xmlns="http://www.w3.org/2000/svg"><path d="M19.423 128h2v-27.65h23.55l15 15c.437.442.94.813 1.49 1.1a6.261 6.261 0 007.36-1.1l15-15h23.51V128h2V98.35h-23.53l25-25-9-9-17.24 17.17V0h-2v83.52l-18.17 18.18-4.31-4.31a41.91 41.91 0 00-.25-63.45V0h-2v34.87l.36.3a39.891 39.891 0 01.46 60.83l-15.11-15.15 17.22-17.23-9-9-21.86 21.8a6.24 6.24 0 000 8.85l13.07 13.08h-23.55V128zm11.91-44.14a4.26 4.26 0 010-6l20.4-20.44 6.2 6.2-15.88 15.88a1.91 1.91 0 000 2.69l14.63 14.63 6.36 6.36c.092.089.193.169.3.24.31.208.676.319 1.05.32.5-.02.975-.218 1.34-.56l18.83-18.83 17.19-17.18 6.2 6.2-40.55 40.55a4.25 4.25 0 01-6 0l-15.6-15.57-14.47-14.49z" fill="#00D2A0"/></svg>