<svg width="600" height="512" fill="none" xmlns="http://www.w3.org/2000/svg"><path d="M228.424 456.666l44.461 25.636 132.785-76.684" stroke="#1890FF" stroke-width="2" stroke-linecap="round" stroke-linejoin="round"/><path d="M361.208 379.905l44.462 25.712v15.037l-132.784 76.759-57.455-33.23m-18.1-53.604V226.46m-19.903 172.616l19.902-11.502 19.903-11.503m-39.805 0l19.902-11.503 19.903-11.503m-39.805 0l19.902-11.502 19.903-11.503m-39.805 0l19.902-11.503 19.903-11.578m-39.805 0l19.902-11.502 19.903-11.503m-39.805 0l19.902-11.503 19.903-11.502m-39.805 0l19.902-11.502 19.903-11.503m-78.108 228.55L103 487.414M461.472 45.725V4" stroke="#1890FF" stroke-width="2" stroke-linecap="round" stroke-linejoin="round"/><path d="M103 487.414V211.199L461.472 4" stroke="#1890FF" stroke-width="2" stroke-linecap="round" stroke-linejoin="round"/><path d="M461.473 45.725L139.125 232.024v276.215l76.306-44.131 13.068-7.519 132.709-76.684 136.315-78.79V24.9l-36.05 20.825zM217.234 445.162l-4.356 2.481-3.605 2.105-11.942 6.917-19.902 11.502V237.963l19.902-11.503 19.903-11.502v230.204zm139.769-307.115l104.47-60.37 8.411-4.887v30.674l-8.411 4.962-104.621 61.197.151-31.576zm13.969 183.517l-66.392 38.343-66.392-38.343v-76.76l66.392-38.342 66.392 38.342v76.76zm51.747 9.849l-10.89-22.479-6.835-14.059-10.364 14.735-5.633-76.083 54.526 47.815-17.049 1.053 6.834 14.059 10.891 22.479-21.48 12.48z" stroke="#1890FF" stroke-width="2" stroke-linecap="round" stroke-linejoin="round"/><path d="M217.233 399.077v23.005l-19.902 11.503v-23.006l19.902-11.502zm-19.903 11.502v23.006l-19.902 11.577v-23.08l19.902-11.503z" stroke="#1890FF" stroke-width="2" stroke-linecap="round" stroke-linejoin="round"/><path d="M217.233 422.082v23.08l-19.902 11.503v-23.081l19.902-11.502zM469.884 72.79v30.674l-113.032 66.159.15-31.576L469.884 72.79zm0 48.417v53.078l-35.6 21.05.225-53.98 35.375-20.148zm-25.687 197.801l-21.48 12.405-17.724-36.463-10.365 14.736-5.632-76.083 54.525 47.815-17.048 1.052 17.724 36.538zM304.58 359.907v-76.76l-66.392-38.342m132.784 0l-66.392 38.342" stroke="#1890FF" stroke-width="2" stroke-linecap="round" stroke-linejoin="round"/><path d="M287.231 293.898c-2.704-4.361-5.558-8.496-9.313-12.029-3.68-3.458-8.186-6.541-13.218-7.593-4.882-1.053-10.365.526-12.918 5.187-2.554 4.737-2.779 9.999-2.028 15.187.751 5.187 2.628 10.074 4.957 14.735 2.178 4.436 5.332 8.646 8.862 12.179 3.53 3.534 7.736 6.992 12.617 8.27 2.629.752 5.032.978 7.736.527 2.479-.451 4.506-2.03 6.084-3.985 3.154-3.834 3.605-9.698 3.154-14.51-.526-4.962-2.028-9.999-4.131-14.435a52.424 52.424 0 00-1.802-3.533zm42.734-10.751c3.455 3.458 7.285 6.39 11.792 8.12 4.281 1.654 9.463 1.729 13.068-1.429 2.103-1.804 3.229-4.06 4.055-6.691" stroke="#1890FF" stroke-width="2" stroke-linecap="round" stroke-linejoin="round"/><path d="M279.194 283.147c-3.454 3.458-7.285 6.39-11.791 8.12-4.281 1.654-9.463 1.729-13.068-1.429-2.103-1.804-3.23-4.06-4.056-6.691m81.263-29.321c-3.755 3.533-8.337 5.789-13.293 7.142-5.032 1.429-10.29 1.955-15.472 1.804-5.032-.15-10.064-1.052-14.795-2.781-4.657-1.654-9.539-4.436-12.318-8.646-3.079-4.586-2.553-9.999.902-14.209 3.154-3.834 7.886-6.315 12.542-7.894 4.957-1.654 10.214-2.406 15.472-2.406 5.182 0 10.289.752 15.171 2.255 4.731 1.504 9.538 3.91 12.767 7.744 3.455 3.985 4.281 9.398 1.427 13.984-.751 1.127-1.502 2.03-2.403 3.007zm-14.27 51.274c4.581 1.203 9.012 3.083 12.768 6.09 3.68 2.932 6.308 7.367 5.482 12.179-.45 2.631-1.877 4.887-3.68 6.842M291.887 305.1c-4.582 1.203-9.013 3.083-12.768 6.09-3.68 2.932-6.309 7.367-5.483 12.179.451 2.631 1.878 4.887 3.681 6.842" stroke="#1890FF" stroke-width="2" stroke-linecap="round" stroke-linejoin="round"/><path d="M328.914 284.274c-3.53 3.91-6.309 8.27-8.637 13.007-2.254 4.51-3.756 9.623-4.281 14.66a24.165 24.165 0 00.225 7.368c.451 2.405 1.127 5.037 2.704 6.916 1.577 1.955 3.53 3.684 6.083 4.21 2.629.527 5.032.376 7.586-.375 4.882-1.354 9.162-4.586 12.692-8.12 3.605-3.534 6.685-7.744 9.013-12.255 2.328-4.586 4.281-9.472 5.032-14.585.751-5.337.601-10.45-1.803-15.337-2.403-4.811-7.961-6.465-12.918-5.488-5.107.978-9.463 4.06-13.218 7.518a38.619 38.619 0 00-2.478 2.481zm-11.642-23.004c-1.352-4.436-1.953-9.473-1.126-14.059.826-4.812 3.154-9.097 7.886-10.977 2.403-.977 5.332-.751 7.81-.075m-39.955 25.111c1.352-4.436 1.953-9.473 1.127-14.059-.826-4.812-3.155-9.097-7.886-10.977-2.404-.977-5.333-.751-7.811-.075M471.236 284.5a14.44 14.44 0 01-3.229 8.421c-1.652 2.105-4.957 5.037-7.886 3.684-3.155-1.504-2.253-6.24-1.277-8.797 1.052-2.781 3.004-5.488 5.558-7.067 1.352-.827 3.154-1.428 4.731-.676 1.653.902 2.028 2.781 2.103 4.435zm0-38.342a14.442 14.442 0 01-3.23 8.42c-1.652 2.105-4.807 4.887-7.661 3.759-3.304-1.278-2.553-6.089-1.577-8.721 1.052-2.856 3.004-5.638 5.633-7.217 1.352-.827 3.154-1.428 4.732-.677 1.652.903 2.027 2.782 2.103 4.436zm.001-38.342a14.447 14.447 0 01-3.23 8.42c-1.652 2.105-4.807 4.962-7.736 3.759-3.229-1.353-2.478-6.014-1.502-8.571 1.052-2.856 3.004-5.638 5.558-7.217 1.352-.827 3.229-1.504 4.807-.677 1.652.752 2.027 2.557 2.103 4.286zM272.886 482.302v15.111" stroke="#1890FF" stroke-width="2" stroke-linecap="round" stroke-linejoin="round"/></svg>