<svg width="600" height="512" fill="none" xmlns="http://www.w3.org/2000/svg"><path d="M360.407 108.735l-60.375 34.879v98.649l85.395-49.276V94.242l-25.02 14.493zm9.95 50.145c-.966 6.57-3.478 12.851-6.472 18.744-2.898 5.797-6.955 11.111-11.592 15.749-4.541 4.541-10.047 8.696-16.326 10.435-.29.097-.579.193-.869.193-2.995.773-5.796.87-8.887.194-3.285-.677-5.797-2.899-7.825-5.411-1.932-2.512-2.898-5.797-3.478-8.889-.579-3.092-.579-6.377-.29-9.469.677-6.473 2.609-12.947 5.507-18.84 2.994-6.088 6.569-11.691 11.109-16.716.483-.483.869-.966 1.352-1.352.58-.58 1.159-1.16 1.836-1.739 4.83-4.445 10.432-8.406 17.001-9.662 6.376-1.256 13.524.773 16.616 7.053.772 1.546 1.352 2.995 1.738 4.541 1.353 4.928 1.353 9.952.58 15.169z" stroke="#1890FF" stroke-width="2" stroke-linecap="round" stroke-linejoin="round"/><path d="M332.585 143.615c4.444 4.444 9.37 8.212 15.166 10.434 5.506 2.126 12.172 2.223 16.809-1.835 2.705-2.319 4.154-5.218 5.216-8.599m-139.588 0c1.063 3.381 2.512 6.183 5.217 8.502 4.637 4.058 11.302 3.961 16.808 1.836 5.893-2.222 10.82-5.991 15.167-10.435m48.88 28.309c5.893 1.546 11.592 3.961 16.422 7.826 4.734 3.768 8.115 9.469 7.052 15.652-.579 3.382-2.415 6.281-4.733 8.793m-70.035-.097s-.098 0 0 0m-.098 0c-2.318-2.512-4.154-5.411-4.733-8.696-1.063-6.183 2.318-11.884 7.052-15.652 4.83-3.865 10.529-6.28 16.422-7.826m32.651-56.426c-1.739-5.7-2.511-12.174-1.449-18.067 1.063-6.184 4.057-11.691 10.143-14.107 3.091-1.256 6.955-.966 10.047-.096m-35.066 385.124v-197.2" stroke="#1890FF" stroke-width="2" stroke-linecap="round" stroke-linejoin="round"/><path d="M239.56 108.735l-25.02-14.493v98.648l85.395 49.276v-98.552l-60.375-34.879zm41.828 90.435c-2.029 2.416-4.637 4.541-7.825 5.121-2.995.58-5.699.387-8.597-.29a7.09 7.09 0 01-1.353-.386c-6.279-1.739-11.689-6.184-16.229-10.628-4.54-4.541-8.501-9.952-11.399-15.653-2.994-5.99-5.409-12.27-6.375-18.937-.773-4.928-.773-10.048.579-14.783.483-1.642 1.063-3.285 1.932-4.831 3.285-5.99 10.337-7.922 16.616-6.666 6.472 1.352 12.268 5.314 17.001 9.758 4.83 4.541 8.501 9.855 11.979 15.459.869 1.546 1.545 3.092 2.318 4.638 2.802 5.797 4.734 12.174 5.313 18.551.677 6.183.097 13.72-3.96 18.647z" stroke="#1890FF" stroke-width="2" stroke-linecap="round" stroke-linejoin="round"/><path d="M339.251 67.671l-39.316-22.705-39.316 22.705-46.079 26.57 25.02 14.494 60.375 34.879 60.472-34.879 24.923-14.493-46.079-26.57zm.387 29.083c-.29 1.836-.966 3.575-2.029 5.217-.869 1.353-1.932 2.609-3.091 3.768-4.83 4.542-10.723 7.44-17.098 9.276a67.04 67.04 0 01-17.582 2.319h-2.415c-4.636-.194-9.37-.773-13.91-2.029-1.739-.483-3.478-.966-5.217-1.546-5.989-2.126-12.268-5.701-15.842-11.111-1.256-1.836-2.029-3.865-2.415-5.894-.773-4.251.483-8.696 3.574-12.367.387-.387.676-.87 1.063-1.257 3.96-4.25 9.563-7.053 15.069-8.888 2.899-.967 5.797-1.643 8.791-2.126 3.671-.58 7.342-.87 11.109-.87 3.768 0 7.438.29 11.109.87a61.272 61.272 0 018.308 2.029c6.086 1.932 12.268 5.024 16.422 9.952 3.574 3.575 5.023 8.212 4.154 12.657z" stroke="#1890FF" stroke-width="2" stroke-linecap="round" stroke-linejoin="round"/><path d="M48.966 159.846l170.79-98.648 40.958 6.473m78.537 0l40.959-6.473L551 159.846M299.934 271.055l-80.178 80.001m160.454 0l-80.275-80.001m85.394-147.924l85.395 49.276 80.275 80.097M299.934 71.15l.097 46.184h-2.415c-4.637-.193-9.37-.773-13.911-2.029 1.739-5.7 2.512-12.174 1.449-17.971-.772-4.541-2.608-8.696-5.892-11.594-1.159-1.063-2.608-1.933-4.251-2.61-3.091-1.158-6.955-.965-10.046-.096 3.96-4.25 9.563-7.053 15.07-8.889 2.898-.966 5.796-1.642 8.79-2.125l11.109-.87z" stroke="#1890FF" stroke-width="2" stroke-linecap="round" stroke-linejoin="round"/><path d="M283.705 115.401c-1.739-.483-3.478-.966-5.217-1.546-5.989-2.125-12.268-5.7-15.842-11.111-1.256-1.836-2.029-3.865-2.415-5.894-.773-4.251.483-8.695 3.574-12.367.387-.386.676-.87 1.063-1.256 3.091-.87 6.955-1.063 10.046.096 1.642.677 3.091 1.546 4.251 2.61 3.284 2.898 5.119 7.052 5.892 11.594 1.063 5.7.387 12.174-1.352 17.874zm55.932-18.647c-.29 1.836-.966 3.575-2.029 5.218-.869 1.352-1.932 2.608-3.091 3.768-4.83 4.541-10.723 7.439-17.098 9.275a67.04 67.04 0 01-17.582 2.319l-.096-46.184 11.109.87a61.243 61.243 0 018.307 2.029c6.086 1.932 12.269 5.024 16.423 9.951 3.477 3.672 4.926 8.31 4.057 12.754zm-125.098 26.377l-85.298 49.276-80.275 80.097" stroke="#1890FF" stroke-width="2" stroke-linecap="round" stroke-linejoin="round"/><path d="M48.966 159.846l80.275 12.561 170.693 98.648 170.79-98.648 80.275-12.561m-80.275 138.939v70.822l-170.79 98.648-170.693-98.648v-70.822" stroke="#1890FF" stroke-width="2" stroke-linecap="round" stroke-linejoin="round"/><path d="M550.999 252.504l-80.275 46.281-90.515 52.271m-160.453 0l-90.515-52.271-80.275-46.281" stroke="#1890FF" stroke-width="2" stroke-linecap="round" stroke-linejoin="round"/><path d="M434.885 358.012l9.177 6.957-5.313 3.092-7.052-5.025-1.159 1.836v7.923l-4.154 2.415-.096-29.372 4.153-2.415.097 16.135 7.631-13.043 5.41-3.092-8.694 14.589zm-20.479 1.74c5.12-2.995 8.984-1.256 8.984 4.831 0 .676-.096 1.836-.193 3.188l-14.104 8.116c.387 3.285 2.802 3.575 5.989 1.739 1.739-.966 3.382-2.705 4.541-4.734l2.222 2.126c-1.836 3.188-4.154 5.507-6.763 7.053-6.085 3.575-10.239 1.449-10.239-5.411-.193-6.28 3.188-13.237 9.563-16.908zm-5.409 12.077l9.949-5.797c-.289-2.802-2.125-3.382-4.83-1.836-2.704 1.643-4.54 4.445-5.119 7.633zm-9.661 14.783c.966-.58 1.643-1.546 2.222-2.609l2.125 2.126c-1.159 2.125-2.994 4.058-5.023 5.314-3.671 2.125-5.989.869-5.989-4.348v-9.759l-2.318 1.353v-4.444l2.318-1.353v-7.536l4.154-2.416v7.536l4.25-2.415v4.444l-4.25 2.416v8.406c0 3.478.773 4.348 2.511 3.285zm-16.035 3.574v-12.077l4.154-2.416v12.561c0 6.377-3.091 11.594-8.694 14.783-5.603 3.188-8.694 1.932-8.694-4.735v-12.56l4.154-2.416v12.078c0 3.188 1.256 5.12 4.54 3.188 2.995-1.642 4.54-4.058 4.54-8.406zm-38.254 11.788c0 4.058-2.222 8.599-5.603 11.691l7.728 7.343-5.41 3.092-7.051-6.764-5.41 3.092v10.822l-4.444 2.512-.096-29.373 10.046-5.797c8.018-4.541 10.24-1.352 10.24 3.382zm-15.746 13.72l5.796-3.285c3.381-1.933 5.41-4.831 5.41-7.73 0-2.512-1.256-3.575-5.603-1.159l-5.506 3.188-.097 8.986zm27.628-22.705c5.989-3.479 10.239-1.16 10.239 5.507 0 6.57-4.153 13.72-10.143 17.198-5.892 3.382-10.239 1.063-10.239-5.411 0-6.666 4.057-13.816 10.143-17.294zm0 18.261c3.477-2.029 5.892-6.087 5.892-10.242 0-4.251-2.608-5.411-5.892-3.478-3.381 1.932-5.893 5.99-5.893 10.338.097 3.768 2.415 5.411 5.893 3.382zm94.802-51.67c1.213-2.072 1.227-4.32.03-5.021-1.197-.702-3.151.409-4.364 2.481-1.214 2.072-1.228 4.32-.031 5.021 1.197.702 3.151-.409 4.365-2.481z" fill="#1890FF"/></svg>