<svg width="600" height="512" fill="none" xmlns="http://www.w3.org/2000/svg"><path d="M227.281 213.968l-63.295 36.545m92.35-53.336l-.494.329m19.918-11.523l-.493.329M42.581 320.639l-.823.494m226.1-46.586l-23.54 13.581m-58.191 117.618l-31.606 18.272m290.958-167.991l-12.922 7.49m-173.67 184.288l-31.606 18.19m290.958-167.991l-17.614 10.206M300.041 508.055l72.678-42.06 72.76-41.977 72.761-41.977L591 339.982m-266.267-153.67l-.494-.329m19.919 11.523l-.493-.329m29.054 16.791l72.76 42.059 72.76 41.977L591 339.982m-72.761 42.059l-33.746-19.507M275.76 242.035l-24.281-13.993m34.734 20.002l-8.313-4.774m-72.348 42.223l-32.841-18.931m272.768 157.456l-60.249-34.816m-12.511 76.793l-33.664-19.425m-39.014 61.484l-72.76-42.059-72.76-41.977-72.76-41.977M275.76 35.442l24.281 13.992 24.199-13.992m-48.48 206.593l-24.281-13.993" stroke="#00D2A0" stroke-width="2" stroke-linecap="round" stroke-linejoin="round"/><path d="M300.041 59.97l24.199-13.993V35.442L300.041 21.45 275.76 35.442v10.535l24.281 13.993zm-24.281 93.008l-19.918-11.523v-11.77m0-33.582v11.77l19.918 11.523m72.761-59.426L324.24 73.961l-24.281 13.992v144.121l11.523-13.251h12.758v-10.371l19.425-11.194.493-.247 4.363-2.551v24.445h6.667l4.609 2.634 13.005-7.49V45.977l-24.281 13.992zm0 117.617l-19.425 11.194-4.856 2.799v-16.791l19.918-11.523 4.363-2.552v16.873zm0-33.581l-24.281 13.992v-16.791l19.918-11.523 4.363-2.551v16.873zm0-33.582l-24.281 13.992v-16.79l19.918-11.441 4.363-2.552v16.791z" stroke="#00D2A0" stroke-width="2" stroke-linecap="round" stroke-linejoin="round"/><path d="M348.52 160.797v16.791l-19.425 11.194-4.856 2.798v-5.02l.494-.247 19.425-11.194v-11.77l4.362-2.552zm-72.76-86.753l-24.28-13.992-24.281-13.992v167.99l24.281 13.993v-33.582l4.362 2.551.494.247 19.424 11.194v33.582l2.14 1.235 8.314 4.773 13.827-15.967V88.036L275.76 74.045zm0 117.536l-4.856-2.798-19.424-11.194v-16.791l4.362 2.551 19.918 11.524v16.708zm0-33.582l-24.28-13.992v-16.791l4.362 2.552 19.918 11.523v16.708zm0-33.581l-24.28-13.993v-16.79l4.362 2.551 19.918 11.441v16.791z" stroke="#00D2A0" stroke-width="2" stroke-linecap="round" stroke-linejoin="round"/><path d="M275.76 186.56v5.02l-4.856-2.798-19.425-11.194v-16.791l4.363 2.552v11.77l19.425 11.194.493.247zm-19.918 10.37v28.561l-4.363 2.551v-33.664l4.363 2.552zm19.918 40.002l-19.918-11.441M227.281 45.977l24.198-13.992 24.281-13.992L300.041 4l24.199 13.992 24.28 13.993 24.199 13.992m-28.561 83.708v11.77l-19.919 11.523m19.919-56.875v11.77l-19.919 11.523" stroke="#00D2A0" stroke-width="2" stroke-linecap="round" stroke-linejoin="round"/><path d="M170.653 314.795l-18.272 21.071v5.35l-70.62 40.825L9 339.981l32.759-18.848v17.614l43.623 25.268 55.311-31.935 29.96-17.285z" stroke="#00D2A0" stroke-width="2" stroke-miterlimit="10"/><path d="M591 339.982l-72.76 42.059-72.761 41.977-72.76 41.977-72.678 42.06-72.76-42.06-72.76-41.977-72.76-41.977M41.758 170.756l43.624 25.269 54.981-31.771 32.347-18.684" stroke="#00D2A0" stroke-width="2" stroke-linecap="round" stroke-linejoin="round"/><path d="M50.483 194.461l34.899 20.165 71.114-41.072 7.49-4.28m-78.604 59.015v-32.265m0 69.551V233.31m0 55.97v-18.602m78.604-64.036l-7.49 4.28-71.115 41.072-34.898-20.165m113.503 12.099v13.663l-3.375 1.976-24.61 14.156-48.15 27.821-2.47 1.399V289.28l71.115-41.072 7.49-4.28z" stroke="#00D2A0" stroke-width="2" stroke-linecap="round" stroke-linejoin="round"/><path d="M163.986 177.917l8.724 5.021v18.684l-8.724 5.02v8.56l8.724 5.021v18.684l-8.724 5.021m8.725 51.031v17.449l-2.058 2.387-29.96 17.285-55.311 31.935v-18.684l39.178-22.634 48.151-27.738zm-8.725-13.663v13.663l-43.788 25.268-34.816 20.083v-13.663l22.964-13.251 48.15-27.82 7.49-4.28z" stroke="#00D2A0" stroke-width="2" stroke-linecap="round" stroke-linejoin="round"/><path d="M172.71 294.959l-48.15 27.737-39.178 22.635-34.899-20.165-7.902-4.527-.823-.494 8.725-5.103v5.103l34.899 20.165 34.816-20.083 43.788-25.268v-5.104l4.362 2.552 4.362 2.552z" stroke="#00D2A0" stroke-width="2" stroke-linecap="round" stroke-linejoin="round"/><path d="M85.382 326.648v13.663l-34.9-20.166v-13.663l8.314 4.774 26.586 15.392z" stroke="#00D2A0" stroke-width="2" stroke-linecap="round" stroke-linejoin="round"/><path d="M85.382 307.964v18.684l-26.586-15.392-8.313-4.774-8.725-5.021v-18.684l8.725 5.021 24.445 14.157 10.454 6.009z" stroke="#00D2A0" stroke-width="2" stroke-linecap="round" stroke-linejoin="round"/><path d="M172.71 257.591l-7.737 4.445-.987.576-23.623 13.663-48.15 27.82-6.831 3.869-10.454-6.009-24.445-14.157-8.725-5.02 8.725-5.021v5.021l28.808 16.626 6.09 3.539 2.47-1.399 48.15-27.82 24.61-14.157 3.375-1.976v-5.02l8.724 5.02z" stroke="#00D2A0" stroke-width="2" stroke-linecap="round" stroke-linejoin="round"/><path d="M85.382 289.28v13.663l-6.091-3.539-28.808-16.627v-13.58l34.899 20.083zm-34.899-86.177l-8.725 5.021v18.684l8.725 5.02v8.56l-8.725 5.104v18.601l8.725 5.103m-8.725 51.937v-.987" stroke="#00D2A0" stroke-width="2" stroke-linecap="round" stroke-linejoin="round"/><path d="M50.483 194.461v13.663l34.899 20.165L136 199.07l27.985-16.132v-13.663l8.724-5.021V145.57l-43.623-25.186-87.329 50.372v18.684l8.725 5.021zm113.503 20.741v5.021l-27.985 16.215-50.62 29.137-34.898-20.083v-5.103m122.228 17.202v18.684l-8.725 5.021-7.49 4.28-48.15 27.82-22.964 13.252v-18.684l6.831-3.869 48.151-27.82 23.622-13.663.988-.576 7.737-4.445z" stroke="#00D2A0" stroke-width="2" stroke-linecap="round" stroke-linejoin="round"/><path d="M172.71 220.223l-8.724 5.103-23.623 13.581-50.62 29.22-4.361 2.551-4.363-2.551-30.536-17.614-8.725-5.021m130.952-62.554l-8.724 5.021-23.623 13.663-50.62 29.137-4.361 2.551-4.363-2.551-39.26-22.635m458.867 94.736v50.373l-16.132 9.301-27.491 15.885-43.624 25.186v-50.372l18.355-21.153 25.269-29.22h43.623zM348.521 194.378v24.446h-4.363V196.93l4.363-2.552z" stroke="#00D2A0" stroke-width="2" stroke-linecap="round" stroke-linejoin="round"/><path d="M500.626 302.861h-43.624l-46.257-26.751-72.76-41.977-4.362-2.551-9.383-5.432-12.758-7.326h43.705l4.61 2.634 72.76 42.059 68.069 39.344z" stroke="#00D2A0" stroke-width="2" stroke-linecap="round" stroke-linejoin="round"/><path d="M457.002 302.861l-25.268 29.219-18.355 21.153-68.151-39.343-72.76-41.977-4.61-2.716 18.355-21.154 13.828-15.967 11.441-13.252 145.52 84.037zM297.901 419.903v50.372l-39.014-22.47-72.76-42.059-33.746-19.507v-50.373l145.52 84.037zm43.624-50.455l-43.624 50.455-145.52-84.037 18.272-21.071 2.058-2.387 23.293-26.914 145.521 83.954z" stroke="#00D2A0" stroke-width="2" stroke-linecap="round" stroke-linejoin="round"/><path d="M385.23 369.448v50.455l-43.705 25.186-2.47 1.481-41.154 23.705v-50.372l43.624-50.455h43.705z" stroke="#00D2A0" stroke-width="2" stroke-linecap="round" stroke-linejoin="round"/><path d="M413.379 353.233v50.372l-28.149-16.214v-17.943l-68.151-39.261-49.221-28.479v-32.511l4.61 2.716 72.76 41.977 68.151 39.343z" stroke="#00D2A0" stroke-width="2" stroke-linecap="round" stroke-linejoin="round"/><path d="M385.23 369.448h-43.706l-145.52-83.954h43.705l4.61 2.634 23.54 13.58 117.371 67.74z" stroke="#00D2A0" stroke-width="2" stroke-linecap="round" stroke-linejoin="round"/></svg>