<svg width="16" height="16" fill="none" xmlns="http://www.w3.org/2000/svg"><g clip-path="url(#clip0)"><path d="M15.96 13.71a.625.625 0 00-1.224.255.653.653 0 01-.132.547.635.635 0 01-.5.238H1.897a.635.635 0 01-.5-.238.653.653 0 01-.132-.547c.648-3.116 3.396-5.391 6.57-5.468a4.278 4.278 0 00.332 0 6.875 6.875 0 015.552 3.052.625.625 0 001.039-.696 8.13 8.13 0 00-4.213-3.201A4.246 4.246 0 0012.25 4.25 4.255 4.255 0 008 0a4.255 4.255 0 00-4.25 4.25c0 1.39.672 2.628 1.708 3.403A8.122 8.122 0 00.04 13.71 1.898 1.898 0 001.897 16h12.207a1.898 1.898 0 001.856-2.29zM5 4.25c0-1.654 1.346-3 3-3 1.655 0 3 1.346 3 3a3.004 3.004 0 01-2.848 2.996 8.165 8.165 0 00-.303 0A3.004 3.004 0 015 4.25z" fill="#2A7DFF"/></g><defs><clipPath id="clip0"><path fill="#fff" d="M0 0h16v16H0z"/></clipPath></defs></svg>