<svg width="129" height="128" fill="none" xmlns="http://www.w3.org/2000/svg"><g clip-path="url(#clip0_119221:124281)"><path stroke="#00D2A0" stroke-width="2" stroke-dasharray="4 4" d="M1.666 79h52v48h-52zm74 0h52v48h-52z"/><path d="M41.323 62.39l-13.52-11.727 7.644-26.596A7 7 0 0142.174 19h19.492v11h-4.629l-.274.564-15.44 31.826zM33.368 79H18.052l7.558-22.735 13.3 11.963L33.368 79zM88.01 62.39l13.519-11.727-7.644-26.596A7 7 0 0087.158 19H67.666v11h4.629l.274.564 15.44 31.826zM95.963 79h15.316l-7.558-22.735-13.3 11.963L95.964 79z" stroke="#00D2A0" stroke-width="2"/><path d="M63.959 119.707a1 1 0 001.414 0l6.364-6.364a1 1 0 10-1.414-1.414l-5.657 5.657-5.657-5.657a1 1 0 10-1.414 1.414l6.364 6.364zM63.666 88v31h2V88h-2z" fill="#00D2A0"/><path d="M.666 74h14.5l16.76-54.357A8 8 0 0139.571 14h49.737a8 8 0 017.627 5.585L114.166 74h14.5" stroke="#00D2A0" stroke-width="2"/></g><defs><clipPath id="clip0_119221:124281"><path fill="#fff" transform="translate(.666)" d="M0 0h128v128H0z"/></clipPath></defs></svg>