<svg width="86" height="86" fill="none" xmlns="http://www.w3.org/2000/svg"><path d="M42.85 10.928c.934 0 1.691-.757 1.691-1.692V1.692a1.692 1.692 0 00-3.383 0v7.544c0 .935.758 1.692 1.692 1.692zM84.2 58.115l-2.989-2.98a5.607 5.607 0 00-3.99-1.647 5.63 5.63 0 00-2.713.69l-5.63-5.624.273-.274c2.285-2.29 2.284-6.009 0-8.29a5.807 5.807 0 00-2.944-1.593c.153-.527.233-1.08.233-1.645a5.81 5.81 0 00-1.715-4.146 5.807 5.807 0 00-2.945-1.592 5.91 5.91 0 00.233-1.646c0-1.571-.61-3.044-1.717-4.146a5.834 5.834 0 00-2.942-1.589 5.88 5.88 0 00-1.481-5.797 5.873 5.873 0 00-4.776-1.674L39.938 14.05c-1.702-.323-3.827-.537-5.169.687a3.06 3.06 0 00-.256.265 5.883 5.883 0 00-6.172 1.357 5.82 5.82 0 00-1.713 4.147c0 .566.08 1.119.232 1.646a5.798 5.798 0 00-2.939 1.589 5.812 5.812 0 00-1.719 4.143c0 .567.08 1.12.233 1.65a5.812 5.812 0 00-2.943 1.587 5.825 5.825 0 00-1.717 4.15c0 1.202.36 2.347 1.024 3.315a5.83 5.83 0 00-2.253 1.402c-2.286 2.283-2.287 6.003.002 8.295l.273.272-5.632 5.622a5.656 5.656 0 00-6.4 1.109L1.8 58.268a5.6 5.6 0 00-1.649 3.99 5.6 5.6 0 001.65 3.99l3.731 3.727a1.692 1.692 0 102.391-2.394l-3.731-3.727a2.24 2.24 0 01-.657-1.596c0-.607.233-1.174.656-1.596l2.99-2.981a2.265 2.265 0 012.759-.339 1.702 1.702 0 00.699.599l17.148 17.123a1.682 1.682 0 00.815.824c.363.41.564.934.564 1.492 0 .607-.233 1.174-.657 1.597L25.52 81.96a2.272 2.272 0 01-3.199.003l-3.732-3.732a1.692 1.692 0 10-2.392 2.392l3.735 3.735A5.632 5.632 0 0023.919 86c1.445 0 2.89-.548 3.99-1.644l2.99-2.985a5.6 5.6 0 001.65-3.99c0-1.079-.3-2.109-.858-2.996l6.338-6.331.02-.02c.727-.751 2.748-.61 4.702-.475 1.39.097 2.937.204 4.45.03l6.941 6.933c-.45.82-.69 1.745-.69 2.709 0 1.509.586 2.925 1.65 3.987l2.99 2.986a5.606 5.606 0 003.989 1.647c1.51 0 2.926-.585 3.99-1.647L84.2 66.095a5.6 5.6 0 001.65-3.99 5.6 5.6 0 00-1.651-3.99zM39.308 17.374l7.338 1.389-4.392 4.39c-.68-.326-1.61-.935-2.632-1.912-1.398-1.338-2.399-2.883-2.49-3.846v-.002a1.5 1.5 0 01-.008-.167c.222-.053.81-.113 2.184.148zm-8.576 1.379a2.495 2.495 0 013.157-.3c.548 2.302 2.511 4.387 3.394 5.232.655.626 2.754 2.504 4.874 3.02.287.41.443.9.443 1.418a2.46 2.46 0 01-.723 1.754 2.462 2.462 0 01-1.757.723 2.464 2.464 0 01-1.758-.725h-.001l-7.629-7.616a2.458 2.458 0 01-.721-1.753c0-.666.256-1.288.721-1.753zm-4.42 7.382a2.46 2.46 0 011.755-.723c.666 0 1.291.257 1.76.725l6.143 6.13a2.49 2.49 0 01.003 3.512 2.48 2.48 0 01-1.762.722 2.477 2.477 0 01-1.76-.72l-4.66-4.66-.023-.021-1.458-1.457a2.462 2.462 0 01-.725-1.757c0-.663.258-1.284.727-1.751zm-4.429 7.38a2.47 2.47 0 011.759-.721c.662 0 1.281.252 1.745.71l4.674 4.672c.466.464.723 1.086.723 1.751a2.467 2.467 0 01-2.481 2.474 2.477 2.477 0 01-1.76-.72l-1.694-1.694h-.002l-2.964-2.961a2.464 2.464 0 01-.724-1.756c0-.665.257-1.288.724-1.755zm-2.946 8.866a2.473 2.473 0 011.76-.724 2.47 2.47 0 011.76.724l1.697 1.695c.466.464.723 1.086.723 1.751 0 .665-.257 1.287-.726 1.755a2.463 2.463 0 01-1.757.723 2.465 2.465 0 01-1.76-.726l-.212-.212-.008-.008-.01-.01-1.465-1.46a2.484 2.484 0 01-.002-3.508zM53.41 61.607a1.692 1.692 0 00-2.392-.002l-1.505 1.503c-1.43 1.43-4.022 1.25-6.527 1.077-2.722-.19-5.536-.385-7.357 1.485l-6.23 6.223-15.582-15.559 5.514-5.504a5.84 5.84 0 003.064.858 5.82 5.82 0 004.147-1.712 5.814 5.814 0 001.719-4.149l-.001-.043h.044c1.57 0 3.042-.607 4.145-1.708a5.813 5.813 0 001.719-4.149l-.001-.043h.044a5.844 5.844 0 005.865-5.901h.045a5.824 5.824 0 004.149-1.713 5.82 5.82 0 001.713-4.148 5.834 5.834 0 00-.855-3.057l4.833-4.831c.36-.359.804-.584 1.27-.677.05-.005.1-.013.149-.023a2.489 2.489 0 012.102.696 2.49 2.49 0 01.004 3.511l-1.472 1.466-.015.014-1.696 1.693a1.691 1.691 0 102.391 2.393l1.478-1.475.001-.001.223-.223a2.492 2.492 0 013.511.009c.466.464.723 1.086.723 1.751 0 .665-.257 1.287-.727 1.755l-1.48 1.483-1.696 1.69a1.692 1.692 0 102.388 2.396l1.703-1.696a2.462 2.462 0 011.756-.723c.667 0 1.291.257 1.76.727.466.464.723 1.086.723 1.751 0 .665-.257 1.287-.726 1.754l-2.951 2.953a1.692 1.692 0 102.392 2.391l1.447-1.447c.008-.008.017-.014.025-.023A2.462 2.462 0 0165 41.656c.668 0 1.291.257 1.759.725.966.965.965 2.54 0 3.506l-1.471 1.47h-.002l-.001.002-2.334 2.332a1.692 1.692 0 002.39 2.394l1.142-1.14 5.472 5.465-15.58 15.56-5.582-5.575a6.6 6.6 0 001.111-.894L53.408 64c.661-.66.662-1.731.002-2.392zm28.4 2.095L63.679 81.81a2.245 2.245 0 01-1.599.657 2.245 2.245 0 01-1.598-.657l-2.99-2.986a2.235 2.235 0 01-.656-1.593c0-.605.233-1.171.656-1.594l18.131-18.109a2.245 2.245 0 011.599-.657c.607 0 1.174.233 1.6.658l2.988 2.98c.424.423.657.99.657 1.596 0 .607-.234 1.174-.657 1.597zm-61.422-54.2c.33.33.762.494 1.195.494a1.691 1.691 0 001.195-2.889L16.614.955a1.691 1.691 0 10-2.39 2.395l6.164 6.152zm43.729.494c.433 0 .866-.165 1.196-.495l6.16-6.152A1.692 1.692 0 1069.08.956l-6.16 6.152a1.692 1.692 0 001.196 2.888z" fill="#1E5DC5"/><path d="M10.552 72.765a1.692 1.692 0 00.02 2.392l.005.005a1.688 1.688 0 002.39-.023 1.694 1.694 0 00-2.415-2.374zM57.547 59.17a1.694 1.694 0 001.513-2.454 1.692 1.692 0 00-2.273-.749l-.009.005a1.692 1.692 0 00.77 3.198z" fill="#1E5DC5"/></svg>