<svg width="68" height="88" fill="none" xmlns="http://www.w3.org/2000/svg"><path d="M55.85 68.627a1.24 1.24 0 00-1.24 1.241v11.665a.686.686 0 01-.685.685h-6.67V57.785a1.24 1.24 0 00-2.482 0v24.433h-13.43l3.895-4.284a2.225 2.225 0 00.53-1.822L32.06 54.198l1-1.505c.552.393.978.77 1.776.77a2.17 2.17 0 001.944-1.202l3.913-7.842 8.913 3.452c.322.138 5.004 2.247 5.004 7.815v8.392a1.24 1.24 0 102.482 0v-8.392c0-7.336-6.282-10.003-6.549-10.113a.615.615 0 00-.024-.01L35.685 39.82v-3.48a11.626 11.626 0 004.4-7.647 5.37 5.37 0 003.154-1.287 5.258 5.258 0 001.83-3.991 5.26 5.26 0 00-1.28-3.442v-4.596C43.789 6.898 36.89 0 28.412 0c-8.48 0-15.377 6.898-15.377 15.377v4.717c-.829.939-1.28 2.095-1.28 3.32 0 1.538.667 2.992 1.83 3.992a5.367 5.367 0 003.153 1.287 11.502 11.502 0 004.652 7.83v3.296L6.572 45.564l-.023.009C6.28 45.683 0 48.349 0 55.685v25.848a3.17 3.17 0 003.167 3.166h11.82a1.24 1.24 0 000-2.48h-2.669V57.784a1.24 1.24 0 00-2.481 0v24.433h-6.67a.686.686 0 01-.685-.685V55.685c0-5.586 4.713-7.69 5.003-7.813l8.906-3.453 3.912 7.842a2.172 2.172 0 001.945 1.202c.794 0 1.216-.372 1.776-.77l1 1.505-3.71 21.914-.005.037c-.09.65.111 1.317.537 1.785l3.894 4.285h-4.962a1.24 1.24 0 000 2.481h33.147a3.17 3.17 0 003.166-3.167V69.868a1.24 1.24 0 00-1.24-1.24zM38.368 43.52l-3.648 7.31-4.386-3.115 4.505-5.561 3.529 1.366zm-7.334 7.737l-.946 1.423h-3.094l-.946-1.423 2.493-1.771 2.493 1.77zM23.871 40.22v-2.322a12.59 12.59 0 004.691.89c1.627 0 3.222-.347 4.641-.967v2.41l-4.662 5.754-4.67-5.765zm18.716-16.804a2.78 2.78 0 01-.966 2.11 2.891 2.891 0 01-1.433.66v-5.539c1.426.232 2.4 1.414 2.4 2.769zm-25.951 2.77c-1.443-.235-2.4-1.427-2.4-2.77 0-1.327 1.1-2.406 2.4-2.707v5.476zm.066-8.005a6.132 6.132 0 00-1.186.267v-3.07c0-7.11 5.785-12.895 12.896-12.895 7.11 0 12.895 5.785 12.895 12.895v2.985a5.523 5.523 0 00-1.118-.216c0-1.197.01-.966-3.906-5.177a2.208 2.208 0 00-2.819-.344c-4.323 2.824-9.596 4.242-14.46 3.893a2.206 2.206 0 00-2.302 1.662zm2.415 8.98v-8.148c5.356.314 10.971-1.277 15.507-4.182 1.797 1.928 2.77 2.94 3.083 3.325v9.006c0 5.037-4.107 9.144-9.144 9.144-5.657 0-9.446-4.388-9.446-9.144zm3.245 23.67l-3.647-7.31 3.522-1.365 4.507 5.563-4.382 3.112zm1.424 25.55l3.591-21.22h2.328l3.591 21.22-4.755 5.23-4.755-5.23z" fill="#00D2A0"/><path d="M66.252 58.5l-13.475-5.595a1.374 1.374 0 00-1.054 0L38.248 58.5a1.375 1.375 0 00-.848 1.27v6.8c0 9.366 5.66 17.79 14.33 21.328.333.136.706.136 1.04 0A23.027 23.027 0 0067.1 66.571V59.77c0-.556-.335-1.057-.848-1.27zM50.73 71.206l5.91-5.91a1.375 1.375 0 111.945 1.944l-6.883 6.882a1.375 1.375 0 01-1.944 0l-3.843-3.842a1.375 1.375 0 111.945-1.945l2.87 2.87z" fill="#fff"/><path d="M66.252 58.5l-13.475-5.595a1.374 1.374 0 00-1.054 0L38.248 58.5a1.375 1.375 0 00-.848 1.27v6.8c0 9.366 5.66 17.79 14.33 21.328.333.136.706.136 1.04 0A23.027 23.027 0 0067.1 66.571V59.77c0-.556-.335-1.057-.848-1.27zm-1.902 8.07c0 7.962-4.675 15.29-12.1 18.562a20.282 20.282 0 01-12.1-18.561v-5.883l12.1-5.024 12.1 5.024v5.883zm-13.62 4.636l5.91-5.91a1.375 1.375 0 111.945 1.944l-6.883 6.882a1.375 1.375 0 01-1.944 0l-3.843-3.842a1.375 1.375 0 111.945-1.945l2.87 2.87z" fill="#00D2A0"/></svg>