<svg width="86" height="86" fill="none" xmlns="http://www.w3.org/2000/svg"><g clip-path="url(#clip0)" fill="#1E5DC5"><path d="M68.405 74.903a1 1 0 00.949-1.316l-2.773-8.319a9.71 9.71 0 00-7.475-6.481l-8.851-1.611a.51.51 0 01-.419-.501.52.52 0 01.253-.444 13.956 13.956 0 003.575-3.129c.198-.243.492-.392.806-.392h2.302a4.166 4.166 0 004.161-4.162V31.903c0-9.942-8.09-18.032-18.032-18.032-9.943 0-18.032 8.09-18.032 18.032v9.71a5.557 5.557 0 003.781 5.26c.382.128.689.432.785.823a13.906 13.906 0 006.278 8.535.52.52 0 01.252.444.51.51 0 01-.418.5l-8.853 1.612a9.708 9.708 0 00-7.474 6.482l-.043.13a1 1 0 01-1.656.39l-3.58-3.58a1.39 1.39 0 010-1.962l4.772-4.77a1 1 0 000-1.415l-8.87-8.87a1 1 0 00-1.414 0l-5.485 5.486a9.646 9.646 0 00-2.843 6.866 9.643 9.643 0 002.843 6.865l18.747 18.746A9.648 9.648 0 0028.557 86a9.608 9.608 0 006.822-2.803l6.093-5.584a.86.86 0 00.027-1.242c-.542-.541-.159-1.468.607-1.468h26.3zM58.16 48.548c0 .766-.623 1.387-1.387 1.387-.55 0-.921-.566-.744-1.086.147-.432.274-.872.379-1.321a.86.86 0 01.584-.609c.545-.174 1.168.19 1.168.762v.867zm-.239-5.818c-.316.704-1.148.302-1.148-.47v-1.295c0-.772.832-1.174 1.148-.47.154.342.239.72.239 1.118 0 .398-.085.776-.239 1.117zm-28.89-.47c0 .772-.832 1.174-1.149.47a2.72 2.72 0 01-.238-1.117c0-.399.085-.776.238-1.118.317-.704 1.149-.302 1.149.47v1.296zm.894-7.583c-.494 0-.894.4-.894.894v.228c0 .272-.19.509-.447.6-.435.154-.94-.144-.94-.607v-3.889c0-8.412 6.845-15.258 15.258-15.258S58.16 23.491 58.16 31.903v3.89c0 .462-.505.76-.94.605a.652.652 0 01-.447-.6v-.228c0-.493-.4-.893-.893-.893h-.494a15.262 15.262 0 01-10.86-4.498l-.917-.917a1 1 0 00-1.414 0l-.917.917a15.262 15.262 0 01-10.86 4.498h-.493zm1.88 9.71v-6.06c0-.524.404-.955.923-1.021a17.956 17.956 0 009.468-4.2 1.088 1.088 0 011.412 0 17.95 17.95 0 009.467 4.2c.52.066.924.498.924 1.02v6.061c0 1.817-.446 3.53-1.225 5.044a.95.95 0 01-.852.505h-8.02a1 1 0 00-1 1v.774a1 1 0 001 1h3.666c.922 0 1.289 1.071.474 1.501a10.975 10.975 0 01-5.14 1.273c-6.119 0-11.097-4.978-11.097-11.097zm15.21 13.246a.037.037 0 01.037.062l-3.443 3.443a1 1 0 01-1.414 0l-3.444-3.443a.037.037 0 01.037-.062 13.849 13.849 0 008.227 0zM21.85 66.145a6.938 6.938 0 015.34-4.631l9.18-1.668a1 1 0 01.885.276l4.939 4.939a1 1 0 001.414 0l4.937-4.937a1 1 0 01.886-.277l9.179 1.668a6.936 6.936 0 015.339 4.632l1.556 4.665a1 1 0 01-.948 1.317H37.668a1 1 0 01-.707-.293L32.524 67.4a1 1 0 00-1.378-.035l-5.298 4.793c-.523.526-1.437.526-1.961 0l-2.593-2.593a1 1 0 01-.242-1.023l.798-2.396zM8.428 49.115a1 1 0 011.414 0l4.947 4.947a1 1 0 010 1.415l-.092.092a1 1 0 01-1.414 0l-4.948-4.947a1 1 0 010-1.414l.093-.093zm25.03 32.081a6.9 6.9 0 01-4.904 2.03 6.897 6.897 0 01-4.905-2.032L4.903 62.449a6.89 6.89 0 01-2.031-4.904c0-1.853.721-3.595 2.03-4.905l.057-.056a1 1 0 011.414 0l5.604 5.605a.07.07 0 010 .1 4.168 4.168 0 000 5.885l9.947 9.947a4.14 4.14 0 002.943 1.22c1.113 0 2.157-.434 2.892-1.171a.148.148 0 01.203.005l5.553 5.553a1 1 0 01-.032 1.445l-.025.023zm3.549-3.253a1 1 0 01-1.383-.03l-4.956-4.957a1 1 0 01.037-1.449l.347-.313a1 1 0 011.377.034l4.954 4.955a1 1 0 01-.032 1.444l-.344.316zM81.74 0H62.32a4.166 4.166 0 00-4.161 4.161v11.097a4.166 4.166 0 004.161 4.161h2.519a1 1 0 01.986 1.17l-.857 4.996c-.146.851.783 1.475 1.515 1.017l11.25-7.03a1 1 0 01.53-.153h3.476a4.166 4.166 0 004.162-4.16V4.16A4.166 4.166 0 0081.739 0zm1.386 15.258a1.39 1.39 0 01-1.387 1.387h-4.272a1 1 0 00-.53.152l-6.673 4.17c-.733.458-1.662-.165-1.516-1.017l.367-2.136a1 1 0 00-.986-1.169H62.32a1.39 1.39 0 01-1.387-1.387V4.161a1.39 1.39 0 011.387-1.387h19.42a1.39 1.39 0 011.386 1.387v11.097z"/><path d="M79.352 5.548H64.707a1 1 0 00-1 1v.775a1 1 0 001 1h14.645a1 1 0 001-1v-.775a1 1 0 00-1-1zm-5.548 5.549h-9.097a1 1 0 00-1 1v.774a1 1 0 001 1h9.097a1 1 0 001-1v-.774a1 1 0 00-1-1zm5.548 0h-.774a1 1 0 00-1 1v.774a1 1 0 001 1h.774a1 1 0 001-1v-.774a1 1 0 00-1-1zM42.9 4.161c-17.286 0-32.287 11.405-37.158 27.632-.258.861-1.445 1.042-1.908.27l-.842-1.402a1 1 0 00-1.372-.343l-.663.398a1 1 0 00-.343 1.372l3.846 6.41a1 1 0 001.372.342l6.41-3.846a1 1 0 00.342-1.372l-.398-.664a1 1 0 00-1.372-.343l-.843.505c-.762.458-1.677-.229-1.408-1.076C13.255 17.269 27.044 6.935 42.9 6.935c3.307 0 6.574.446 9.727 1.327a1.022 1.022 0 001.255-.673l.23-.739a.98.98 0 00-.664-1.239A38.86 38.86 0 0042.9 4.161zM84.712 31.57a1 1 0 00-.343-1.372l-6.41-3.846a1 1 0 00-1.371.343l-3.846 6.41a1 1 0 00.343 1.373l.664.398a1 1 0 001.372-.343l.806-1.343c.438-.73 1.516-.61 1.742.211A35.958 35.958 0 0178.965 43c0 7.915-2.63 15.66-7.425 21.921a1.022 1.022 0 00.158 1.416l.601.487a.98.98 0 001.396-.154A38.938 38.938 0 0081.74 43c0-3.325-.42-6.588-1.243-9.754-.233-.9.756-1.682 1.553-1.204l.893.536a1 1 0 001.372-.344l.398-.664z"/></g><defs><clipPath id="clip0"><path fill="#fff" d="M0 0h86v86H0z"/></clipPath></defs></svg>