<svg width="70" height="70" fill="none" xmlns="http://www.w3.org/2000/svg"><g clip-path="url(#clip0)" fill="#1E5DC5"><path d="M69.1 4.762a1.03 1.03 0 00-.7-.363L53.165 3.098 52.89.902a1.032 1.032 0 00-1.151-.894L37.606 1.785a1.023 1.023 0 00-.172-.03L18.009.094a1.04 1.04 0 00-1.114.94l-.29 3.39L1.559 6.317a1.04 1.04 0 00-.894 1.15l7.68 61.088c.035.278-.025.546.09.816.159.377.539.63.949.63h50.573c.57 0 1.031-.462 1.031-1.032v-1.342l1.996.17a1.04 1.04 0 001.115-.939l5.24-61.344a1.03 1.03 0 00-.24-.752zM8.353 52.092L2.84 8.234l5.514-.693v44.553zM18.861 2.238l9.02.77-9.184 1.155.164-1.925zm32.111-.055l.527 4.189H17.654l33.318-4.189zm11.16 63.474l-1.144-.098V35.437a1.03 1.03 0 10-2.061 0v32.502H10.415V8.432h48.512v22.195a1.03 1.03 0 102.061 0V7.4a1.03 1.03 0 00-1.03-1.03h-6.381l-.149-1.182 13.769 1.176-5.064 59.29z"/><path d="M54.46 11.868h-5.497a1.03 1.03 0 00-.857.459l-2.333 3.5a15.24 15.24 0 00-8.903-2.86 1.03 1.03 0 00-1.031 1.031v14.293c0 .569.461 1.03 1.03 1.03h14.293c.57 0 1.03-.46 1.03-1.03a15.28 15.28 0 00-4.82-11.147l2.143-3.214h4.946a1.03 1.03 0 100-2.062zM50.092 27.26H37.9V15.068c2.5.194 4.806 1.085 6.728 2.476l-.92 1.38a1.04 1.04 0 00.194 1.36 1.04 1.04 0 001.521-.217l.787-1.18a13.227 13.227 0 013.882 8.373z"/><path d="M54.46 45.95h-9.324l-1.643-2.628a15.27 15.27 0 004.302-10.634c0-.57-.462-1.03-1.031-1.03H33.502V18.396a1.03 1.03 0 00-1.03-1.031c-8.45 0-15.324 6.874-15.324 15.323 0 8.45 6.874 15.324 15.323 15.324 3.572 0 6.862-1.229 9.47-3.285l1.75 2.8c.188.301.519.485.874.485h9.895a1.03 1.03 0 100-2.062zm-14.518-8.31a1.03 1.03 0 10-1.748 1.092l2.647 4.236a13.2 13.2 0 01-8.37 2.982c-7.312 0-13.261-5.949-13.261-13.262 0-6.965 5.398-12.694 12.23-13.222v13.222c0 .57.462 1.031 1.031 1.031h13.223a13.21 13.21 0 01-3.331 7.794l-2.42-3.874zM23.677 51.447H14.88a1.03 1.03 0 100 2.062h8.796a1.03 1.03 0 100-2.062zm13.193 0h-8.796a1.03 1.03 0 100 2.062h8.795a1.03 1.03 0 100-2.062zm-7.696 5.497H14.88a1.03 1.03 0 100 2.062h14.293a1.03 1.03 0 100-2.062zm7.696 0h-3.3a1.03 1.03 0 100 2.062h3.299a1.03 1.03 0 100-2.062zm-17.591 5.497h-4.398a1.03 1.03 0 100 2.062h4.398a1.03 1.03 0 100-2.062zm17.591 0H23.677a1.03 1.03 0 100 2.062H36.87a1.03 1.03 0 100-2.062z"/></g><defs><clipPath id="clip0"><path fill="#fff" d="M0 0h70v70H0z"/></clipPath></defs></svg>