<svg width="70" height="70" fill="none" xmlns="http://www.w3.org/2000/svg"><g clip-path="url(#clip0)" fill="#1E5DC5"><path d="M66.882 6.7H31.503a1.026 1.026 0 000 2.05h35.38c.588 0 1.067.48 1.067 1.068v31.219a1.026 1.026 0 002.05 0V9.818A3.122 3.122 0 0066.882 6.7zm2.093 37.777c-.567 0-1.026.459-1.026 1.025v2.027H2.051V9.82c0-.59.479-1.069 1.067-1.069H18.22a1.025 1.025 0 100-2.05H3.118A3.118 3.118 0 000 9.817V53.85a2.424 2.424 0 002.421 2.42h24.85v4.97h-4.234a1.026 1.026 0 000 2.05h23.926a1.025 1.025 0 100-2.05h-4.234v-4.97h24.85a2.424 2.424 0 002.42-2.42v-8.348c0-.567-.458-1.025-1.024-1.025zM40.678 61.24H29.322v-4.97h11.356v4.97zm26.9-7.02H2.421a.37.37 0 01-.37-.37v-4.27h65.898v4.27a.37.37 0 01-.37.37zM22.685 8.75h4.353a1.025 1.025 0 100-2.05h-4.353a1.026 1.026 0 000 2.05z"/><path d="M6.34 14.444c-.566 0-1.025.459-1.025 1.025v27.213c0 .566.46 1.026 1.025 1.026h7.986c.566 0 1.025-.46 1.025-1.026V15.47c0-.566-.46-1.025-1.025-1.025H6.34zm6.96 2.05v1.239H7.366v-1.238H13.3zM7.366 41.658V19.784H13.3v21.873H7.366zm49.193-16.085h7.985c.567 0 1.025-.459 1.025-1.026V15.47c0-.566-.459-1.025-1.025-1.025h-7.985c-.566 0-1.026.459-1.026 1.025v9.078c0 .567.46 1.026 1.026 1.026zm1.025-2.051v-3.739h5.934v3.739h-5.934zm5.934-7.027v1.238h-5.934v-1.238h5.934zm-7.985 22.589c0 .566.46 1.025 1.026 1.025h7.985c.567 0 1.025-.459 1.025-1.025v-9.078c0-.567-.459-1.025-1.025-1.025h-7.985c-.566 0-1.026.458-1.026 1.025v9.078zm2.051-1.026V34.32h5.934v3.739h-5.934zm5.934-7.027v1.238h-5.934V31.03h5.934zm-43.474 3.097a2.994 2.994 0 002.991 2.99 2.98 2.98 0 001.963-.736l7.047 3.904A2.994 2.994 0 0035 43.741a2.994 2.994 0 002.955-3.455l7.047-3.904a2.979 2.979 0 001.963.737 2.994 2.994 0 002.99-2.991c0-1.289-.82-2.39-1.965-2.81v-6.35a2.996 2.996 0 001.965-2.81 2.993 2.993 0 00-2.99-2.991c-.75 0-1.434.277-1.959.733l-7.052-3.907A2.994 2.994 0 0035 12.538a2.994 2.994 0 00-2.954 3.455L24.993 19.9a2.977 2.977 0 00-1.958-.733 2.994 2.994 0 00-2.99 2.99c0 1.29.82 2.39 1.965 2.81v6.352a2.996 2.996 0 00-1.966 2.81zM35 18.52c.748 0 1.433-.277 1.958-.734l7.052 3.907a3.017 3.017 0 000 .93l-7.052 3.906a2.977 2.977 0 00-3.917 0l-7.051-3.907a2.962 2.962 0 000-.929l7.051-3.906c.525.456 1.21.733 1.959.733zm8.973 15.608c0 .156.013.31.036.46l-7.051 3.905a2.974 2.974 0 00-.933-.552v-6.346a2.996 2.996 0 001.93-3.273l7.05-3.907a3 3 0 00.934.552v6.352a2.996 2.996 0 00-1.966 2.81zm-8.033-5.342a.941.941 0 01-1.88 0 .94.94 0 011.88 0zm-10.946-4.371l7.051 3.907a2.996 2.996 0 001.93 3.274v6.345a3.02 3.02 0 00-.934.552l-7.05-3.906a2.996 2.996 0 00-1.93-3.268v-6.352c.345-.126.66-.316.933-.552zm-1.959 10.653a.94.94 0 010-1.88.94.94 0 010 1.88zM35 41.69a.941.941 0 01-.94-.94c0-.518.422-.94.94-.94s.94.422.94.94-.422.94-.94.94zm11.964-6.622a.94.94 0 010-1.88.94.94 0 010 1.88zm0-13.85c.518 0 .94.422.94.94 0 .517-.422.94-.94.94a.941.941 0 01-.94-.94c0-.518.422-.94.94-.94zM35 14.589c.518 0 .94.422.94.94s-.422.94-.94.94a.941.941 0 01-.94-.94c0-.518.422-.94.94-.94zm-11.965 6.629a.941.941 0 010 1.88.941.941 0 01-.94-.94c0-.518.422-.94.94-.94z"/></g><defs><clipPath id="clip0"><path fill="#fff" d="M0 0h70v70H0z"/></clipPath></defs></svg>