<svg width="70" height="70" fill="none" xmlns="http://www.w3.org/2000/svg"><path d="M27.617 61.797c-.36 0-.712.146-.966.4a1.378 1.378 0 00-.401.967c0 .36.146.712.4.967.255.254.608.4.967.4.36 0 .713-.146.967-.4.254-.255.4-.608.4-.967 0-.36-.146-.712-.4-.967a1.378 1.378 0 00-.967-.4z" fill="#00D2A0"/><path d="M68.54 18.637a4.988 4.988 0 00-7.047 0l-6.259 6.26V4.648A4.654 4.654 0 0050.586 0H4.648A4.654 4.654 0 000 4.648v60.704A4.654 4.654 0 004.648 70h45.938a4.654 4.654 0 004.648-4.648V38.99L68.54 25.684a4.988 4.988 0 000-7.047zM52.5 4.648v22.983l-2.734 2.734V6.835c0-.754-.612-1.366-1.368-1.366h-9.137V2.734h11.325c1.055 0 1.914.86 1.914 1.914zm-7.465 37.495l1.846-4.146 2.3 2.3-4.146 1.846zM36.527 2.734v5.572a1.54 1.54 0 01-1.538 1.538H20.246a1.54 1.54 0 01-1.538-1.538V2.734h17.819zm14.059 64.532H4.648a1.916 1.916 0 01-1.914-1.914V4.648c0-1.055.86-1.914 1.914-1.914h11.325V5.47H6.836c-.755 0-1.367.612-1.367 1.367v56.328c0 .755.612 1.367 1.367 1.367h15.312a1.367 1.367 0 100-2.734H8.203V8.203h7.77v.103a4.277 4.277 0 004.273 4.272h14.743a4.277 4.277 0 004.272-4.272v-.103h7.77V33.1l-1.557 1.557a1.384 1.384 0 00-.282.41l-4.104 9.218a1.368 1.368 0 001.805 1.805l4.138-1.842v17.549H33.086a1.367 1.367 0 100 2.734h15.312c.755 0 1.368-.612 1.368-1.367V43.03l2.345-1.044c.144-.064.275-.153.389-.263v23.629a1.916 1.916 0 01-1.914 1.914zm10.925-38.42l-9.956 9.958-3.18-3.18 12.327-12.328 3.18 3.18-2.37 2.37zm5.096-5.095l-.791.791-3.18-3.18.79-.79a2.251 2.251 0 013.181 0 2.251 2.251 0 010 3.18z" fill="#00D2A0"/><path d="M22.148 16.406h-8.75c-.755 0-1.367.612-1.367 1.367v8.75c0 .756.612 1.368 1.367 1.368h8.75c.756 0 1.368-.612 1.368-1.368v-8.75c0-.755-.612-1.367-1.368-1.367zm-1.367 8.75h-6.015v-6.015h6.015v6.015zm1.367 6.289h-8.75c-.755 0-1.367.612-1.367 1.367v8.75c0 .756.612 1.368 1.367 1.368h8.75c.756 0 1.368-.612 1.368-1.367v-8.75c0-.756-.612-1.368-1.368-1.368zm-1.367 8.75h-6.015V34.18h6.015v6.015zm1.367 6.289h-8.75c-.755 0-1.367.612-1.367 1.368v8.75c0 .755.612 1.367 1.367 1.367h8.75c.756 0 1.368-.612 1.368-1.367v-8.75c0-.756-.612-1.368-1.368-1.368zm-1.367 8.75h-6.015V49.22h6.015v6.015zm11.153-29.033a1.363 1.363 0 001.934 0l6.172-6.172a1.368 1.368 0 00-1.934-1.934l-5.205 5.206-2.075-2.075a1.368 1.368 0 00-1.934 1.933l3.042 3.042zm0 15.039a1.367 1.367 0 001.934 0l6.172-6.172a1.368 1.368 0 00-1.934-1.933l-5.205 5.206-2.075-2.075a1.367 1.367 0 00-1.934 1.933l3.042 3.041zm2.532 12.92l2.12 2.12a1.363 1.363 0 001.933 0c.534-.535.534-1.4 0-1.934l-2.119-2.12 2.12-2.12a1.367 1.367 0 10-1.934-1.933l-2.12 2.12-2.119-2.12a1.368 1.368 0 00-1.934 1.934l2.12 2.12-2.12 2.12a1.368 1.368 0 001.934 1.932l2.12-2.119z" fill="#00D2A0"/></svg>