<svg width="70" height="70" fill="none" xmlns="http://www.w3.org/2000/svg"><g clip-path="url(#clip0)" fill="#00D2A0"><path d="M20.57 42.657a2.088 2.088 0 012.792.877l3.86 7.149a1.368 1.368 0 002.57-.65V39.594a1.367 1.367 0 00-2.734 0v5.03l-1.29-2.39a4.809 4.809 0 00-6.43-2.018 4.815 4.815 0 00-2.522 5.449l2.503 10.374a18.725 18.725 0 003.1 6.69l4.903 6.71a1.365 1.365 0 001.91.298c.61-.446.743-1.301.298-1.911l-4.904-6.71a16.003 16.003 0 01-2.65-5.718l-2.502-10.374a2.091 2.091 0 011.095-2.367zm30.867-5.827c-.806 0-1.566.206-2.228.569a4.662 4.662 0 00-4.347-2.992 4.62 4.62 0 00-2.344.636 4.66 4.66 0 00-4.23-2.718c-.685 0-1.335.15-1.92.416v-6.537a4.66 4.66 0 00-4.655-4.655 4.66 4.66 0 00-4.655 4.655v2.37a1.367 1.367 0 002.735 0v-2.37a1.921 1.921 0 013.84 0v19.292a1.367 1.367 0 002.734 0V36.98a1.921 1.921 0 013.84 0v8.517a1.367 1.367 0 002.735 0v-6.435a1.921 1.921 0 013.84 0v6.435a1.367 1.367 0 002.735 0v-4.012a1.921 1.921 0 013.84 0V53.02c0 3.074-.466 6.12-1.386 9.053l-1.928 6.15a1.367 1.367 0 102.609.818l1.928-6.15a32.957 32.957 0 001.512-9.871V41.484a4.66 4.66 0 00-4.655-4.655zM69.885 7.25a2.288 2.288 0 00-1.858-1.566l-4.188-.607-1.874-3.794A2.287 2.287 0 0059.902 0c-.883 0-1.674.492-2.065 1.284l-1.871 3.795-4.188.61a2.287 2.287 0 00-1.857 1.567 2.287 2.287 0 00.583 2.359l3.03 2.953-.713 4.17c-.15.87.202 1.733.916 2.251a2.292 2.292 0 002.424.175l3.745-1.97 3.746 1.968c.78.41 1.71.343 2.424-.176a2.287 2.287 0 00.914-2.252l-.716-4.17 3.03-2.954c.631-.616.854-1.52.581-2.36zm-5.683 3.515a2.3 2.3 0 00-.661 2.038l.606 3.53-3.17-1.666a2.3 2.3 0 00-2.143 0l-3.17 1.669.604-3.531a2.302 2.302 0 00-.662-2.037l-2.566-2.5 3.545-.516c.75-.11 1.397-.58 1.732-1.26l1.585-3.213 1.586 3.212c.336.68.983 1.15 1.733 1.26l3.546.513-2.565 2.501zM44.982 7.25a2.287 2.287 0 00-1.859-1.566l-4.187-.607-1.874-3.794A2.287 2.287 0 0034.998 0c-.883 0-1.674.492-2.064 1.284l-1.872 3.795-4.187.61a2.287 2.287 0 00-1.858 1.567 2.287 2.287 0 00.584 2.359l3.03 2.953-.714 4.17c-.149.87.202 1.733.916 2.251a2.293 2.293 0 002.424.175l3.745-1.97 3.746 1.968c.782.41 1.71.343 2.424-.176a2.287 2.287 0 00.915-2.252l-.716-4.17L44.4 9.61c.632-.616.855-1.52.582-2.36zm-5.683 3.515a2.301 2.301 0 00-.661 2.038l.606 3.53-3.171-1.666a2.3 2.3 0 00-2.142 0l-3.17 1.669.604-3.531a2.301 2.301 0 00-.663-2.037l-2.566-2.5 3.545-.516c.75-.11 1.398-.58 1.733-1.26L35 3.28l1.586 3.212c.335.68.983 1.15 1.733 1.26l3.545.513-2.564 2.501zM20.078 7.25a2.288 2.288 0 00-1.858-1.566l-4.188-.607-1.874-3.794A2.288 2.288 0 0010.095 0h-.001C9.21 0 8.42.492 8.03 1.284L6.16 5.079l-4.188.61A2.287 2.287 0 00.114 7.254c-.273.84-.05 1.744.583 2.36l3.03 2.953-.714 4.17c-.149.87.203 1.733.917 2.251a2.292 2.292 0 002.424.175l3.745-1.97 3.746 1.968c.781.41 1.71.343 2.424-.176a2.288 2.288 0 00.915-2.252l-.717-4.17 3.03-2.954c.631-.616.854-1.52.581-2.36zm-5.683 3.515a2.3 2.3 0 00-.661 2.038l.606 3.53-3.17-1.666a2.3 2.3 0 00-2.143 0l-3.17 1.669.604-3.531a2.301 2.301 0 00-.663-2.037l-2.565-2.5 3.545-.516c.75-.11 1.397-.58 1.732-1.26l1.585-3.213 1.586 3.212c.335.68.983 1.15 1.733 1.26l3.546.513-2.565 2.501z"/><path d="M29.392 33.24a1.377 1.377 0 00-.967-.4c-.36 0-.712.146-.966.4a1.371 1.371 0 00.966 2.334c.36 0 .713-.146.967-.4.254-.255.4-.607.4-.967s-.146-.712-.4-.967z"/></g><defs><clipPath id="clip0"><path fill="#fff" d="M0 0h70v70H0z"/></clipPath></defs></svg>