<svg width="200" height="200" fill="none" xmlns="http://www.w3.org/2000/svg"><g clip-path="url(#clip0)" fill="#1E5DC5"><path d="M100 192.188a3.933 3.933 0 00-2.762 1.144 3.936 3.936 0 00-1.144 2.762c0 1.027.417 2.035 1.144 2.761A3.934 3.934 0 00100 200a3.932 3.932 0 002.761-1.145 3.932 3.932 0 001.145-2.761 3.935 3.935 0 00-1.145-2.762 3.931 3.931 0 00-2.761-1.144z"/><path d="M118.123 143.574c4.285-4.497 6.924-10.575 6.924-17.263v-14.068c0-13.81-11.236-25.047-25.047-25.047-13.81 0-25.047 11.237-25.047 25.047v14.068c0 6.687 2.64 12.766 6.924 17.263-18.773.699-33.83 16.187-33.83 35.128v17.392A3.906 3.906 0 0051.953 200h32.422a3.906 3.906 0 000-7.812H55.859v-13.486c0-15.077 12.267-27.343 27.344-27.343h33.594c15.077 0 27.344 12.266 27.344 27.343v13.486h-28.516a3.906 3.906 0 000 7.812h32.422a3.906 3.906 0 003.906-3.906v-17.392c0-18.941-15.057-34.429-33.83-35.128zm-35.357-31.331c0-9.503 7.73-17.234 17.234-17.234 9.503 0 17.234 7.731 17.234 17.234v14.069c0 9.503-7.731 17.234-17.234 17.234-9.503 0-17.234-7.731-17.234-17.234v-14.069zm116.09-52.623L177.54 38.305a3.908 3.908 0 00-6.669 2.762v8.176h-33.396a3.907 3.907 0 00-3.907 3.906v43.857a3.907 3.907 0 003.907 3.906h18.651a3.906 3.906 0 003.906-3.906v-21.3h10.839V83.7a3.906 3.906 0 006.669 2.762l21.316-21.316a3.905 3.905 0 000-5.524zm-20.172 14.65V71.8a3.907 3.907 0 00-3.907-3.906h-18.651a3.907 3.907 0 00-3.906 3.907V93.1h-10.84V57.054h33.397a3.907 3.907 0 003.907-3.906v-2.65l11.886 11.885-11.886 11.886zM66.432 97.005V53.148a3.907 3.907 0 00-3.906-3.907H29.13v-8.175a3.907 3.907 0 00-6.669-2.762L1.145 59.621a3.907 3.907 0 000 5.524L22.46 86.461a3.908 3.908 0 006.668-2.762v-7.993h10.84v21.3a3.906 3.906 0 003.906 3.905h18.651a3.906 3.906 0 003.906-3.906zM58.62 93.1H47.78V71.8a3.907 3.907 0 00-3.905-3.906H25.223a3.907 3.907 0 00-3.907 3.907v2.468L9.43 62.383l11.886-11.886v2.65a3.907 3.907 0 003.907 3.907H58.62v36.045zm50.704-47.006a3.936 3.936 0 00-2.762 1.144 3.934 3.934 0 00-1.14 2.762c0 1.027.414 2.035 1.14 2.761a3.938 3.938 0 002.762 1.145 3.93 3.93 0 002.762-1.145 3.92 3.92 0 001.144-2.76 3.92 3.92 0 00-1.144-2.763 3.929 3.929 0 00-2.762-1.144z"/><path d="M78.637 29.175h8.131v42.31a3.907 3.907 0 003.906 3.906h18.652a3.906 3.906 0 003.906-3.907v-5.859a3.907 3.907 0 00-7.812 0v1.953H94.58V25.27a3.907 3.907 0 00-3.906-3.906h-2.606L100 9.431l11.932 11.932h-2.606a3.906 3.906 0 00-3.906 3.906v9.106a3.906 3.906 0 007.812 0v-5.2h8.131a3.907 3.907 0 002.762-6.668L102.763 1.144a3.908 3.908 0 00-5.525 0L75.875 22.507a3.908 3.908 0 002.762 6.668z"/></g><defs><clipPath id="clip0"><path fill="#fff" d="M0 0h200v200H0z"/></clipPath></defs></svg>