<svg width="200" height="200" fill="none" xmlns="http://www.w3.org/2000/svg"><g clip-path="url(#clip0)" fill="#1E5DC5"><path d="M70.984 143.287a3.899 3.899 0 00-.862-.142c4.279-4.497 6.914-10.572 6.914-17.255v-20.551c0-.188-.018-.371-.043-.552.025-.371.043-.744.043-1.122V90.663a3.906 3.906 0 00-3.906-3.906h-26.2c-11.034 0-20.01 8.976-20.01 20.009v19.124c0 6.683 2.635 12.758 6.914 17.255-.29.016-.58.061-.861.142C14.513 144.958 0 160.517 0 179.405v16.689A3.906 3.906 0 003.906 200h96.144a3.906 3.906 0 003.906-3.906v-16.689c0-18.887-14.512-34.446-32.972-36.118zm-36.251-31.568v-4.954c0-6.725 5.471-12.196 12.196-12.196h22.294v9.096c0 4.579-3.725 8.305-8.304 8.305H34.733v-.251zm0 8.063h26.186a16.02 16.02 0 008.304-2.31v8.417c0 9.509-7.736 17.246-17.245 17.246s-17.245-7.737-17.245-17.246v-6.107zm25.747 31.166l-8.502 8.502-8.502-8.502H60.48zm35.664 41.24H7.812v-7.813h16.211a3.906 3.906 0 100-7.813H7.955c1.312-13.17 11.643-23.717 24.71-25.378l16.551 16.552a3.908 3.908 0 005.524 0l16.552-16.552c13.994 1.778 24.852 13.752 24.852 28.221v12.783zM167.029 56.53a3.904 3.904 0 00-.863-.14c4.279-4.498 6.914-10.574 6.914-17.256V18.582c0-.188-.018-.371-.044-.552.026-.37.044-.744.044-1.121V3.906A3.906 3.906 0 00169.173 0h-26.2c-11.033 0-20.009 8.976-20.009 20.009v19.124c0 6.683 2.635 12.758 6.914 17.256-.291.015-.581.06-.864.141-18.459 1.672-32.97 17.231-32.97 36.118v16.689a3.906 3.906 0 003.906 3.906h31.43a3.906 3.906 0 000-7.813h-27.524V92.648c0-14.469 10.858-26.442 24.851-28.22l16.552 16.552a3.895 3.895 0 002.762 1.144c1 0 2-.381 2.763-1.144l16.552-16.552c13.994 1.779 24.851 13.751 24.851 28.22v12.783h-28.776a3.906 3.906 0 000 7.812h32.683a3.906 3.906 0 003.906-3.906V92.648c0-18.886-14.512-34.445-32.971-36.117zm-19.007 16.163l-8.502-8.502h17.004l-8.502 8.502zm17.246-33.56c0 9.51-7.737 17.245-17.246 17.245-9.509 0-17.245-7.735-17.245-17.244v-6.108h26.186c3.036 0 5.878-.845 8.305-2.31v8.417zm0-22.224c0 4.579-3.726 8.304-8.305 8.304h-26.186V20.01c0-6.725 5.471-12.197 12.196-12.197h22.295v9.097z"/><path d="M150.785 106.574a3.936 3.936 0 00-2.762-1.144 3.929 3.929 0 00-2.761 1.144 3.92 3.92 0 00-1.145 2.762 3.912 3.912 0 003.906 3.906 3.92 3.92 0 002.762-1.144 3.93 3.93 0 001.145-2.762 3.936 3.936 0 00-1.145-2.762zm-46.33-51.914L88.119 38.323V19.531C88.119 8.761 79.357 0 68.588 0H19.53C8.761 0 0 8.762 0 19.531v34.375c0 10.77 8.762 19.532 19.531 19.532h49.056c8.076 0 15.118-4.847 18.073-12.11h15.033a3.908 3.908 0 002.762-6.668zM83.81 53.516a3.907 3.907 0 00-3.807 3.03 11.656 11.656 0 01-11.416 9.079H19.531c-6.461 0-11.718-5.257-11.718-11.719V19.531c0-6.461 5.256-11.718 11.718-11.718h49.056c6.462 0 11.719 5.256 11.719 11.718v20.41c0 1.036.412 2.03 1.144 2.762l10.812 10.813H83.81zm96.659 73.046h-49.056c-8.076 0-15.118 4.847-18.073 12.11H98.307a3.907 3.907 0 00-2.762 6.668l16.336 16.337v18.792c0 10.769 8.762 19.531 19.531 19.531h49.057c10.769 0 19.531-8.762 19.531-19.531v-34.375c0-10.77-8.762-19.532-19.531-19.532zm11.718 53.907c0 6.461-5.257 11.719-11.718 11.719h-49.056c-6.462 0-11.719-5.258-11.719-11.719v-20.41c0-1.036-.412-2.03-1.144-2.763l-10.812-10.812h8.452a3.906 3.906 0 003.807-3.03c1.229-5.345 5.924-9.079 11.416-9.079h49.056c6.461 0 11.718 5.257 11.718 11.719v34.375z"/><path d="M173.498 152.888a3.904 3.904 0 00-5.523 0l-10.384 10.384-4.829-4.829a3.907 3.907 0 00-5.524 5.525l7.59 7.59a3.894 3.894 0 002.762 1.144c1 0 2-.381 2.762-1.144l13.146-13.146a3.905 3.905 0 000-5.524zM61.818 25.886c-.462-6.698-5.861-12.097-12.56-12.559-3.798-.261-7.418 1.02-10.191 3.609a13.592 13.592 0 00-4.304 9.902 3.907 3.907 0 007.813 0c0-1.606.647-3.094 1.822-4.19a5.69 5.69 0 014.324-1.526 5.731 5.731 0 015.302 5.301c.197 2.86-1.677 5.386-4.456 6.008-3.043.68-5.167 3.325-5.167 6.431v2.084a3.906 3.906 0 107.812 0V39.81c6.053-1.806 10.047-7.512 9.605-13.924zM51.07 53.133a3.936 3.936 0 00-2.761-1.145 3.929 3.929 0 00-2.762 1.145 3.92 3.92 0 00-1.145 2.761 3.92 3.92 0 001.145 2.762 3.929 3.929 0 002.762 1.145 3.936 3.936 0 002.761-1.145 3.936 3.936 0 001.145-2.761 3.936 3.936 0 00-1.145-2.762zm-8.66 124.574a3.935 3.935 0 00-2.762-1.145 3.934 3.934 0 00-2.761 1.145 3.936 3.936 0 00-1.145 2.762c0 1.027.418 2.035 1.145 2.761a3.934 3.934 0 002.761 1.145 3.935 3.935 0 002.762-1.145 3.934 3.934 0 001.145-2.761 3.936 3.936 0 00-1.145-2.762z"/></g><defs><clipPath id="clip0"><path fill="#fff" d="M0 0h200v200H0z"/></clipPath></defs></svg>