<svg width="200" height="200" fill="none" xmlns="http://www.w3.org/2000/svg"><path d="M92.215 139.418a3.92 3.92 0 00-2.762-1.145 3.922 3.922 0 00-2.762 1.145 3.929 3.929 0 00-1.144 2.762c0 1.027.418 2.035 1.144 2.761a3.934 3.934 0 002.762 1.145 3.933 3.933 0 002.761-1.145 3.934 3.934 0 001.145-2.761 3.935 3.935 0 00-1.144-2.762z" fill="#00D2A0"/><path d="M175 104.691a3.907 3.907 0 00-3.906 3.907v17.179h-67.188v-9.642c0-14.854-11.17-27.14-25.549-28.922a20.306 20.306 0 004.55-12.824v-27.48A3.906 3.906 0 0079 43.001H58.562c-9.08 0-16.468 7.387-16.468 16.468v14.919a20.3 20.3 0 004.55 12.824c-14.38 1.783-25.55 14.069-25.55 28.923v9.641H7.812V31.931c0-1.67 1.368-3.029 3.05-3.029h81.195a3.906 3.906 0 000-7.812H10.861C4.873 21.09 0 25.953 0 31.93v115.817c0 5.979 4.873 10.842 10.861 10.842h59.444v18.044c-9.855.998-17.57 9.343-17.57 19.456a3.906 3.906 0 003.906 3.906h65.625a3.906 3.906 0 003.906-3.906c0-10.113-7.716-18.457-17.57-19.456V158.59h59.443c5.989 0 10.862-4.863 10.862-10.842v-39.15a3.909 3.909 0 00-3.907-3.907zM49.906 59.471c0-4.773 3.883-8.656 8.656-8.656h16.532v6.237c0 3.098-2.52 5.62-5.62 5.62H49.906V59.47zm0 11.013h19.569c2.006 0 3.908-.445 5.62-1.237v5.142h-.001c0 6.945-5.65 12.594-12.594 12.594-6.944 0-12.594-5.65-12.594-12.594v-3.905zm17.152 24.312L62.5 99.354l-4.558-4.558h9.116zm-38.152 21.34c0-10.706 7.926-19.594 18.217-21.11l12.614 12.614a3.893 3.893 0 002.763 1.144c1 0 1.999-.381 2.762-1.144l12.614-12.614c10.292 1.516 18.218 10.404 18.218 21.11v9.641H28.906v-9.641zm88.785 76.048H61.214c1.614-4.561 5.969-7.838 11.076-7.838h34.326c5.107 0 9.462 3.276 11.075 7.838zm-39.574-15.65V158.59h22.672v17.944H78.117zm92.977-28.786c0 1.67-1.368 3.029-3.049 3.029H10.861c-1.68 0-3.049-1.359-3.049-3.029V133.59h163.282v14.158zm6.667-56.627A3.934 3.934 0 00175 89.977a3.938 3.938 0 00-2.762 1.144 3.945 3.945 0 00-1.144 2.762c0 1.031.417 2.035 1.144 2.761A3.921 3.921 0 00175 97.79a3.917 3.917 0 002.761-1.145 3.927 3.927 0 001.145-2.761 3.934 3.934 0 00-1.145-2.762zM175 18.363h-29.297a3.906 3.906 0 000 7.813H175a3.906 3.906 0 000-7.813zm-42.551 1.145a3.934 3.934 0 00-2.761-1.145 3.935 3.935 0 00-2.762 1.145 3.934 3.934 0 00-1.145 2.762c0 1.027.418 2.035 1.145 2.761a3.936 3.936 0 002.762 1.145 3.934 3.934 0 002.761-1.145 3.939 3.939 0 001.145-2.761 3.934 3.934 0 00-1.145-2.762zM175 35.55h-45.312a3.906 3.906 0 100 7.813H175a3.906 3.906 0 000-7.812z" fill="#00D2A0"/><path d="M175 52.738h-45.312a3.906 3.906 0 100 7.813H175a3.906 3.906 0 000-7.813z" fill="#00D2A0"/><path d="M180.469.004h-56.25c-10.77 0-19.531 8.762-19.531 19.531v41.797c0 10.021 7.585 18.304 17.317 19.407v10.15a3.907 3.907 0 006.668 2.763l12.788-12.789h39.008c10.769 0 19.531-8.761 19.531-19.531V19.535C200 8.765 191.238.004 180.469.004zm11.719 61.328c0 6.462-5.258 11.719-11.719 11.719h-40.625c-1.036 0-2.03.412-2.762 1.144l-7.264 7.264v-4.502a3.907 3.907 0 00-3.907-3.906h-1.692c-6.462 0-11.719-5.257-11.719-11.719V19.535c0-6.462 5.257-11.719 11.719-11.719h56.25c6.461 0 11.719 5.257 11.719 11.72v41.796z" fill="#00D2A0"/></svg>