<svg width="200" height="200" fill="none" xmlns="http://www.w3.org/2000/svg"><path d="M65.628 154.687h-3.33l15.21-15.211a3.906 3.906 0 00-2.762-6.668h-25.65a3.906 3.906 0 100 7.813h16.22l-15.21 15.21a3.906 3.906 0 002.762 6.668h12.76c8.185 0 14.844 6.659 14.844 14.844 0 8.184-6.66 14.843-14.844 14.843s-14.843-6.659-14.843-14.843a3.906 3.906 0 10-7.813 0c0 12.492 10.164 22.655 22.656 22.655 12.493 0 22.656-10.163 22.656-22.655 0-12.493-10.163-22.656-22.656-22.656zm47.66-21.875h-.59a3.906 3.906 0 100 7.812h.59c11.202 0 20.315 9.114 20.315 20.317v10.929c0 11.202-9.113 20.316-20.315 20.316h-9.371v-16.015a3.907 3.907 0 10-7.813 0v19.921a3.906 3.906 0 003.906 3.906h13.278c15.51 0 28.128-12.618 28.128-28.128v-10.929c0-15.511-12.618-28.129-28.128-28.129z" fill="#00D2A0"/><path d="M102.772 159.346a3.936 3.936 0 00-2.761-1.144 3.938 3.938 0 00-2.762 1.144 3.938 3.938 0 00-1.145 2.762c0 1.027.418 2.035 1.145 2.762a3.938 3.938 0 002.762 1.144 3.936 3.936 0 002.761-1.144 3.936 3.936 0 001.145-2.762 3.936 3.936 0 00-1.145-2.762zm93.323-143.719h-48.439V3.908a3.906 3.906 0 00-3.907-3.906H56.251a3.906 3.906 0 00-3.906 3.906v11.719H3.906A3.906 3.906 0 000 19.533v15.625a3.906 3.906 0 003.906 3.906h48.44v2.344c0 1.09.448 2.076 1.17 2.785l27.412 27.413c.57.57 1.3.943 2.083 1.081v14.807c0 1.375.723 2.648 1.903 3.353l11.222 6.706c-.02.157-.032.316-.032.478v50.797a3.906 3.906 0 007.812 0V98.031c0-.165-.013-.327-.033-.486l11.208-6.698a3.905 3.905 0 001.903-3.353V72.687a3.895 3.895 0 002.083-1.081l27.436-27.436-.001-.002a3.894 3.894 0 001.143-2.76v-2.344h48.439A3.906 3.906 0 00200 35.158V19.533a3.905 3.905 0 00-3.905-3.906zM52.345 31.25H7.813v-7.81h44.532v7.813zm56.837 54.027l-9.179 5.485-9.18-5.485V72.75h18.359v12.528zm5.516-20.34h-29.39L65.684 45.313h68.638l-19.624 19.623zm25.146-27.436H60.157V26.564h45.379a3.906 3.906 0 100-7.813H60.157V7.816h79.686v29.687h.001zm52.344-6.25h-44.532v-7.813h44.532v7.813z" fill="#00D2A0"/><path d="M122.145 18.752h-.058a3.906 3.906 0 000 7.812h.058a3.906 3.906 0 000-7.812z" fill="#00D2A0"/></svg>